<svg width="206" height="153" viewBox="0 0 206 153" fill="none" xmlns="http://www.w3.org/2000/svg">
<rect width="206" height="153" fill="white"/>
<path d="M38.9258 63.5859C35.9375 63.5859 33.2617 63.0781 30.8984 62.0625C28.5547 61.0469 26.6992 59.6211 25.332 57.7852C23.9844 55.9297 23.2812 53.8301 23.2227 51.4863H30.9277C30.9863 52.6191 31.377 53.6152 32.0996 54.4746C32.8223 55.3145 33.7695 55.9688 34.9414 56.4375C36.1133 56.9062 37.4316 57.1406 38.8965 57.1406C40.459 57.1406 41.8555 56.877 43.0859 56.3496C44.3164 55.8223 45.2734 55.0801 45.957 54.123C46.6406 53.166 46.9727 52.0723 46.9531 50.8418C46.9531 49.5527 46.6113 48.4102 45.9277 47.4141C45.2441 46.418 44.2285 45.6465 42.8809 45.0996C41.5527 44.5332 39.9805 44.25 38.1641 44.25H34.3848V38.3613H38.1641C39.6484 38.3613 40.9766 38.1074 42.1484 37.5996C43.3203 37.0723 44.2188 36.3398 44.8438 35.4023C45.4883 34.4648 45.8105 33.3906 45.8105 32.1797C45.8105 31.0078 45.5273 29.9727 44.9609 29.0742C44.4141 28.1563 43.623 27.4434 42.5879 26.9355C41.5723 26.4277 40.3809 26.1738 39.0137 26.1738C37.666 26.1934 36.4258 26.4375 35.293 26.9062C34.1602 27.375 33.2422 28.0488 32.5391 28.9277C31.8359 29.8066 31.4648 30.832 31.4258 32.0039H24.0723C24.1309 29.6602 24.8242 27.5801 26.1523 25.7637C27.5 23.9277 29.2969 22.5117 31.543 21.5156C33.7891 20.5 36.2891 19.9922 39.043 19.9922C41.8555 19.9922 44.3262 20.5195 46.4551 21.5742C48.6035 22.6094 50.2637 24.0254 51.4355 25.8223C52.6074 27.5996 53.1836 29.5723 53.1641 31.7402C53.1836 33.3027 52.8711 34.7188 52.2266 35.9883C51.6016 37.2578 50.6934 38.3125 49.502 39.1523C48.3105 39.9922 46.9434 40.5781 45.4004 40.9102V41.2324C47.373 41.5059 49.0625 42.0918 50.4688 42.9902C51.8945 43.8691 52.9688 45.0215 53.6914 46.4473C54.4141 47.8535 54.7754 49.4453 54.7754 51.2227C54.7754 53.5664 54.0918 55.6758 52.7246 57.5508C51.377 59.4258 49.4922 60.9004 47.0703 61.9746C44.668 63.0488 41.9531 63.5859 38.9258 63.5859Z" fill="black"/>
<path d="M70.2031 63.4688C69.3633 63.4688 68.5918 63.2637 67.8887 62.8535C67.2051 62.4434 66.6582 61.8867 66.248 61.1836C65.8379 60.4805 65.6426 59.7188 65.6621 58.8984C65.6426 58.0977 65.8379 57.3555 66.248 56.6719C66.6582 55.9688 67.2051 55.4219 67.8887 55.0312C68.5918 54.6211 69.3633 54.416 70.2031 54.416C71.0039 54.416 71.7461 54.6211 72.4297 55.0312C73.1328 55.4219 73.6895 55.9688 74.0996 56.6719C74.5098 57.3555 74.7148 58.0977 74.7148 58.8984C74.7148 59.7188 74.5098 60.4805 74.0996 61.1836C73.6895 61.8867 73.1328 62.4434 72.4297 62.8535C71.7461 63.2637 71.0039 63.4688 70.2031 63.4688Z" fill="black"/>
<path d="M85.7246 49.0254L104.064 20.5781H109.104V29.25H105.969L93.5469 48.498V48.8496H119.152V55.0898H85.7246V49.0254ZM106.32 53.2734L106.408 50.5195V20.5781H113.615V63H106.32V53.2734Z" fill="black"/>
<path d="M134.203 63.4688C133.363 63.4688 132.592 63.2637 131.889 62.8535C131.205 62.4434 130.658 61.8867 130.248 61.1836C129.838 60.4805 129.643 59.7188 129.662 58.8984C129.643 58.0977 129.838 57.3555 130.248 56.6719C130.658 55.9688 131.205 55.4219 131.889 55.0312C132.592 54.6211 133.363 54.416 134.203 54.416C135.004 54.416 135.746 54.6211 136.43 55.0312C137.133 55.4219 137.689 55.9688 138.1 56.6719C138.51 57.3555 138.715 58.0977 138.715 58.8984C138.715 59.7188 138.51 60.4805 138.1 61.1836C137.689 61.8867 137.133 62.4434 136.43 62.8535C135.746 63.2637 135.004 63.4688 134.203 63.4688Z" fill="black"/>
<path d="M170.496 27.2285V26.9648H149.139V20.5781H178.406V27.1113L160.008 63H152.098L170.496 27.2285Z" fill="black"/>
<rect x="26.5" y="84.5" width="28" height="15" rx="3.5" fill="#F5F5F5"/>
<rect x="26.5" y="84.5" width="28" height="15" rx="3.5" stroke="#EEEEEE"/>
<path d="M30.4844 90.7578H31.4336V91.4766H31.4805C31.5716 91.2344 31.7188 91.0456 31.9219 90.9102C32.125 90.7721 32.3685 90.7031 32.6523 90.7031C32.8398 90.7031 33.0104 90.7344 33.1641 90.7969C33.3177 90.8568 33.4479 90.9453 33.5547 91.0625C33.6615 91.1771 33.7422 91.3151 33.7969 91.4766H33.8398C33.9023 91.3203 33.9948 91.1836 34.1172 91.0664C34.2396 90.9492 34.3854 90.8594 34.5547 90.7969C34.7266 90.7344 34.9141 90.7031 35.1172 90.7031C35.3776 90.7031 35.6081 90.7591 35.8086 90.8711C36.0091 90.9805 36.1641 91.1445 36.2734 91.3633C36.3854 91.582 36.4414 91.8464 36.4414 92.1562V95H35.4453V92.3047C35.4453 92.0521 35.3776 91.862 35.2422 91.7344C35.1094 91.6042 34.9336 91.5391 34.7148 91.5391C34.556 91.5391 34.4193 91.5742 34.3047 91.6445C34.1901 91.7122 34.1016 91.8073 34.0391 91.9297C33.9792 92.0495 33.9479 92.1888 33.9453 92.3477V95H32.9727V92.2617C32.9727 92.1185 32.9427 91.9922 32.8828 91.8828C32.8255 91.7708 32.7422 91.6862 32.6328 91.6289C32.526 91.569 32.4023 91.5391 32.2617 91.5391C32.1159 91.5391 31.9831 91.5755 31.8633 91.6484C31.7461 91.7214 31.6523 91.8255 31.582 91.9609C31.5117 92.0938 31.4766 92.2461 31.4766 92.418V95H30.4844V90.7578ZM39.9219 93.1211C39.8229 93.1289 39.7461 93.1354 39.6914 93.1406C39.6393 93.1432 39.5612 93.1484 39.457 93.1562C39.2643 93.1641 39.0885 93.1745 38.9297 93.1875C38.6849 93.2083 38.4948 93.2695 38.3594 93.3711C38.224 93.4727 38.1562 93.6146 38.1562 93.7969C38.1562 93.9167 38.1875 94.0182 38.25 94.1016C38.3125 94.1849 38.3971 94.2487 38.5039 94.293C38.6107 94.3346 38.7344 94.3542 38.875 94.3516C39.0703 94.3516 39.2435 94.3125 39.3945 94.2344C39.5456 94.1562 39.6615 94.0508 39.7422 93.918C39.8255 93.7826 39.8672 93.6354 39.8672 93.4766L39.8594 92.1211C39.8594 91.9831 39.8307 91.8646 39.7734 91.7656C39.7161 91.6641 39.6289 91.5885 39.5117 91.5391C39.3971 91.4896 39.2565 91.4648 39.0898 91.4648C38.8737 91.4648 38.6979 91.5104 38.5625 91.6016C38.4271 91.6901 38.3398 91.8112 38.3008 91.9648H37.332C37.3581 91.7227 37.4466 91.5065 37.5977 91.3164C37.7487 91.1237 37.9531 90.974 38.2109 90.8672C38.4714 90.7578 38.7734 90.7031 39.1172 90.7031C39.4193 90.7031 39.7005 90.7487 39.9609 90.8398C40.2214 90.931 40.4336 91.0859 40.5977 91.3047C40.7643 91.5234 40.849 91.8086 40.8516 92.1602V95H39.8984V94.4141H39.8672C39.7656 94.612 39.6094 94.7734 39.3984 94.8984C39.1901 95.0234 38.9297 95.0859 38.6172 95.0859C38.3438 95.0859 38.1003 95.0378 37.8867 94.9414C37.6732 94.8424 37.5039 94.6966 37.3789 94.5039C37.2565 94.3112 37.1953 94.0794 37.1953 93.8086C37.1953 93.3711 37.3424 93.0547 37.6367 92.8594C37.931 92.6641 38.3112 92.5508 38.7773 92.5195C38.9023 92.5117 39.0404 92.5039 39.1914 92.4961C39.3451 92.4857 39.4935 92.4779 39.6367 92.4727C39.7279 92.4701 39.8203 92.4674 39.9141 92.4648L39.9219 93.1211ZM42.7891 90.7578V95.2422C42.7891 95.5443 42.7318 95.7956 42.6172 95.9961C42.5052 96.1966 42.3398 96.3464 42.1211 96.4453C41.9023 96.5443 41.6341 96.5938 41.3164 96.5938C41.2279 96.5911 41.1589 96.5885 41.1094 96.5859V95.7734C41.1641 95.7786 41.2148 95.7799 41.2617 95.7773C41.3867 95.7773 41.4883 95.7565 41.5664 95.7148C41.6445 95.6732 41.7018 95.612 41.7383 95.5312C41.7747 95.4531 41.7943 95.3529 41.7969 95.2305V90.7578H42.7891ZM42.2891 90.1523C42.1823 90.1523 42.0846 90.1276 41.9961 90.0781C41.9102 90.0286 41.8411 89.9635 41.7891 89.8828C41.737 89.8021 41.7109 89.7122 41.7109 89.6133C41.7109 89.5143 41.737 89.4232 41.7891 89.3398C41.8411 89.2565 41.9102 89.1914 41.9961 89.1445C42.0846 89.0977 42.181 89.0742 42.2852 89.0742C42.3893 89.0742 42.4857 89.0977 42.5742 89.1445C42.6628 89.1914 42.7331 89.2565 42.7852 89.3398C42.8398 89.4232 42.8672 89.5143 42.8672 89.6133C42.8672 89.7122 42.8398 89.8021 42.7852 89.8828C42.7331 89.9635 42.6628 90.0286 42.5742 90.0781C42.4857 90.1276 42.3906 90.1523 42.2891 90.1523ZM45.5977 95.082C45.1888 95.082 44.8307 94.9909 44.5234 94.8086C44.2161 94.6263 43.9792 94.3711 43.8125 94.043C43.6458 93.7122 43.5625 93.3294 43.5625 92.8945C43.5625 92.4596 43.6458 92.0768 43.8125 91.7461C43.9792 91.4154 44.2161 91.1589 44.5234 90.9766C44.8307 90.7943 45.1888 90.7031 45.5977 90.7031C46.0065 90.7031 46.3646 90.7943 46.6719 90.9766C46.9792 91.1589 47.2148 91.4154 47.3789 91.7461C47.543 92.0768 47.625 92.4596 47.625 92.8945C47.625 93.3294 47.543 93.7122 47.3789 94.043C47.2148 94.3711 46.9792 94.6263 46.6719 94.8086C46.3646 94.9909 46.0065 95.082 45.5977 95.082ZM45.6055 94.2891C45.8216 94.2891 46.0065 94.2279 46.1602 94.1055C46.3138 93.9831 46.4284 93.8164 46.5039 93.6055C46.5794 93.3945 46.6172 93.1562 46.6172 92.8906C46.6172 92.625 46.5794 92.3867 46.5039 92.1758C46.4284 91.9648 46.3138 91.7982 46.1602 91.6758C46.0065 91.5508 45.8216 91.4883 45.6055 91.4883C45.3815 91.4883 45.1914 91.5508 45.0352 91.6758C44.8789 91.7982 44.7617 91.9648 44.6836 92.1758C44.6081 92.3867 44.569 92.625 44.5664 92.8906C44.569 93.1562 44.6081 93.3945 44.6836 93.6055C44.7617 93.8164 44.8789 93.9831 45.0352 94.1055C45.1914 94.2279 45.3815 94.2891 45.6055 94.2891ZM48.4062 90.7578H49.3672V91.4648H49.4141C49.487 91.2227 49.6172 91.0339 49.8047 90.8984C49.9948 90.763 50.2122 90.6953 50.457 90.6953C50.6367 90.6979 50.7578 90.707 50.8203 90.7227V91.6406C50.7656 91.6224 50.694 91.6081 50.6055 91.5977C50.5195 91.5872 50.4362 91.582 50.3555 91.582C50.1732 91.582 50.0091 91.6211 49.8633 91.6992C49.7201 91.7773 49.6068 91.8867 49.5234 92.0273C49.4401 92.168 49.3984 92.3268 49.3984 92.5039V95H48.4062V90.7578Z" fill="#282828"/>
<path d="M29.8223 113.595H29.1694V107.453H29.8223V113.595ZM26.541 107.914C26.8464 107.914 27.1187 108.002 27.3579 108.177C27.5972 108.353 27.784 108.603 27.9185 108.929C28.0529 109.255 28.1201 109.633 28.1201 110.064C28.1201 110.497 28.0529 110.876 27.9185 111.202C27.784 111.526 27.5972 111.775 27.3579 111.951C27.1187 112.126 26.8464 112.214 26.541 112.214C26.2357 112.214 25.9622 112.126 25.7207 111.951C25.4814 111.775 25.2946 111.526 25.1602 111.202C25.0257 110.876 24.9585 110.497 24.9585 110.064C24.9585 109.633 25.0257 109.255 25.1602 108.929C25.2946 108.603 25.4814 108.353 25.7207 108.177C25.9622 108.002 26.2357 107.914 26.541 107.914ZM26.541 108.495C26.3542 108.495 26.1878 108.559 26.042 108.687C25.8962 108.814 25.7834 108.996 25.7036 109.233C25.6239 109.47 25.5851 109.747 25.5874 110.064C25.5851 110.383 25.6239 110.661 25.7036 110.898C25.7834 111.133 25.8962 111.314 26.042 111.441C26.1878 111.567 26.3542 111.629 26.541 111.629C26.7279 111.629 26.8931 111.567 27.0366 111.441C27.1825 111.314 27.2952 111.133 27.375 110.898C27.4548 110.661 27.4946 110.383 27.4946 110.064C27.4946 109.747 27.4548 109.47 27.375 109.233C27.2952 108.996 27.1825 108.814 27.0366 108.687C26.8931 108.559 26.7279 108.495 26.541 108.495ZM35.6123 109.65H34.0811V109.117H35.6123V109.65ZM35.9028 111.947H35.2534V107.459H35.9028V111.947ZM36.0669 113.458H31.9243V112.921H36.0669V113.458ZM32.5771 113.205H31.9243V111.544H32.5771V113.205ZM32.8643 108.697C32.8643 109.073 32.7948 109.427 32.6558 109.76C32.5168 110.09 32.3174 110.381 32.0576 110.631C31.7979 110.88 31.4925 111.068 31.1416 111.195L30.8032 110.669C31.1108 110.564 31.3797 110.411 31.6099 110.211C31.8423 110.008 32.02 109.776 32.1431 109.514C32.2684 109.252 32.3311 108.979 32.3311 108.697V108.229H32.8643V108.697ZM32.9873 108.7C32.9873 108.958 33.0477 109.208 33.1685 109.452C33.2892 109.694 33.4601 109.91 33.6812 110.102C33.9022 110.293 34.1631 110.439 34.4639 110.539L34.1323 111.055C33.7905 110.937 33.4932 110.759 33.2402 110.522C32.9896 110.283 32.7959 110.007 32.6592 109.695C32.5247 109.383 32.4587 109.051 32.4609 108.7V108.229H32.9873V108.7ZM34.3066 108.458H30.998V107.928H34.3066V108.458ZM43.665 113.595H43.019V107.453H43.665V113.595ZM43.207 110.225H41.457V109.691H43.207V110.225ZM39.4473 109.493H41.0298V107.935H41.6655V112.074H38.7944V107.935H39.4473V109.493ZM41.0298 111.547V110.009H39.4473V111.547H41.0298ZM49.4209 109.65H47.8896V109.117H49.4209V109.65ZM49.7114 111.947H49.062V107.459H49.7114V111.947ZM49.8755 113.458H45.7329V112.921H49.8755V113.458ZM46.3857 113.205H45.7329V111.544H46.3857V113.205ZM46.6729 108.697C46.6729 109.073 46.6034 109.427 46.4644 109.76C46.3254 110.09 46.126 110.381 45.8662 110.631C45.6064 110.88 45.3011 111.068 44.9502 111.195L44.6118 110.669C44.9194 110.564 45.1883 110.411 45.4185 110.211C45.6509 110.008 45.8286 109.776 45.9517 109.514C46.077 109.252 46.1396 108.979 46.1396 108.697V108.229H46.6729V108.697ZM46.7959 108.7C46.7959 108.958 46.8563 109.208 46.9771 109.452C47.0978 109.694 47.2687 109.91 47.4897 110.102C47.7108 110.293 47.9717 110.439 48.2725 110.539L47.9409 111.055C47.5991 110.937 47.3018 110.759 47.0488 110.522C46.7982 110.283 46.6045 110.007 46.4678 109.695C46.3333 109.383 46.2673 109.051 46.2695 108.7V108.229H46.7959V108.7ZM48.1152 108.458H44.8066V107.928H48.1152V108.458ZM53.6831 108.635H50.9316V108.112H53.6831V108.635ZM52.4902 111.94H51.8511V109.862H52.4902V111.94ZM54.0659 108.536C54.0636 108.919 54.0522 109.29 54.0317 109.65C54.0112 110.01 53.9645 110.424 53.8916 110.891L53.2456 110.836C53.3208 110.378 53.3675 109.976 53.3857 109.63C53.4062 109.281 53.4165 108.912 53.4165 108.522V108.488V108.112H54.0659V108.488V108.536ZM55.4229 113.578H54.7734V107.453H55.4229V113.578ZM56.3594 110.536H55.2417V109.982H56.3594V110.536ZM50.5967 111.735C51.3372 111.731 52.0208 111.716 52.6475 111.691C53.2764 111.666 53.8677 111.62 54.4214 111.554L54.4556 112.04C53.8813 112.131 53.2741 112.192 52.6338 112.224C51.9958 112.254 51.3407 112.266 50.6685 112.262L50.5967 111.735ZM27.0298 120.847H21.9849V120.317H27.0298V120.847ZM27.3271 124.894H21.7217V124.364H27.3271V124.894ZM24.8286 124.562H24.1895V123.428H24.8286V124.562ZM24.5107 121.213C24.9232 121.213 25.2832 121.258 25.5908 121.35C25.8984 121.441 26.1343 121.575 26.2983 121.753C26.4647 121.928 26.5479 122.137 26.5479 122.378C26.5479 122.625 26.4647 122.836 26.2983 123.014C26.1343 123.192 25.8984 123.329 25.5908 123.424C25.2855 123.52 24.9255 123.568 24.5107 123.568C24.0892 123.568 23.7257 123.52 23.4204 123.424C23.1151 123.329 22.8792 123.192 22.7129 123.014C22.5488 122.836 22.4679 122.625 22.4702 122.378C22.4679 122.135 22.5488 121.925 22.7129 121.75C22.8792 121.574 23.1151 121.441 23.4204 121.35C23.728 121.258 24.0915 121.213 24.5107 121.213ZM24.5107 121.722C24.2191 121.724 23.9696 121.751 23.7622 121.801C23.5571 121.851 23.3999 121.925 23.2905 122.023C23.1812 122.121 23.1276 122.239 23.1299 122.378C23.1276 122.52 23.1812 122.639 23.2905 122.737C23.3999 122.835 23.5571 122.912 23.7622 122.966C23.9696 123.019 24.2191 123.045 24.5107 123.045C24.7979 123.045 25.0439 123.019 25.249 122.966C25.4564 122.912 25.6136 122.835 25.7207 122.737C25.8301 122.639 25.8848 122.52 25.8848 122.378C25.8848 122.239 25.8301 122.121 25.7207 122.023C25.6136 121.925 25.4564 121.851 25.249 121.801C25.0439 121.751 24.7979 121.724 24.5107 121.722ZM24.8286 120.646H24.1895V119.542H24.8286V120.646ZM32.5942 124.245H31.9414V119.453H32.5942V124.245ZM33.4658 122.098H32.3379V121.558H33.4658V122.098ZM32.8096 125.458H28.626V124.921H32.8096V125.458ZM29.2822 125.085H28.626V123.923H29.2822V125.085ZM29.9761 123.288H29.3335V122.43H29.9761V123.288ZM27.7305 123.055C28.4665 123.055 29.1535 123.042 29.7915 123.014C30.4318 122.985 31.0322 122.926 31.5928 122.84L31.6475 123.294C31.1029 123.399 30.5366 123.47 29.9487 123.506C29.3631 123.541 28.7046 123.562 27.9731 123.571C27.9367 123.571 27.9082 123.571 27.8877 123.571C27.8672 123.571 27.8387 123.571 27.8022 123.571L27.7305 123.055ZM31.4185 120.502H27.8843V120.023H31.4185V120.502ZM29.6479 120.734C29.9396 120.734 30.1948 120.772 30.4136 120.847C30.6346 120.92 30.8055 121.029 30.9263 121.175C31.047 121.319 31.1086 121.489 31.1108 121.685C31.1086 121.874 31.047 122.039 30.9263 122.18C30.8055 122.321 30.6346 122.431 30.4136 122.508C30.1948 122.583 29.9396 122.621 29.6479 122.621C29.3563 122.621 29.1011 122.582 28.8823 122.505C28.6636 122.427 28.4938 122.319 28.373 122.18C28.2523 122.041 28.1919 121.876 28.1919 121.685C28.1919 121.489 28.2523 121.319 28.373 121.175C28.4938 121.029 28.6636 120.92 28.8823 120.847C29.1011 120.772 29.3563 120.734 29.6479 120.734ZM29.6479 121.186C29.4748 121.186 29.3255 121.205 29.2002 121.244C29.0749 121.28 28.978 121.337 28.9097 121.415C28.8436 121.49 28.8105 121.58 28.8105 121.685C28.8105 121.783 28.8436 121.868 28.9097 121.941C28.978 122.014 29.0749 122.071 29.2002 122.112C29.3278 122.151 29.4771 122.17 29.6479 122.17C29.8188 122.17 29.967 122.151 30.0923 122.112C30.2199 122.071 30.3179 122.014 30.3862 121.941C30.4546 121.868 30.4888 121.783 30.4888 121.685C30.4888 121.58 30.4557 121.49 30.3896 121.415C30.3236 121.337 30.2267 121.28 30.0991 121.244C29.9715 121.205 29.8211 121.186 29.6479 121.186ZM29.9761 120.242H29.3335V119.436H29.9761V120.242ZM37.4717 122.577H34.2998V122.047H37.4717V122.577ZM36.1797 123.852H35.5337V122.467H36.1797V123.852ZM37.4443 120.546H34.939V122.231H34.2998V120.027H37.4443V120.546ZM38.8867 125.595H38.2407V119.453H38.8867V125.595ZM33.8521 123.752C34.604 123.755 35.3127 123.746 35.978 123.725C36.6434 123.702 37.2689 123.658 37.8545 123.592L37.9023 124.074C37.4808 124.135 37.0433 124.182 36.5898 124.214C36.1364 124.243 35.6978 124.264 35.2739 124.275C34.8524 124.287 34.4069 124.292 33.9375 124.292L33.8521 123.752ZM42.0005 121.261C41.9982 121.705 41.9207 122.137 41.7681 122.556C41.6177 122.975 41.408 123.348 41.1392 123.674C40.8726 124 40.5718 124.245 40.2368 124.409L39.854 123.899C40.1593 123.756 40.4339 123.543 40.6777 123.26C40.9238 122.978 41.1164 122.662 41.2554 122.313C41.3966 121.963 41.4673 121.612 41.4673 121.261V120.352H42.0005V121.261ZM42.1235 121.261C42.1235 121.6 42.193 121.936 42.332 122.269C42.4733 122.599 42.6659 122.896 42.9097 123.158C43.1558 123.417 43.4338 123.613 43.7437 123.746L43.3848 124.255C43.0361 124.102 42.7274 123.873 42.4585 123.568C42.1896 123.26 41.98 122.907 41.8296 122.508C41.6792 122.11 41.6051 121.694 41.6074 121.261V120.352H42.1235V121.261ZM43.5249 120.608H40.0693V120.075H43.5249V120.608ZM44.9468 125.578H44.2939V119.453H44.9468V125.578ZM49.332 119.784C49.6374 119.784 49.9119 119.845 50.1558 119.965C50.3996 120.086 50.591 120.255 50.73 120.471C50.8713 120.688 50.9419 120.931 50.9419 121.203C50.9419 121.478 50.8724 121.724 50.7334 121.941C50.5944 122.155 50.4019 122.324 50.1558 122.447C49.9119 122.568 49.6374 122.628 49.332 122.628C49.0267 122.628 48.751 122.568 48.5049 122.447C48.2611 122.324 48.0697 122.154 47.9307 121.938C47.7917 121.721 47.7222 121.476 47.7222 121.203C47.7222 120.931 47.7917 120.688 47.9307 120.471C48.0697 120.255 48.2622 120.086 48.5083 119.965C48.7544 119.845 49.029 119.784 49.332 119.784ZM49.332 120.324C49.1497 120.324 48.9834 120.362 48.833 120.437C48.6826 120.512 48.5653 120.617 48.481 120.751C48.3966 120.884 48.3545 121.034 48.3545 121.203C48.3545 121.374 48.3966 121.526 48.481 121.661C48.5653 121.795 48.6815 121.901 48.8296 121.979C48.98 122.056 49.1475 122.095 49.332 122.095C49.5166 122.095 49.6829 122.056 49.8311 121.979C49.9814 121.901 50.0988 121.795 50.1831 121.661C50.2674 121.526 50.3096 121.374 50.3096 121.203C50.3096 121.034 50.2674 120.884 50.1831 120.751C50.0988 120.617 49.9814 120.512 49.8311 120.437C49.6829 120.362 49.5166 120.324 49.332 120.324ZM52.4424 122.505H51.7964V119.453H52.4424V122.505ZM53.3345 121.336H52.1724V120.799H53.3345V121.336ZM48.5562 124.891C48.8068 124.891 49.0586 124.876 49.3115 124.846C49.5667 124.817 49.8105 124.763 50.043 124.686L50.1387 125.198C49.8835 125.285 49.626 125.343 49.3662 125.373C49.1064 125.402 48.8364 125.416 48.5562 125.414H48.2485V124.891H48.5562ZM48.8774 125.075H48.2485V123.144H48.8774V125.075ZM53.0166 123.653H49.9268V123.165H53.0166V123.653ZM51.4683 123.841C51.6938 123.841 51.8944 123.877 52.0698 123.947C52.2453 124.018 52.382 124.119 52.48 124.251C52.578 124.381 52.6281 124.534 52.6304 124.709C52.6281 124.883 52.578 125.033 52.48 125.161C52.382 125.291 52.2453 125.391 52.0698 125.461C51.8944 125.534 51.6938 125.571 51.4683 125.571C51.2404 125.571 51.0387 125.534 50.8633 125.461C50.6901 125.391 50.5557 125.291 50.46 125.161C50.3643 125.033 50.3164 124.883 50.3164 124.709C50.3164 124.534 50.3643 124.381 50.46 124.251C50.5557 124.119 50.6901 124.018 50.8633 123.947C51.0387 123.877 51.2404 123.841 51.4683 123.841ZM51.4683 124.303C51.3566 124.303 51.2563 124.319 51.1675 124.351C51.0809 124.382 51.0125 124.43 50.9624 124.494C50.9146 124.558 50.8906 124.63 50.8906 124.709C50.8906 124.792 50.9146 124.863 50.9624 124.925C51.0125 124.984 51.0809 125.031 51.1675 125.065C51.2563 125.099 51.3566 125.116 51.4683 125.116C51.5799 125.116 51.679 125.099 51.7656 125.065C51.8545 125.031 51.9229 124.984 51.9707 124.925C52.0186 124.863 52.0425 124.792 52.0425 124.709C52.0425 124.63 52.0186 124.558 51.9707 124.494C51.9229 124.43 51.8545 124.382 51.7656 124.351C51.679 124.319 51.5799 124.303 51.4683 124.303ZM51.7964 123.541H51.1606V122.655H51.7964V123.541ZM56.4722 119.583C56.9188 119.583 57.3062 119.629 57.6343 119.723C57.9624 119.816 58.2142 119.952 58.3896 120.129C58.5674 120.307 58.6562 120.517 58.6562 120.758C58.6562 121 58.5674 121.208 58.3896 121.384C58.2142 121.557 57.9624 121.689 57.6343 121.78C57.3062 121.871 56.9188 121.917 56.4722 121.917C56.0256 121.917 55.637 121.871 55.3066 121.78C54.9785 121.689 54.7244 121.557 54.5444 121.384C54.3667 121.208 54.2778 121 54.2778 120.758C54.2778 120.517 54.3667 120.307 54.5444 120.129C54.7244 119.952 54.9785 119.816 55.3066 119.723C55.637 119.629 56.0256 119.583 56.4722 119.583ZM56.4722 120.095C56.1577 120.095 55.8866 120.121 55.6587 120.174C55.4308 120.224 55.2554 120.299 55.1323 120.399C55.0116 120.5 54.9512 120.619 54.9512 120.758C54.9512 120.895 55.0116 121.011 55.1323 121.107C55.2554 121.203 55.4308 121.278 55.6587 121.333C55.8866 121.385 56.1577 121.411 56.4722 121.411C56.7821 121.411 57.0509 121.385 57.2788 121.333C57.509 121.278 57.6844 121.203 57.8052 121.107C57.9282 121.011 57.9897 120.895 57.9897 120.758C57.9897 120.619 57.9282 120.5 57.8052 120.399C57.6844 120.299 57.509 120.224 57.2788 120.174C57.0509 120.121 56.7821 120.095 56.4722 120.095ZM58.5845 125.502H54.3496V123.462H58.5845V125.502ZM54.9922 124.976H57.9487V123.981H54.9922V124.976ZM59.2646 122.918H53.6797V122.389H59.2646V122.918Z" fill="#4B4B4B"/>
<rect x="87" y="84.5" width="29" height="15" rx="3.5" fill="#F5F5F5"/>
<rect x="87" y="84.5" width="29" height="15" rx="3.5" stroke="#EEEEEE"/>
<path d="M90.9844 90.7578H91.9336V91.4766H91.9805C92.0716 91.2344 92.2188 91.0456 92.4219 90.9102C92.625 90.7721 92.8685 90.7031 93.1523 90.7031C93.3398 90.7031 93.5104 90.7344 93.6641 90.7969C93.8177 90.8568 93.9479 90.9453 94.0547 91.0625C94.1615 91.1771 94.2422 91.3151 94.2969 91.4766H94.3398C94.4023 91.3203 94.4948 91.1836 94.6172 91.0664C94.7396 90.9492 94.8854 90.8594 95.0547 90.7969C95.2266 90.7344 95.4141 90.7031 95.6172 90.7031C95.8776 90.7031 96.1081 90.7591 96.3086 90.8711C96.5091 90.9805 96.6641 91.1445 96.7734 91.3633C96.8854 91.582 96.9414 91.8464 96.9414 92.1562V95H95.9453V92.3047C95.9453 92.0521 95.8776 91.862 95.7422 91.7344C95.6094 91.6042 95.4336 91.5391 95.2148 91.5391C95.056 91.5391 94.9193 91.5742 94.8047 91.6445C94.6901 91.7122 94.6016 91.8073 94.5391 91.9297C94.4792 92.0495 94.4479 92.1888 94.4453 92.3477V95H93.4727V92.2617C93.4727 92.1185 93.4427 91.9922 93.3828 91.8828C93.3255 91.7708 93.2422 91.6862 93.1328 91.6289C93.026 91.569 92.9023 91.5391 92.7617 91.5391C92.6159 91.5391 92.4831 91.5755 92.3633 91.6484C92.2461 91.7214 92.1523 91.8255 92.082 91.9609C92.0117 92.0938 91.9766 92.2461 91.9766 92.418V95H90.9844V90.7578ZM97.8984 90.7578H98.8906V95H97.8984V90.7578ZM98.3945 90.1523C98.2878 90.1523 98.1901 90.1276 98.1016 90.0781C98.0156 90.0286 97.9466 89.9635 97.8945 89.8828C97.8424 89.8021 97.8164 89.7122 97.8164 89.6133C97.8164 89.5143 97.8424 89.4232 97.8945 89.3398C97.9466 89.2565 98.0156 89.1914 98.1016 89.1445C98.1901 89.0977 98.2865 89.0742 98.3906 89.0742C98.4948 89.0742 98.5911 89.0977 98.6797 89.1445C98.7682 89.1914 98.8385 89.2565 98.8906 89.3398C98.9453 89.4232 98.9727 89.5143 98.9727 89.6133C98.9727 89.7122 98.9453 89.8021 98.8906 89.8828C98.8385 89.9635 98.7682 90.0286 98.6797 90.0781C98.5911 90.1276 98.4961 90.1523 98.3945 90.1523ZM100.844 95H99.8516V90.7578H100.801V91.4766H100.848C100.949 91.2344 101.108 91.0456 101.324 90.9102C101.54 90.7721 101.803 90.7031 102.113 90.7031C102.408 90.7031 102.663 90.7656 102.879 90.8906C103.098 91.013 103.266 91.1953 103.383 91.4375C103.503 91.6771 103.562 91.9635 103.562 92.2969V95H102.57V92.4492C102.57 92.2617 102.538 92.1003 102.473 91.9648C102.408 91.8294 102.312 91.7253 102.188 91.6523C102.065 91.5794 101.917 91.543 101.742 91.543C101.565 91.543 101.409 91.5807 101.273 91.6562C101.138 91.7318 101.033 91.8438 100.957 91.9922C100.882 92.138 100.844 92.3112 100.844 92.5117V95ZM106.371 95.082C105.962 95.082 105.604 94.9909 105.297 94.8086C104.99 94.6263 104.753 94.3711 104.586 94.043C104.419 93.7122 104.336 93.3294 104.336 92.8945C104.336 92.4596 104.419 92.0768 104.586 91.7461C104.753 91.4154 104.99 91.1589 105.297 90.9766C105.604 90.7943 105.962 90.7031 106.371 90.7031C106.78 90.7031 107.138 90.7943 107.445 90.9766C107.753 91.1589 107.988 91.4154 108.152 91.7461C108.316 92.0768 108.398 92.4596 108.398 92.8945C108.398 93.3294 108.316 93.7122 108.152 94.043C107.988 94.3711 107.753 94.6263 107.445 94.8086C107.138 94.9909 106.78 95.082 106.371 95.082ZM106.379 94.2891C106.595 94.2891 106.78 94.2279 106.934 94.1055C107.087 93.9831 107.202 93.8164 107.277 93.6055C107.353 93.3945 107.391 93.1562 107.391 92.8906C107.391 92.625 107.353 92.3867 107.277 92.1758C107.202 91.9648 107.087 91.7982 106.934 91.6758C106.78 91.5508 106.595 91.4883 106.379 91.4883C106.155 91.4883 105.965 91.5508 105.809 91.6758C105.652 91.7982 105.535 91.9648 105.457 92.1758C105.382 92.3867 105.342 92.625 105.34 92.8906C105.342 93.1562 105.382 93.3945 105.457 93.6055C105.535 93.8164 105.652 93.9831 105.809 94.1055C105.965 94.2279 106.155 94.2891 106.379 94.2891ZM109.18 90.7578H110.141V91.4648H110.188C110.26 91.2227 110.391 91.0339 110.578 90.8984C110.768 90.763 110.986 90.6953 111.23 90.6953C111.41 90.6979 111.531 90.707 111.594 90.7227V91.6406C111.539 91.6224 111.467 91.6081 111.379 91.5977C111.293 91.5872 111.21 91.582 111.129 91.582C110.947 91.582 110.783 91.6211 110.637 91.6992C110.493 91.7773 110.38 91.8867 110.297 92.0273C110.214 92.168 110.172 92.3268 110.172 92.5039V95H109.18V90.7578Z" fill="#282828"/>
<path d="M90.3223 113.595H89.6694V107.453H90.3223V113.595ZM87.041 107.914C87.3464 107.914 87.6187 108.002 87.8579 108.177C88.0972 108.353 88.284 108.603 88.4185 108.929C88.5529 109.255 88.6201 109.633 88.6201 110.064C88.6201 110.497 88.5529 110.876 88.4185 111.202C88.284 111.526 88.0972 111.775 87.8579 111.951C87.6187 112.126 87.3464 112.214 87.041 112.214C86.7357 112.214 86.4622 112.126 86.2207 111.951C85.9814 111.775 85.7946 111.526 85.6602 111.202C85.5257 110.876 85.4585 110.497 85.4585 110.064C85.4585 109.633 85.5257 109.255 85.6602 108.929C85.7946 108.603 85.9814 108.353 86.2207 108.177C86.4622 108.002 86.7357 107.914 87.041 107.914ZM87.041 108.495C86.8542 108.495 86.6878 108.559 86.542 108.687C86.3962 108.814 86.2834 108.996 86.2036 109.233C86.1239 109.47 86.0851 109.747 86.0874 110.064C86.0851 110.383 86.1239 110.661 86.2036 110.898C86.2834 111.133 86.3962 111.314 86.542 111.441C86.6878 111.567 86.8542 111.629 87.041 111.629C87.2279 111.629 87.3931 111.567 87.5366 111.441C87.6825 111.314 87.7952 111.133 87.875 110.898C87.9548 110.661 87.9946 110.383 87.9946 110.064C87.9946 109.747 87.9548 109.47 87.875 109.233C87.7952 108.996 87.6825 108.814 87.5366 108.687C87.3931 108.559 87.2279 108.495 87.041 108.495ZM96.1123 109.65H94.5811V109.117H96.1123V109.65ZM96.4028 111.947H95.7534V107.459H96.4028V111.947ZM96.5669 113.458H92.4243V112.921H96.5669V113.458ZM93.0771 113.205H92.4243V111.544H93.0771V113.205ZM93.3643 108.697C93.3643 109.073 93.2948 109.427 93.1558 109.76C93.0168 110.09 92.8174 110.381 92.5576 110.631C92.2979 110.88 91.9925 111.068 91.6416 111.195L91.3032 110.669C91.6108 110.564 91.8797 110.411 92.1099 110.211C92.3423 110.008 92.52 109.776 92.6431 109.514C92.7684 109.252 92.8311 108.979 92.8311 108.697V108.229H93.3643V108.697ZM93.4873 108.7C93.4873 108.958 93.5477 109.208 93.6685 109.452C93.7892 109.694 93.9601 109.91 94.1812 110.102C94.4022 110.293 94.6631 110.439 94.9639 110.539L94.6323 111.055C94.2905 110.937 93.9932 110.759 93.7402 110.522C93.4896 110.283 93.2959 110.007 93.1592 109.695C93.0247 109.383 92.9587 109.051 92.9609 108.7V108.229H93.4873V108.7ZM94.8066 108.458H91.498V107.928H94.8066V108.458ZM104.165 113.595H103.519V107.453H104.165V113.595ZM103.707 110.225H101.957V109.691H103.707V110.225ZM99.9473 109.493H101.53V107.935H102.166V112.074H99.2944V107.935H99.9473V109.493ZM101.53 111.547V110.009H99.9473V111.547H101.53ZM109.921 109.65H108.39V109.117H109.921V109.65ZM110.211 111.947H109.562V107.459H110.211V111.947ZM110.375 113.458H106.233V112.921H110.375V113.458ZM106.886 113.205H106.233V111.544H106.886V113.205ZM107.173 108.697C107.173 109.073 107.103 109.427 106.964 109.76C106.825 110.09 106.626 110.381 106.366 110.631C106.106 110.88 105.801 111.068 105.45 111.195L105.112 110.669C105.419 110.564 105.688 110.411 105.918 110.211C106.151 110.008 106.329 109.776 106.452 109.514C106.577 109.252 106.64 108.979 106.64 108.697V108.229H107.173V108.697ZM107.296 108.7C107.296 108.958 107.356 109.208 107.477 109.452C107.598 109.694 107.769 109.91 107.99 110.102C108.211 110.293 108.472 110.439 108.772 110.539L108.441 111.055C108.099 110.937 107.802 110.759 107.549 110.522C107.298 110.283 107.104 110.007 106.968 109.695C106.833 109.383 106.767 109.051 106.77 108.7V108.229H107.296V108.7ZM108.615 108.458H105.307V107.928H108.615V108.458ZM114.183 108.635H111.432V108.112H114.183V108.635ZM112.99 111.94H112.351V109.862H112.99V111.94ZM114.566 108.536C114.564 108.919 114.552 109.29 114.532 109.65C114.511 110.01 114.465 110.424 114.392 110.891L113.746 110.836C113.821 110.378 113.868 109.976 113.886 109.63C113.906 109.281 113.917 108.912 113.917 108.522V108.488V108.112H114.566V108.488V108.536ZM115.923 113.578H115.273V107.453H115.923V113.578ZM116.859 110.536H115.742V109.982H116.859V110.536ZM111.097 111.735C111.837 111.731 112.521 111.716 113.147 111.691C113.776 111.666 114.368 111.62 114.921 111.554L114.956 112.04C114.381 112.131 113.774 112.192 113.134 112.224C112.496 112.254 111.841 112.266 111.168 112.262L111.097 111.735ZM84.5049 120.847H79.46V120.317H84.5049V120.847ZM84.8022 124.894H79.1968V124.364H84.8022V124.894ZM82.3037 124.562H81.6646V123.428H82.3037V124.562ZM81.9858 121.213C82.3983 121.213 82.7583 121.258 83.0659 121.35C83.3735 121.441 83.6094 121.575 83.7734 121.753C83.9398 121.928 84.0229 122.137 84.0229 122.378C84.0229 122.625 83.9398 122.836 83.7734 123.014C83.6094 123.192 83.3735 123.329 83.0659 123.424C82.7606 123.52 82.4006 123.568 81.9858 123.568C81.5643 123.568 81.2008 123.52 80.8955 123.424C80.5902 123.329 80.3543 123.192 80.188 123.014C80.0239 122.836 79.943 122.625 79.9453 122.378C79.943 122.135 80.0239 121.925 80.188 121.75C80.3543 121.574 80.5902 121.441 80.8955 121.35C81.2031 121.258 81.5666 121.213 81.9858 121.213ZM81.9858 121.722C81.6942 121.724 81.4447 121.751 81.2373 121.801C81.0322 121.851 80.875 121.925 80.7656 122.023C80.6562 122.121 80.6027 122.239 80.605 122.378C80.6027 122.52 80.6562 122.639 80.7656 122.737C80.875 122.835 81.0322 122.912 81.2373 122.966C81.4447 123.019 81.6942 123.045 81.9858 123.045C82.2729 123.045 82.519 123.019 82.7241 122.966C82.9315 122.912 83.0887 122.835 83.1958 122.737C83.3052 122.639 83.3599 122.52 83.3599 122.378C83.3599 122.239 83.3052 122.121 83.1958 122.023C83.0887 121.925 82.9315 121.851 82.7241 121.801C82.519 121.751 82.2729 121.724 81.9858 121.722ZM82.3037 120.646H81.6646V119.542H82.3037V120.646ZM90.0693 124.245H89.4165V119.453H90.0693V124.245ZM90.9409 122.098H89.813V121.558H90.9409V122.098ZM90.2847 125.458H86.1011V124.921H90.2847V125.458ZM86.7573 125.085H86.1011V123.923H86.7573V125.085ZM87.4512 123.288H86.8086V122.43H87.4512V123.288ZM85.2056 123.055C85.9416 123.055 86.6286 123.042 87.2666 123.014C87.9069 122.985 88.5073 122.926 89.0679 122.84L89.1226 123.294C88.578 123.399 88.0117 123.47 87.4238 123.506C86.8382 123.541 86.1797 123.562 85.4482 123.571C85.4118 123.571 85.3833 123.571 85.3628 123.571C85.3423 123.571 85.3138 123.571 85.2773 123.571L85.2056 123.055ZM88.8936 120.502H85.3594V120.023H88.8936V120.502ZM87.123 120.734C87.4147 120.734 87.6699 120.772 87.8887 120.847C88.1097 120.92 88.2806 121.029 88.4014 121.175C88.5221 121.319 88.5837 121.489 88.5859 121.685C88.5837 121.874 88.5221 122.039 88.4014 122.18C88.2806 122.321 88.1097 122.431 87.8887 122.508C87.6699 122.583 87.4147 122.621 87.123 122.621C86.8314 122.621 86.5762 122.582 86.3574 122.505C86.1387 122.427 85.9689 122.319 85.8481 122.18C85.7274 122.041 85.667 121.876 85.667 121.685C85.667 121.489 85.7274 121.319 85.8481 121.175C85.9689 121.029 86.1387 120.92 86.3574 120.847C86.5762 120.772 86.8314 120.734 87.123 120.734ZM87.123 121.186C86.9499 121.186 86.8006 121.205 86.6753 121.244C86.55 121.28 86.4531 121.337 86.3848 121.415C86.3187 121.49 86.2856 121.58 86.2856 121.685C86.2856 121.783 86.3187 121.868 86.3848 121.941C86.4531 122.014 86.55 122.071 86.6753 122.112C86.8029 122.151 86.9521 122.17 87.123 122.17C87.2939 122.17 87.4421 122.151 87.5674 122.112C87.695 122.071 87.793 122.014 87.8613 121.941C87.9297 121.868 87.9639 121.783 87.9639 121.685C87.9639 121.58 87.9308 121.49 87.8647 121.415C87.7987 121.337 87.7018 121.28 87.5742 121.244C87.4466 121.205 87.2962 121.186 87.123 121.186ZM87.4512 120.242H86.8086V119.436H87.4512V120.242ZM94.9468 122.577H91.7749V122.047H94.9468V122.577ZM93.6548 123.852H93.0088V122.467H93.6548V123.852ZM94.9194 120.546H92.4141V122.231H91.7749V120.027H94.9194V120.546ZM96.3618 125.595H95.7158V119.453H96.3618V125.595ZM91.3271 123.752C92.0791 123.755 92.7878 123.746 93.4531 123.725C94.1185 123.702 94.744 123.658 95.3296 123.592L95.3774 124.074C94.9559 124.135 94.5184 124.182 94.0649 124.214C93.6115 124.243 93.1729 124.264 92.749 124.275C92.3275 124.287 91.882 124.292 91.4126 124.292L91.3271 123.752ZM101.896 120.57H97.9341V120.044H101.896V120.57ZM102.931 124.75H97.3462V124.217H102.931V124.75ZM100.111 124.494H99.4722V122.057H100.111V124.494ZM102.302 120.717C102.3 121.225 102.285 121.683 102.258 122.091C102.23 122.497 102.169 122.969 102.073 123.506L101.414 123.435C101.486 123.077 101.54 122.737 101.574 122.416C101.608 122.095 101.629 121.814 101.636 121.575C101.645 121.334 101.651 121.037 101.653 120.687V120.646V120.044H102.302V120.646V120.717ZM106.872 121.155C106.87 121.597 106.813 122.022 106.701 122.43C106.592 122.838 106.429 123.203 106.212 123.527C105.996 123.848 105.737 124.099 105.437 124.279L105.02 123.804C105.304 123.64 105.548 123.417 105.751 123.137C105.954 122.857 106.106 122.546 106.209 122.204C106.314 121.862 106.365 121.513 106.363 121.155V120.013H106.872V121.155ZM106.992 121.114C106.992 121.465 107.04 121.802 107.135 122.125C107.231 122.449 107.371 122.741 107.556 123C107.743 123.26 107.972 123.462 108.243 123.605L107.856 124.118C107.553 123.947 107.299 123.708 107.094 123.4C106.889 123.093 106.735 122.744 106.633 122.354C106.53 121.965 106.48 121.551 106.482 121.114V120.013H106.992V121.114ZM110.375 125.578H109.75V119.453H110.375V125.578ZM109.976 122.423H108.831V121.893H109.976V122.423ZM109.015 125.277H108.393V119.569H109.015V125.277ZM116.76 124.846H111.155V124.31H116.76V124.846ZM114.262 124.539H113.626V123.045H114.262V124.539ZM116.073 121.801H112.484V122.977H111.838V121.281H115.434V120.42H111.828V119.89H116.073V121.801ZM116.217 123.229H111.838V122.696H116.217V123.229ZM122.803 123.052H117.198V122.525H122.803V123.052ZM120.376 124.241H119.72V122.864H120.376V124.241ZM122.181 125.458H117.902V124.915H122.181V125.458ZM118.555 125.068H117.902V123.65H118.555V125.068ZM119.997 119.596C120.432 119.598 120.814 119.65 121.142 119.75C121.47 119.85 121.723 119.995 121.901 120.184C122.081 120.373 122.171 120.593 122.171 120.844C122.171 121.094 122.081 121.313 121.901 121.5C121.723 121.685 121.47 121.827 121.142 121.927C120.814 122.028 120.432 122.078 119.997 122.078C119.56 122.078 119.177 122.028 118.849 121.927C118.521 121.827 118.265 121.685 118.083 121.5C117.903 121.313 117.813 121.094 117.813 120.844C117.813 120.593 117.902 120.373 118.08 120.184C118.26 119.995 118.515 119.85 118.845 119.75C119.176 119.65 119.56 119.598 119.997 119.596ZM119.997 120.119C119.696 120.119 119.434 120.149 119.211 120.208C118.988 120.265 118.814 120.348 118.691 120.458C118.568 120.565 118.508 120.693 118.51 120.844C118.508 120.99 118.568 121.116 118.691 121.223C118.814 121.328 118.988 121.41 119.211 121.469C119.434 121.526 119.696 121.555 119.997 121.555C120.293 121.555 120.553 121.526 120.776 121.469C121.002 121.41 121.175 121.328 121.296 121.223C121.419 121.116 121.48 120.99 121.48 120.844C121.48 120.696 121.419 120.567 121.296 120.458C121.175 120.348 121.003 120.265 120.78 120.208C120.556 120.149 120.296 120.119 119.997 120.119ZM80.4102 137.578H79.7539V131.453H80.4102V137.578ZM78.5918 132.112C78.5895 132.737 78.4927 133.314 78.3013 133.845C78.1099 134.374 77.8022 134.861 77.3784 135.308C76.9546 135.755 76.4032 136.14 75.7241 136.463L75.3755 135.937C75.9634 135.659 76.4476 135.335 76.8281 134.966C77.2087 134.595 77.4889 134.182 77.6689 133.729C77.8512 133.273 77.9435 132.77 77.9458 132.218V132.112H78.5918ZM78.2261 132.632H75.6729V132.112H78.2261V132.632ZM86.3198 133.637H82.1123V133.107H86.3198V133.637ZM82.7583 133.346H82.1123V131.569H82.7583V133.346ZM86.959 134.819H81.3672V134.29H86.959V134.819ZM84.1562 135.318C84.5938 135.318 84.9709 135.362 85.2876 135.448C85.6043 135.533 85.847 135.659 86.0156 135.828C86.1842 135.994 86.2697 136.197 86.272 136.436C86.2697 136.671 86.1842 136.871 86.0156 137.038C85.847 137.206 85.6043 137.334 85.2876 137.42C84.9709 137.509 84.5938 137.554 84.1562 137.554C83.7142 137.554 83.3337 137.509 83.0146 137.42C82.6956 137.334 82.4518 137.206 82.2832 137.038C82.1146 136.871 82.0303 136.671 82.0303 136.436C82.0303 136.199 82.1146 135.996 82.2832 135.828C82.4518 135.659 82.6956 135.533 83.0146 135.448C83.3337 135.362 83.7142 135.318 84.1562 135.318ZM84.1562 135.824C83.8441 135.824 83.5786 135.848 83.3599 135.896C83.1411 135.942 82.9736 136.01 82.8574 136.101C82.7435 136.192 82.6877 136.304 82.6899 136.436C82.6877 136.566 82.7435 136.676 82.8574 136.768C82.9736 136.856 83.1411 136.927 83.3599 136.979C83.5786 137.03 83.8441 137.055 84.1562 137.055C84.4639 137.055 84.7271 137.03 84.9458 136.979C85.1646 136.927 85.3309 136.856 85.4448 136.768C85.561 136.676 85.6191 136.566 85.6191 136.436C85.6191 136.304 85.5622 136.192 85.4482 136.101C85.3343 136.01 85.168 135.942 84.9492 135.896C84.7305 135.848 84.4661 135.824 84.1562 135.824ZM90.2095 131.555C90.6675 131.555 91.0594 131.596 91.3853 131.678C91.7134 131.758 91.9629 131.876 92.1338 132.034C92.307 132.191 92.3936 132.381 92.3936 132.604C92.3936 132.835 92.307 133.029 92.1338 133.189C91.9629 133.348 91.7145 133.469 91.3887 133.551C91.0628 133.631 90.6698 133.672 90.2095 133.674C89.7469 133.672 89.3527 133.631 89.0269 133.551C88.701 133.469 88.4504 133.348 88.2749 133.189C88.1017 133.029 88.0151 132.835 88.0151 132.604C88.0151 132.381 88.1017 132.191 88.2749 132.034C88.4504 131.876 88.701 131.758 89.0269 131.678C89.355 131.596 89.7492 131.555 90.2095 131.555ZM90.2095 132.037C89.8836 132.037 89.6079 132.06 89.3823 132.105C89.1567 132.151 88.9847 132.216 88.8662 132.3C88.75 132.385 88.693 132.486 88.6953 132.604C88.693 132.732 88.75 132.839 88.8662 132.926C88.9847 133.012 89.1556 133.077 89.3789 133.121C89.6022 133.164 89.8791 133.186 90.2095 133.186C90.5376 133.186 90.8145 133.164 91.04 133.121C91.2679 133.077 91.4388 133.014 91.5527 132.929C91.6689 132.843 91.7271 132.734 91.7271 132.604C91.7271 132.486 91.6689 132.385 91.5527 132.3C91.4365 132.216 91.2645 132.151 91.0366 132.105C90.8088 132.06 90.533 132.037 90.2095 132.037ZM93.002 134.566H87.417V134.047H93.002V134.566ZM92.2944 136.474H88.7329V137.154H88.0938V136.005H91.6587V135.523H88.0835V135.038H92.2944V136.474ZM92.4722 137.52H88.0938V137.017H92.4722V137.52ZM98.2827 137.591H97.6436V135.349H98.2827V137.591ZM100.761 135.684H95.1758V135.147H100.761V135.684ZM98.2109 132.676C98.2109 133.02 98.1016 133.336 97.8828 133.623C97.6663 133.908 97.3701 134.146 96.9941 134.337C96.6204 134.529 96.2035 134.658 95.7432 134.724L95.5039 134.208C95.8958 134.157 96.2547 134.055 96.5806 133.9C96.9064 133.745 97.165 133.56 97.3564 133.346C97.5479 133.132 97.6436 132.909 97.6436 132.676V132.516H98.2109V132.676ZM98.2896 132.676C98.2896 132.906 98.3841 133.13 98.5732 133.346C98.7624 133.56 99.0199 133.745 99.3457 133.9C99.6715 134.055 100.029 134.157 100.419 134.208L100.183 134.724C99.7228 134.66 99.3058 134.53 98.9321 134.334C98.5584 134.138 98.2633 133.896 98.0469 133.609C97.8304 133.322 97.7222 133.011 97.7222 132.676V132.516H98.2896V132.676ZM100.231 132.717H95.709V132.198H100.231V132.717ZM98.2827 132.375H97.6436V131.456H98.2827V132.375ZM105.997 137.574H105.351V131.453H105.997V137.574ZM106.947 134.44H105.83V133.9H106.947V134.44ZM104.394 132.102C104.392 132.713 104.296 133.285 104.107 133.818C103.918 134.351 103.615 134.842 103.198 135.291C102.783 135.74 102.249 136.125 101.595 136.446L101.232 135.94C101.793 135.66 102.26 135.334 102.634 134.963C103.01 134.591 103.29 134.177 103.475 133.719C103.661 133.261 103.756 132.759 103.758 132.215V132.102H104.394ZM104.086 132.642H101.533V132.102H104.086V132.642ZM112.498 135.25H111.879V131.459H112.498V135.25ZM112.054 133.64H110.929V133.11H112.054V133.64ZM111.189 135.161H110.577V131.552H111.189V135.161ZM110.338 132.646H107.241V132.116H110.338V132.646ZM108.796 132.916C109.054 132.916 109.283 132.959 109.483 133.045C109.686 133.13 109.843 133.253 109.955 133.415C110.067 133.574 110.123 133.759 110.123 133.968C110.123 134.176 110.067 134.359 109.955 134.519C109.843 134.678 109.686 134.802 109.483 134.891C109.281 134.98 109.052 135.024 108.796 135.024C108.543 135.024 108.317 134.98 108.116 134.891C107.918 134.802 107.763 134.678 107.651 134.519C107.54 134.359 107.484 134.176 107.484 133.968C107.484 133.759 107.54 133.574 107.651 133.415C107.763 133.253 107.918 133.13 108.116 133.045C108.314 132.959 108.541 132.916 108.796 132.916ZM108.796 133.391C108.651 133.391 108.522 133.413 108.41 133.459C108.301 133.505 108.215 133.572 108.154 133.661C108.092 133.747 108.062 133.85 108.062 133.968C108.062 134.084 108.092 134.186 108.154 134.272C108.218 134.357 108.304 134.424 108.414 134.474C108.523 134.522 108.651 134.546 108.796 134.546C108.942 134.546 109.071 134.522 109.183 134.474C109.294 134.424 109.381 134.357 109.442 134.272C109.504 134.186 109.535 134.084 109.535 133.968C109.535 133.85 109.504 133.747 109.442 133.661C109.381 133.572 109.294 133.505 109.183 133.459C109.071 133.413 108.942 133.391 108.796 133.391ZM109.118 132.454H108.472V131.483H109.118V132.454ZM109.371 135.612C109.368 135.881 109.312 136.141 109.203 136.392C109.094 136.64 108.933 136.862 108.721 137.058C108.509 137.254 108.256 137.404 107.962 137.509L107.651 137.017C107.902 136.937 108.118 136.822 108.301 136.672C108.483 136.519 108.622 136.352 108.718 136.169C108.816 135.987 108.866 135.801 108.868 135.612V135.428H109.371V135.612ZM109.507 135.612C109.505 135.813 109.544 136.007 109.624 136.193C109.703 136.38 109.824 136.551 109.986 136.706C110.148 136.861 110.347 136.983 110.584 137.072L110.314 137.561C110.022 137.453 109.78 137.299 109.586 137.096C109.395 136.895 109.252 136.667 109.159 136.412C109.065 136.157 109.019 135.89 109.019 135.612V135.428H109.507V135.612ZM111.606 135.612C111.604 135.863 111.556 136.117 111.462 136.375C111.369 136.63 111.224 136.863 111.028 137.075C110.835 137.289 110.597 137.451 110.314 137.561L110.041 137.072C110.273 136.974 110.47 136.844 110.632 136.682C110.796 136.518 110.919 136.343 111.001 136.156C111.083 135.969 111.125 135.788 111.127 135.612V135.428H111.606V135.612ZM111.767 135.612C111.764 135.813 111.81 136.007 111.903 136.193C111.999 136.378 112.138 136.543 112.32 136.689C112.505 136.835 112.726 136.944 112.983 137.017L112.679 137.509C112.378 137.409 112.122 137.263 111.91 137.072C111.701 136.88 111.541 136.66 111.432 136.412C111.325 136.161 111.271 135.895 111.271 135.612V135.428H111.767V135.612ZM116.118 131.555C116.576 131.555 116.968 131.596 117.293 131.678C117.622 131.758 117.871 131.876 118.042 132.034C118.215 132.191 118.302 132.381 118.302 132.604C118.302 132.835 118.215 133.029 118.042 133.189C117.871 133.348 117.623 133.469 117.297 133.551C116.971 133.631 116.578 133.672 116.118 133.674C115.655 133.672 115.261 133.631 114.935 133.551C114.609 133.469 114.359 133.348 114.183 133.189C114.01 133.029 113.923 132.835 113.923 132.604C113.923 132.381 114.01 132.191 114.183 132.034C114.359 131.876 114.609 131.758 114.935 131.678C115.263 131.596 115.657 131.555 116.118 131.555ZM116.118 132.037C115.792 132.037 115.516 132.06 115.291 132.105C115.065 132.151 114.893 132.216 114.774 132.3C114.658 132.385 114.601 132.486 114.604 132.604C114.601 132.732 114.658 132.839 114.774 132.926C114.893 133.012 115.064 133.077 115.287 133.121C115.51 133.164 115.787 133.186 116.118 133.186C116.446 133.186 116.723 133.164 116.948 133.121C117.176 133.077 117.347 133.014 117.461 132.929C117.577 132.843 117.635 132.734 117.635 132.604C117.635 132.486 117.577 132.385 117.461 132.3C117.345 132.216 117.173 132.151 116.945 132.105C116.717 132.06 116.441 132.037 116.118 132.037ZM118.91 134.566H113.325V134.047H118.91V134.566ZM118.203 136.474H114.641V137.154H114.002V136.005H117.567V135.523H113.992V135.038H118.203V136.474ZM118.38 137.52H114.002V137.017H118.38V137.52ZM125.158 137.284H124.56V131.579H125.158V137.284ZM126.033 134.45H124.909V133.917H126.033V134.45ZM121.494 135.479C121.67 135.479 121.846 135.472 122.024 135.458C122.202 135.443 122.391 135.411 122.591 135.363L122.646 135.906C122.425 135.954 122.222 135.986 122.038 136.002C121.853 136.016 121.672 136.021 121.494 136.019H121.241V135.479H121.494ZM122.567 132.745H121.839V135.776H121.241V132.218H122.567V132.745ZM123.08 135.479C123.308 135.479 123.514 135.471 123.699 135.455C123.883 135.439 124.08 135.403 124.29 135.346L124.338 135.893C124.117 135.947 123.91 135.983 123.716 135.999C123.522 136.014 123.31 136.021 123.08 136.019H122.824V135.479H123.08ZM124.177 132.745H123.408V135.766H122.824V132.218H124.177V132.745ZM126.423 137.578H125.808V131.453H126.423V137.578Z" fill="#4B4B4B"/>
<rect x="149.5" y="84.5" width="29" height="15" rx="3.5" fill="#F5F5F5"/>
<rect x="149.5" y="84.5" width="29" height="15" rx="3.5" stroke="#EEEEEE"/>
<path d="M153.484 90.7578H154.457V91.457H154.52C154.53 91.4336 154.54 91.4141 154.551 91.3984C154.621 91.2708 154.702 91.1576 154.793 91.0586C154.887 90.9596 155.012 90.8763 155.168 90.8086C155.324 90.7383 155.512 90.7031 155.73 90.7031C156.064 90.7031 156.363 90.7878 156.629 90.957C156.895 91.1237 157.103 91.3724 157.254 91.7031C157.405 92.0339 157.48 92.4271 157.48 92.8828C157.48 93.3385 157.405 93.7318 157.254 94.0625C157.105 94.3906 156.898 94.6419 156.633 94.8164C156.37 94.9883 156.07 95.0742 155.734 95.0742C155.516 95.0742 155.326 95.0391 155.164 94.9688C155.005 94.8958 154.878 94.8099 154.781 94.7109C154.688 94.6094 154.605 94.4935 154.535 94.3633L154.52 94.332H154.477V96.5938H153.484V90.7578ZM154.453 92.875C154.453 93.151 154.493 93.3932 154.574 93.6016C154.655 93.8073 154.77 93.9688 154.918 94.0859C155.069 94.2005 155.25 94.2578 155.461 94.2578C155.677 94.2578 155.861 94.1992 156.012 94.082C156.165 93.9622 156.28 93.7995 156.355 93.5938C156.434 93.3854 156.473 93.1458 156.473 92.875C156.473 92.6094 156.434 92.3737 156.355 92.168C156.28 91.9622 156.165 91.8034 156.012 91.6914C155.861 91.5768 155.677 91.5195 155.461 91.5195C155.247 91.5195 155.065 91.5742 154.914 91.6836C154.763 91.793 154.648 91.9505 154.57 92.1562C154.492 92.3594 154.453 92.599 154.453 92.875ZM160.797 93.1211C160.698 93.1289 160.621 93.1354 160.566 93.1406C160.514 93.1432 160.436 93.1484 160.332 93.1562C160.139 93.1641 159.964 93.1745 159.805 93.1875C159.56 93.2083 159.37 93.2695 159.234 93.3711C159.099 93.4727 159.031 93.6146 159.031 93.7969C159.031 93.9167 159.062 94.0182 159.125 94.1016C159.188 94.1849 159.272 94.2487 159.379 94.293C159.486 94.3346 159.609 94.3542 159.75 94.3516C159.945 94.3516 160.118 94.3125 160.27 94.2344C160.421 94.1562 160.536 94.0508 160.617 93.918C160.701 93.7826 160.742 93.6354 160.742 93.4766L160.734 92.1211C160.734 91.9831 160.706 91.8646 160.648 91.7656C160.591 91.6641 160.504 91.5885 160.387 91.5391C160.272 91.4896 160.132 91.4648 159.965 91.4648C159.749 91.4648 159.573 91.5104 159.438 91.6016C159.302 91.6901 159.215 91.8112 159.176 91.9648H158.207C158.233 91.7227 158.322 91.5065 158.473 91.3164C158.624 91.1237 158.828 90.974 159.086 90.8672C159.346 90.7578 159.648 90.7031 159.992 90.7031C160.294 90.7031 160.576 90.7487 160.836 90.8398C161.096 90.931 161.309 91.0859 161.473 91.3047C161.639 91.5234 161.724 91.8086 161.727 92.1602V95H160.773V94.4141H160.742C160.641 94.612 160.484 94.7734 160.273 94.8984C160.065 95.0234 159.805 95.0859 159.492 95.0859C159.219 95.0859 158.975 95.0378 158.762 94.9414C158.548 94.8424 158.379 94.6966 158.254 94.5039C158.132 94.3112 158.07 94.0794 158.07 93.8086C158.07 93.3711 158.217 93.0547 158.512 92.8594C158.806 92.6641 159.186 92.5508 159.652 92.5195C159.777 92.5117 159.915 92.5039 160.066 92.4961C160.22 92.4857 160.368 92.4779 160.512 92.4727C160.603 92.4701 160.695 92.4674 160.789 92.4648L160.797 93.1211ZM164.777 91.5234H162.348V90.7578H164.777V91.5234ZM163.945 89.7422V93.7266C163.945 93.8542 163.965 93.9544 164.004 94.0273C164.043 94.0977 164.095 94.1471 164.16 94.1758C164.228 94.2044 164.309 94.2188 164.402 94.2188C164.441 94.2214 164.488 94.2214 164.543 94.2188C164.6 94.2161 164.656 94.2135 164.711 94.2109L164.836 94.1992V95.0156C164.669 95.0443 164.482 95.0586 164.273 95.0586C164.018 95.0586 163.79 95.0156 163.59 94.9297C163.389 94.8411 163.232 94.7109 163.117 94.5391C163.005 94.3646 162.949 94.1471 162.949 93.8867V89.7422H163.945ZM167.355 95.082C166.939 95.082 166.577 94.9909 166.27 94.8086C165.962 94.6237 165.727 94.3659 165.562 94.0352C165.401 93.7044 165.32 93.3242 165.32 92.8945C165.32 92.4648 165.404 92.0846 165.57 91.7539C165.737 91.4206 165.973 91.1628 166.277 90.9805C166.585 90.7956 166.941 90.7031 167.348 90.7031C167.686 90.7031 167.99 90.7656 168.258 90.8906C168.529 91.013 168.742 91.1901 168.898 91.4219C169.057 91.6536 169.147 91.9206 169.168 92.2227H168.219C168.193 92.082 168.142 91.9583 168.066 91.8516C167.991 91.7422 167.893 91.6562 167.773 91.5938C167.656 91.5312 167.52 91.5 167.363 91.5C167.158 91.5 166.977 91.556 166.82 91.668C166.664 91.7773 166.542 91.9362 166.453 92.1445C166.367 92.3503 166.324 92.5938 166.324 92.875C166.324 93.1615 166.367 93.4102 166.453 93.6211C166.539 93.8294 166.66 93.9896 166.816 94.1016C166.973 94.2135 167.155 94.2695 167.363 94.2695C167.509 94.2695 167.642 94.2409 167.762 94.1836C167.882 94.1263 167.98 94.0456 168.059 93.9414C168.137 93.8346 168.19 93.7057 168.219 93.5547H169.168C169.145 93.8542 169.056 94.1198 168.902 94.3516C168.749 94.5833 168.539 94.763 168.273 94.8906C168.008 95.0182 167.702 95.082 167.355 95.082ZM170.914 95H169.922V89.3438H170.895V91.4766H170.941C171.043 91.2318 171.199 91.0417 171.41 90.9062C171.621 90.7708 171.885 90.7031 172.203 90.7031C172.5 90.7031 172.758 90.7656 172.977 90.8906C173.195 91.013 173.365 91.194 173.484 91.4336C173.604 91.6732 173.664 91.9609 173.664 92.2969V95H172.672V92.4492C172.672 92.2591 172.638 92.0964 172.57 91.9609C172.505 91.8255 172.409 91.7227 172.281 91.6523C172.156 91.5794 172.007 91.543 171.832 91.543C171.652 91.543 171.493 91.5807 171.355 91.6562C171.22 91.7318 171.112 91.8438 171.031 91.9922C170.953 92.138 170.914 92.3112 170.914 92.5117V95Z" fill="#282828"/>
<path d="M152.822 113.595H152.169V107.453H152.822V113.595ZM149.541 107.914C149.846 107.914 150.119 108.002 150.358 108.177C150.597 108.353 150.784 108.603 150.918 108.929C151.053 109.255 151.12 109.633 151.12 110.064C151.12 110.497 151.053 110.876 150.918 111.202C150.784 111.526 150.597 111.775 150.358 111.951C150.119 112.126 149.846 112.214 149.541 112.214C149.236 112.214 148.962 112.126 148.721 111.951C148.481 111.775 148.295 111.526 148.16 111.202C148.026 110.876 147.958 110.497 147.958 110.064C147.958 109.633 148.026 109.255 148.16 108.929C148.295 108.603 148.481 108.353 148.721 108.177C148.962 108.002 149.236 107.914 149.541 107.914ZM149.541 108.495C149.354 108.495 149.188 108.559 149.042 108.687C148.896 108.814 148.783 108.996 148.704 109.233C148.624 109.47 148.585 109.747 148.587 110.064C148.585 110.383 148.624 110.661 148.704 110.898C148.783 111.133 148.896 111.314 149.042 111.441C149.188 111.567 149.354 111.629 149.541 111.629C149.728 111.629 149.893 111.567 150.037 111.441C150.182 111.314 150.295 111.133 150.375 110.898C150.455 110.661 150.495 110.383 150.495 110.064C150.495 109.747 150.455 109.47 150.375 109.233C150.295 108.996 150.182 108.814 150.037 108.687C149.893 108.559 149.728 108.495 149.541 108.495ZM158.612 109.65H157.081V109.117H158.612V109.65ZM158.903 111.947H158.253V107.459H158.903V111.947ZM159.067 113.458H154.924V112.921H159.067V113.458ZM155.577 113.205H154.924V111.544H155.577V113.205ZM155.864 108.697C155.864 109.073 155.795 109.427 155.656 109.76C155.517 110.09 155.317 110.381 155.058 110.631C154.798 110.88 154.493 111.068 154.142 111.195L153.803 110.669C154.111 110.564 154.38 110.411 154.61 110.211C154.842 110.008 155.02 109.776 155.143 109.514C155.268 109.252 155.331 108.979 155.331 108.697V108.229H155.864V108.697ZM155.987 108.7C155.987 108.958 156.048 109.208 156.168 109.452C156.289 109.694 156.46 109.91 156.681 110.102C156.902 110.293 157.163 110.439 157.464 110.539L157.132 111.055C156.791 110.937 156.493 110.759 156.24 110.522C155.99 110.283 155.796 110.007 155.659 109.695C155.525 109.383 155.459 109.051 155.461 108.7V108.229H155.987V108.7ZM157.307 108.458H153.998V107.928H157.307V108.458ZM166.665 113.595H166.019V107.453H166.665V113.595ZM166.207 110.225H164.457V109.691H166.207V110.225ZM162.447 109.493H164.03V107.935H164.666V112.074H161.794V107.935H162.447V109.493ZM164.03 111.547V110.009H162.447V111.547H164.03ZM172.421 109.65H170.89V109.117H172.421V109.65ZM172.711 111.947H172.062V107.459H172.711V111.947ZM172.875 113.458H168.733V112.921H172.875V113.458ZM169.386 113.205H168.733V111.544H169.386V113.205ZM169.673 108.697C169.673 109.073 169.603 109.427 169.464 109.76C169.325 110.09 169.126 110.381 168.866 110.631C168.606 110.88 168.301 111.068 167.95 111.195L167.612 110.669C167.919 110.564 168.188 110.411 168.418 110.211C168.651 110.008 168.829 109.776 168.952 109.514C169.077 109.252 169.14 108.979 169.14 108.697V108.229H169.673V108.697ZM169.796 108.7C169.796 108.958 169.856 109.208 169.977 109.452C170.098 109.694 170.269 109.91 170.49 110.102C170.711 110.293 170.972 110.439 171.272 110.539L170.941 111.055C170.599 110.937 170.302 110.759 170.049 110.522C169.798 110.283 169.604 110.007 169.468 109.695C169.333 109.383 169.267 109.051 169.27 108.7V108.229H169.796V108.7ZM171.115 108.458H167.807V107.928H171.115V108.458ZM176.683 108.635H173.932V108.112H176.683V108.635ZM175.49 111.94H174.851V109.862H175.49V111.94ZM177.066 108.536C177.064 108.919 177.052 109.29 177.032 109.65C177.011 110.01 176.965 110.424 176.892 110.891L176.246 110.836C176.321 110.378 176.368 109.976 176.386 109.63C176.406 109.281 176.417 108.912 176.417 108.522V108.488V108.112H177.066V108.488V108.536ZM178.423 113.578H177.773V107.453H178.423V113.578ZM179.359 110.536H178.242V109.982H179.359V110.536ZM173.597 111.735C174.337 111.731 175.021 111.716 175.647 111.691C176.276 111.666 176.868 111.62 177.421 111.554L177.456 112.04C176.881 112.131 176.274 112.192 175.634 112.224C174.996 112.254 174.341 112.266 173.668 112.262L173.597 111.735ZM147.005 120.847H141.96V120.317H147.005V120.847ZM147.302 124.894H141.697V124.364H147.302V124.894ZM144.804 124.562H144.165V123.428H144.804V124.562ZM144.486 121.213C144.898 121.213 145.258 121.258 145.566 121.35C145.874 121.441 146.109 121.575 146.273 121.753C146.44 121.928 146.523 122.137 146.523 122.378C146.523 122.625 146.44 122.836 146.273 123.014C146.109 123.192 145.874 123.329 145.566 123.424C145.261 123.52 144.901 123.568 144.486 123.568C144.064 123.568 143.701 123.52 143.396 123.424C143.09 123.329 142.854 123.192 142.688 123.014C142.524 122.836 142.443 122.625 142.445 122.378C142.443 122.135 142.524 121.925 142.688 121.75C142.854 121.574 143.09 121.441 143.396 121.35C143.703 121.258 144.067 121.213 144.486 121.213ZM144.486 121.722C144.194 121.724 143.945 121.751 143.737 121.801C143.532 121.851 143.375 121.925 143.266 122.023C143.156 122.121 143.103 122.239 143.105 122.378C143.103 122.52 143.156 122.639 143.266 122.737C143.375 122.835 143.532 122.912 143.737 122.966C143.945 123.019 144.194 123.045 144.486 123.045C144.773 123.045 145.019 123.019 145.224 122.966C145.431 122.912 145.589 122.835 145.696 122.737C145.805 122.639 145.86 122.52 145.86 122.378C145.86 122.239 145.805 122.121 145.696 122.023C145.589 121.925 145.431 121.851 145.224 121.801C145.019 121.751 144.773 121.724 144.486 121.722ZM144.804 120.646H144.165V119.542H144.804V120.646ZM152.569 124.245H151.917V119.453H152.569V124.245ZM153.441 122.098H152.313V121.558H153.441V122.098ZM152.785 125.458H148.601V124.921H152.785V125.458ZM149.257 125.085H148.601V123.923H149.257V125.085ZM149.951 123.288H149.309V122.43H149.951V123.288ZM147.706 123.055C148.442 123.055 149.129 123.042 149.767 123.014C150.407 122.985 151.007 122.926 151.568 122.84L151.623 123.294C151.078 123.399 150.512 123.47 149.924 123.506C149.338 123.541 148.68 123.562 147.948 123.571C147.912 123.571 147.883 123.571 147.863 123.571C147.842 123.571 147.814 123.571 147.777 123.571L147.706 123.055ZM151.394 120.502H147.859V120.023H151.394V120.502ZM149.623 120.734C149.915 120.734 150.17 120.772 150.389 120.847C150.61 120.92 150.781 121.029 150.901 121.175C151.022 121.319 151.084 121.489 151.086 121.685C151.084 121.874 151.022 122.039 150.901 122.18C150.781 122.321 150.61 122.431 150.389 122.508C150.17 122.583 149.915 122.621 149.623 122.621C149.331 122.621 149.076 122.582 148.857 122.505C148.639 122.427 148.469 122.319 148.348 122.18C148.227 122.041 148.167 121.876 148.167 121.685C148.167 121.489 148.227 121.319 148.348 121.175C148.469 121.029 148.639 120.92 148.857 120.847C149.076 120.772 149.331 120.734 149.623 120.734ZM149.623 121.186C149.45 121.186 149.301 121.205 149.175 121.244C149.05 121.28 148.953 121.337 148.885 121.415C148.819 121.49 148.786 121.58 148.786 121.685C148.786 121.783 148.819 121.868 148.885 121.941C148.953 122.014 149.05 122.071 149.175 122.112C149.303 122.151 149.452 122.17 149.623 122.17C149.794 122.17 149.942 122.151 150.067 122.112C150.195 122.071 150.293 122.014 150.361 121.941C150.43 121.868 150.464 121.783 150.464 121.685C150.464 121.58 150.431 121.49 150.365 121.415C150.299 121.337 150.202 121.28 150.074 121.244C149.947 121.205 149.796 121.186 149.623 121.186ZM149.951 120.242H149.309V119.436H149.951V120.242ZM157.447 122.577H154.275V122.047H157.447V122.577ZM156.155 123.852H155.509V122.467H156.155V123.852ZM157.419 120.546H154.914V122.231H154.275V120.027H157.419V120.546ZM158.862 125.595H158.216V119.453H158.862V125.595ZM153.827 123.752C154.579 123.755 155.288 123.746 155.953 123.725C156.618 123.702 157.244 123.658 157.83 123.592L157.877 124.074C157.456 124.135 157.018 124.182 156.565 124.214C156.111 124.243 155.673 124.264 155.249 124.275C154.827 124.287 154.382 124.292 153.913 124.292L153.827 123.752ZM164.396 120.57H160.434V120.044H164.396V120.57ZM165.431 124.75H159.846V124.217H165.431V124.75ZM162.611 124.494H161.972V122.057H162.611V124.494ZM164.802 120.717C164.8 121.225 164.785 121.683 164.758 122.091C164.73 122.497 164.669 122.969 164.573 123.506L163.914 123.435C163.986 123.077 164.04 122.737 164.074 122.416C164.108 122.095 164.129 121.814 164.136 121.575C164.145 121.334 164.151 121.037 164.153 120.687V120.646V120.044H164.802V120.646V120.717ZM172.715 125.595H172.069V119.453H172.715V125.595ZM172.257 122.225H170.507V121.691H172.257V122.225ZM168.497 121.493H170.08V119.935H170.715V124.074H167.844V119.935H168.497V121.493ZM170.08 123.547V122.009H168.497V123.547H170.08ZM178.211 120.608H174.253V120.078H178.211V120.608ZM179.24 124.709H173.655V124.176H179.24V124.709ZM178.508 120.772C178.508 121.116 178.505 121.419 178.498 121.681C178.491 121.943 178.471 122.245 178.437 122.587C178.402 122.926 178.351 123.297 178.283 123.698L177.623 123.636C177.698 123.263 177.753 122.908 177.787 122.573C177.821 122.238 177.843 121.939 177.852 121.674C177.861 121.41 177.866 121.107 177.866 120.765V120.731V120.078H178.508V120.731V120.772ZM185.303 122.765H179.698V122.266H185.303V122.765ZM184.613 124.542H181.017V125.205H180.368V124.111H183.97V123.66H180.361V123.188H184.613V124.542ZM184.804 125.506H180.368V125.048H184.804V125.506ZM184.596 120.939H181.062V121.558H180.419V120.509H183.946V120.071H180.402V119.613H184.596V120.939ZM184.705 121.862H180.419V121.408H184.705V121.862ZM150.775 131.993C150.775 132.371 150.662 132.72 150.437 133.039C150.213 133.358 149.911 133.623 149.531 133.835C149.15 134.047 148.731 134.188 148.273 134.259L148.013 133.736C148.412 133.681 148.779 133.568 149.114 133.397C149.451 133.224 149.716 133.016 149.91 132.772C150.106 132.526 150.204 132.266 150.204 131.993V131.661H150.775V131.993ZM150.877 131.993C150.877 132.262 150.977 132.52 151.175 132.769C151.375 133.015 151.643 133.224 151.978 133.397C152.315 133.568 152.682 133.681 153.079 133.736L152.822 134.259C152.362 134.188 151.942 134.047 151.561 133.835C151.181 133.621 150.877 133.354 150.652 133.035C150.426 132.716 150.313 132.369 150.313 131.993V131.661H150.877V131.993ZM150.847 137.578H150.208V135.271H150.847V137.578ZM153.332 135.404H147.747V134.864H153.332V135.404ZM158.438 133.548H157.115V133.015H158.438V133.548ZM158.903 135.1H158.253V131.453H158.903V135.1ZM156.849 135.274C157.277 135.274 157.646 135.319 157.956 135.411C158.266 135.502 158.504 135.634 158.67 135.807C158.839 135.978 158.923 136.184 158.923 136.426C158.923 136.667 158.839 136.874 158.67 137.044C158.504 137.218 158.266 137.35 157.956 137.441C157.646 137.532 157.277 137.579 156.849 137.581C156.423 137.579 156.055 137.532 155.745 137.441C155.435 137.35 155.197 137.218 155.03 137.044C154.864 136.874 154.781 136.667 154.781 136.426C154.781 136.184 154.864 135.978 155.03 135.807C155.197 135.634 155.435 135.502 155.745 135.411C156.055 135.319 156.423 135.274 156.849 135.274ZM156.849 135.773C156.55 135.773 156.294 135.799 156.08 135.852C155.868 135.902 155.705 135.976 155.591 136.074C155.479 136.172 155.423 136.289 155.423 136.426C155.423 136.562 155.479 136.679 155.591 136.774C155.705 136.87 155.868 136.944 156.08 136.997C156.294 137.047 156.55 137.072 156.849 137.072C157.147 137.072 157.403 137.047 157.618 136.997C157.832 136.944 157.995 136.87 158.106 136.774C158.22 136.679 158.277 136.562 158.277 136.426C158.277 136.289 158.22 136.172 158.106 136.074C157.995 135.976 157.832 135.902 157.618 135.852C157.403 135.799 157.147 135.773 156.849 135.773ZM155.864 132.546C155.864 132.922 155.795 133.278 155.656 133.613C155.517 133.948 155.317 134.242 155.058 134.495C154.798 134.745 154.493 134.936 154.142 135.065L153.803 134.546C154.111 134.439 154.38 134.282 154.61 134.074C154.842 133.865 155.02 133.628 155.143 133.363C155.268 133.099 155.331 132.827 155.331 132.546V132.071H155.864V132.546ZM155.987 132.54C155.987 132.799 156.047 133.05 156.165 133.292C156.284 133.533 156.454 133.75 156.678 133.941C156.901 134.132 157.163 134.279 157.464 134.382L157.132 134.898C156.791 134.777 156.493 134.598 156.24 134.361C155.99 134.124 155.796 133.849 155.659 133.534C155.525 133.22 155.459 132.888 155.461 132.54V132.071H155.987V132.54ZM157.307 132.41H153.998V131.873H157.307V132.41ZM165.069 135.25H164.45V131.459H165.069V135.25ZM164.625 133.64H163.5V133.11H164.625V133.64ZM163.76 135.161H163.148V131.552H163.76V135.161ZM162.909 132.646H159.812V132.116H162.909V132.646ZM161.367 132.916C161.625 132.916 161.854 132.959 162.054 133.045C162.257 133.13 162.414 133.253 162.526 133.415C162.638 133.574 162.693 133.759 162.693 133.968C162.693 134.176 162.638 134.359 162.526 134.519C162.414 134.678 162.257 134.802 162.054 134.891C161.851 134.98 161.622 135.024 161.367 135.024C161.114 135.024 160.888 134.98 160.687 134.891C160.489 134.802 160.334 134.678 160.222 134.519C160.111 134.359 160.055 134.176 160.055 133.968C160.055 133.759 160.111 133.574 160.222 133.415C160.334 133.253 160.489 133.13 160.687 133.045C160.885 132.959 161.112 132.916 161.367 132.916ZM161.367 133.391C161.221 133.391 161.093 133.413 160.981 133.459C160.872 133.505 160.786 133.572 160.725 133.661C160.663 133.747 160.632 133.85 160.632 133.968C160.632 134.084 160.663 134.186 160.725 134.272C160.788 134.357 160.875 134.424 160.984 134.474C161.094 134.522 161.221 134.546 161.367 134.546C161.513 134.546 161.642 134.522 161.753 134.474C161.865 134.424 161.952 134.357 162.013 134.272C162.075 134.186 162.105 134.084 162.105 133.968C162.105 133.85 162.075 133.747 162.013 133.661C161.952 133.572 161.865 133.505 161.753 133.459C161.642 133.413 161.513 133.391 161.367 133.391ZM161.688 132.454H161.042V131.483H161.688V132.454ZM161.941 135.612C161.939 135.881 161.883 136.141 161.774 136.392C161.665 136.64 161.504 136.862 161.292 137.058C161.08 137.254 160.827 137.404 160.533 137.509L160.222 137.017C160.473 136.937 160.689 136.822 160.872 136.672C161.054 136.519 161.193 136.352 161.289 136.169C161.387 135.987 161.437 135.801 161.439 135.612V135.428H161.941V135.612ZM162.078 135.612C162.076 135.813 162.115 136.007 162.194 136.193C162.274 136.38 162.395 136.551 162.557 136.706C162.718 136.861 162.918 136.983 163.155 137.072L162.885 137.561C162.593 137.453 162.35 137.299 162.157 137.096C161.965 136.895 161.823 136.667 161.729 136.412C161.636 136.157 161.589 135.89 161.589 135.612V135.428H162.078V135.612ZM164.177 135.612C164.174 135.863 164.127 136.117 164.033 136.375C163.94 136.63 163.795 136.863 163.599 137.075C163.405 137.289 163.167 137.451 162.885 137.561L162.611 137.072C162.844 136.974 163.041 136.844 163.203 136.682C163.367 136.518 163.49 136.343 163.572 136.156C163.654 135.969 163.696 135.788 163.698 135.612V135.428H164.177V135.612ZM164.337 135.612C164.335 135.813 164.381 136.007 164.474 136.193C164.57 136.378 164.709 136.543 164.891 136.689C165.076 136.835 165.297 136.944 165.554 137.017L165.25 137.509C164.949 137.409 164.693 137.263 164.481 137.072C164.271 136.88 164.112 136.66 164.002 136.412C163.895 136.161 163.842 135.895 163.842 135.612V135.428H164.337V135.612ZM168.688 131.555C169.146 131.555 169.538 131.596 169.864 131.678C170.192 131.758 170.442 131.876 170.613 132.034C170.786 132.191 170.873 132.381 170.873 132.604C170.873 132.835 170.786 133.029 170.613 133.189C170.442 133.348 170.194 133.469 169.868 133.551C169.542 133.631 169.149 133.672 168.688 133.674C168.226 133.672 167.832 133.631 167.506 133.551C167.18 133.469 166.929 133.348 166.754 133.189C166.581 133.029 166.494 132.835 166.494 132.604C166.494 132.381 166.581 132.191 166.754 132.034C166.929 131.876 167.18 131.758 167.506 131.678C167.834 131.596 168.228 131.555 168.688 131.555ZM168.688 132.037C168.363 132.037 168.087 132.06 167.861 132.105C167.636 132.151 167.464 132.216 167.345 132.3C167.229 132.385 167.172 132.486 167.174 132.604C167.172 132.732 167.229 132.839 167.345 132.926C167.464 133.012 167.635 133.077 167.858 133.121C168.081 133.164 168.358 133.186 168.688 133.186C169.017 133.186 169.293 133.164 169.519 133.121C169.747 133.077 169.918 133.014 170.032 132.929C170.148 132.843 170.206 132.734 170.206 132.604C170.206 132.486 170.148 132.385 170.032 132.3C169.916 132.216 169.743 132.151 169.516 132.105C169.288 132.06 169.012 132.037 168.688 132.037ZM171.481 134.566H165.896V134.047H171.481V134.566ZM170.773 136.474H167.212V137.154H166.573V136.005H170.138V135.523H166.562V135.038H170.773V136.474ZM170.951 137.52H166.573V137.017H170.951V137.52ZM177.729 137.284H177.131V131.579H177.729V137.284ZM178.604 134.45H177.479V133.917H178.604V134.45ZM174.065 135.479C174.24 135.479 174.417 135.472 174.595 135.458C174.772 135.443 174.962 135.411 175.162 135.363L175.217 135.906C174.996 135.954 174.793 135.986 174.608 136.002C174.424 136.016 174.243 136.021 174.065 136.019H173.812V135.479H174.065ZM175.138 132.745H174.41V135.776H173.812V132.218H175.138V132.745ZM175.651 135.479C175.879 135.479 176.085 135.471 176.27 135.455C176.454 135.439 176.651 135.403 176.861 135.346L176.909 135.893C176.688 135.947 176.48 135.983 176.287 135.999C176.093 136.014 175.881 136.021 175.651 136.019H175.395V135.479H175.651ZM176.748 132.745H175.979V135.766H175.395V132.218H176.748V132.745ZM178.994 137.578H178.378V131.453H178.994V137.578Z" fill="#4B4B4B"/>
</svg>
