<svg width="329" height="132" viewBox="0 0 329 132" fill="none" xmlns="http://www.w3.org/2000/svg">
<line x1="228.5" y1="20" x2="228.5" y2="112" stroke="#D5D5D5"/>
<rect x="20.5" y="40.5" width="69" height="35" rx="17.5" fill="#F0F0F0"/>
<rect x="20.5" y="40.5" width="69" height="35" rx="17.5" stroke="#E4E4E4"/>
<path d="M33.3379 53.5156H36.4434C37.0293 53.5156 37.5234 53.6113 37.9258 53.8027C38.3281 53.9941 38.6289 54.2578 38.8281 54.5938C39.0273 54.9297 39.127 55.3125 39.127 55.7422C39.127 56.082 39.0645 56.373 38.9395 56.6152C38.8145 56.8574 38.6445 57.0547 38.4297 57.207C38.2148 57.3555 37.9688 57.4648 37.6914 57.5352V57.6172C37.9844 57.6328 38.2656 57.7266 38.5352 57.8984C38.8086 58.0703 39.0312 58.3125 39.2031 58.625C39.375 58.9375 39.4609 59.3027 39.4609 59.7207C39.457 60.1621 39.3496 60.5547 39.1387 60.8984C38.9316 61.2383 38.6133 61.5078 38.1836 61.707C37.7578 61.9023 37.2266 62 36.5898 62H33.3379V53.5156ZM36.4609 60.8926C36.8555 60.8926 37.1797 60.8398 37.4336 60.7344C37.6914 60.625 37.8789 60.4785 37.9961 60.2949C38.1172 60.1113 38.1758 59.8984 38.1719 59.6562C38.1758 59.3828 38.1094 59.1348 37.9727 58.9121C37.8398 58.6895 37.6465 58.5137 37.3926 58.3848C37.1387 58.252 36.8477 58.1855 36.5195 58.1855H34.627V60.8926H36.4609ZM36.332 57.1777C36.6172 57.1777 36.875 57.123 37.1055 57.0137C37.3398 56.9004 37.5234 56.7441 37.6562 56.5449C37.793 56.3457 37.8613 56.1113 37.8613 55.8418C37.8613 55.6035 37.8047 55.3926 37.6914 55.209C37.582 55.0215 37.4141 54.877 37.1875 54.7754C36.9648 54.6699 36.6914 54.6172 36.3672 54.6172H34.627V57.1777H36.332ZM40.7383 55.6367H41.9453V56.6562H42.0156C42.1289 56.3125 42.332 56.041 42.625 55.8418C42.918 55.6426 43.248 55.541 43.6152 55.5371C43.9121 55.5449 44.0918 55.5566 44.1543 55.5723V56.7676C44.0801 56.748 43.9824 56.7305 43.8613 56.7148C43.7402 56.6953 43.6191 56.6855 43.498 56.6855C43.2129 56.6855 42.9551 56.748 42.7246 56.873C42.498 56.998 42.3184 57.1699 42.1855 57.3887C42.0527 57.6035 41.9863 57.8477 41.9863 58.1211V62H40.7383V55.6367ZM47.5762 62.1289C46.9785 62.1289 46.4551 61.9922 46.0059 61.7188C45.5566 61.4453 45.209 61.0625 44.9629 60.5703C44.7168 60.0742 44.5938 59.5 44.5938 58.8477C44.5938 58.1914 44.7168 57.6152 44.9629 57.1191C45.209 56.623 45.5566 56.2383 46.0059 55.9648C46.4551 55.6914 46.9785 55.5547 47.5762 55.5547C48.166 55.5547 48.6855 55.6914 49.1348 55.9648C49.584 56.2383 49.9297 56.623 50.1719 57.1191C50.4141 57.6152 50.5352 58.1914 50.5352 58.8477C50.5352 59.5 50.4141 60.0742 50.1719 60.5703C49.9297 61.0625 49.584 61.4453 49.1348 61.7188C48.6855 61.9922 48.166 62.1289 47.5762 62.1289ZM47.5762 61.0859C47.9473 61.0859 48.2598 60.9863 48.5137 60.7871C48.7715 60.5879 48.9629 60.3184 49.0879 59.9785C49.2129 59.6387 49.2754 59.2598 49.2754 58.8418C49.2754 58.4238 49.2129 58.0449 49.0879 57.7051C48.9629 57.3652 48.7715 57.0957 48.5137 56.8965C48.2598 56.6934 47.9473 56.5918 47.5762 56.5918C47.2012 56.5918 46.8848 56.6934 46.627 56.8965C46.3691 57.0957 46.1758 57.3652 46.0469 57.7051C45.9219 58.0449 45.8574 58.4238 45.8535 58.8418C45.8574 59.2598 45.9219 59.6387 46.0469 59.9785C46.1758 60.3184 46.3691 60.5879 46.627 60.7871C46.8848 60.9863 47.2012 61.0859 47.5762 61.0859ZM51.1035 55.6367H52.3984L53.6406 60.3066H53.6992L54.9414 55.6367H56.2363L57.4727 60.2773H57.5371L58.7734 55.6367H60.0566L58.1934 62H56.916L55.627 57.418H55.5391L54.2559 62H52.9727L51.1035 55.6367ZM64.6621 57.3711C64.5996 57.1133 64.4668 56.9102 64.2637 56.7617C64.0605 56.6133 63.791 56.5391 63.4551 56.5391C63.2207 56.5391 63.0098 56.5762 62.8223 56.6504C62.6387 56.7246 62.4922 56.8281 62.3828 56.9609C62.2773 57.0898 62.2246 57.2344 62.2246 57.3945C62.2285 57.582 62.3105 57.7441 62.4707 57.8809C62.6309 58.0137 62.8828 58.1191 63.2266 58.1973L64.2402 58.4316C64.8223 58.5645 65.2578 58.7734 65.5469 59.0586C65.8359 59.3438 65.9824 59.709 65.9863 60.1543C65.9824 60.541 65.877 60.8828 65.6699 61.1797C65.4629 61.4766 65.1621 61.709 64.7676 61.877C64.377 62.0449 63.9141 62.1289 63.3789 62.1289C62.875 62.1289 62.4395 62.0566 62.0723 61.9121C61.7051 61.7637 61.4121 61.5508 61.1934 61.2734C60.9785 60.9961 60.8438 60.6602 60.7891 60.2656H62.0723C62.127 60.5508 62.2617 60.7656 62.4766 60.9102C62.6953 61.0547 62.9922 61.125 63.3672 61.1211C63.6367 61.1211 63.873 61.0879 64.0762 61.0215C64.2793 60.9512 64.4336 60.8516 64.5391 60.7227C64.6484 60.5898 64.7031 60.4336 64.7031 60.2539C64.7031 60.0508 64.623 59.8828 64.4629 59.75C64.3066 59.6133 64.0586 59.5059 63.7188 59.4277L62.7285 59.2051C62.1582 59.0801 61.7246 58.8691 61.4277 58.5723C61.1309 58.2754 60.9824 57.9062 60.9824 57.4648C60.9824 57.0938 61.084 56.7637 61.2871 56.4746C61.4941 56.1816 61.7832 55.9551 62.1543 55.7949C62.5254 55.6348 62.957 55.5547 63.4492 55.5547C63.9102 55.5547 64.3164 55.6309 64.668 55.7832C65.0195 55.9316 65.2949 56.1426 65.4941 56.416C65.6973 56.6895 65.8184 57.0078 65.8574 57.3711H64.6621ZM69.9648 62.1289C69.3477 62.1289 68.8105 61.9941 68.3535 61.7246C67.8965 61.4551 67.5449 61.0742 67.2988 60.582C67.0527 60.0898 66.9297 59.5176 66.9297 58.8652C66.9297 58.2168 67.0527 57.6406 67.2988 57.1367C67.5449 56.6328 67.8887 56.2441 68.3301 55.9707C68.7754 55.6934 69.291 55.5547 69.877 55.5547C70.3887 55.5547 70.8574 55.666 71.2832 55.8887C71.7129 56.1074 72.0566 56.457 72.3145 56.9375C72.5723 57.4141 72.7012 58.0176 72.7012 58.748V59.1875H67.6328V58.2559H71.4766C71.4766 57.9395 71.4102 57.6543 71.2773 57.4004C71.1484 57.1426 70.9629 56.9414 70.7207 56.7969C70.4785 56.6523 70.2012 56.5801 69.8887 56.5801C69.5488 56.5801 69.25 56.6621 68.9922 56.8262C68.7344 56.9902 68.5332 57.2109 68.3887 57.4883C68.248 57.7656 68.1758 58.0625 68.1719 58.3789V59.1055C68.1719 59.5234 68.248 59.8828 68.4004 60.1836C68.5527 60.4805 68.7637 60.709 69.0332 60.8691C69.3027 61.0254 69.6152 61.1035 69.9707 61.1035C70.1973 61.0996 70.4023 61.0664 70.5859 61.0039C70.7695 60.9414 70.9238 60.8594 71.0488 60.7578C71.1777 60.6562 71.2793 60.5391 71.3535 60.4062H72.625C72.5273 60.7539 72.3574 61.0566 72.1152 61.3145C71.877 61.5723 71.5723 61.7734 71.2012 61.918C70.834 62.0586 70.4219 62.1289 69.9648 62.1289ZM73.9375 55.6367H75.1445V56.6562H75.2148C75.3281 56.3125 75.5312 56.041 75.8242 55.8418C76.1172 55.6426 76.4473 55.541 76.8145 55.5371C77.1113 55.5449 77.291 55.5566 77.3535 55.5723V56.7676C77.2793 56.748 77.1816 56.7305 77.0605 56.7148C76.9395 56.6953 76.8184 56.6855 76.6973 56.6855C76.4121 56.6855 76.1543 56.748 75.9238 56.873C75.6973 56.998 75.5176 57.1699 75.3848 57.3887C75.252 57.6035 75.1855 57.8477 75.1855 58.1211V62H73.9375V55.6367Z" fill="#4B4B4B"/>
<path d="M45.748 92.2812C45.6777 91.9258 45.5371 91.6191 45.3262 91.3613C45.1191 91.1035 44.8613 90.9082 44.5527 90.7754C44.248 90.6426 43.9141 90.5762 43.5508 90.5762C43.0586 90.5762 42.6191 90.7012 42.2324 90.9512C41.8496 91.1973 41.5469 91.5605 41.3242 92.041C41.1055 92.5176 40.9961 93.0898 40.9961 93.7578C40.9961 94.4297 41.1055 95.0039 41.3242 95.4805C41.5469 95.9531 41.8496 96.3145 42.2324 96.5645C42.6152 96.8105 43.0527 96.9355 43.5449 96.9395C43.9082 96.9355 44.2422 96.8691 44.5469 96.7402C44.8555 96.6074 45.1133 96.416 45.3203 96.166C45.5312 95.9121 45.6738 95.6113 45.748 95.2637L47.043 95.2695C46.9531 95.8242 46.748 96.3184 46.4277 96.752C46.1113 97.1816 45.7031 97.5176 45.2031 97.7598C44.707 97.998 44.1523 98.1172 43.5391 98.1172C42.8008 98.1172 42.1426 97.9414 41.5645 97.5898C40.9902 97.2383 40.5391 96.7344 40.2109 96.0781C39.8867 95.418 39.7246 94.6445 39.7246 93.7578C39.7246 92.8711 39.8887 92.0996 40.2168 91.4434C40.5449 90.7832 40.9961 90.2773 41.5703 89.9258C42.1484 89.5742 42.8047 89.3984 43.5391 89.3984C44.1406 89.3984 44.6895 89.5117 45.1855 89.7383C45.6816 89.9648 46.0918 90.2969 46.416 90.7344C46.7402 91.168 46.9492 91.6836 47.043 92.2812H45.748ZM49.5859 98H48.3379V89.5156H49.5859V98ZM51.1035 91.6367H52.3516V98H51.1035V91.6367ZM51.7246 90.6523C51.5801 90.6523 51.4473 90.6191 51.3262 90.5527C51.209 90.4824 51.1152 90.3926 51.0449 90.2832C50.9746 90.1738 50.9395 90.0508 50.9395 89.9141C50.9395 89.7812 50.9746 89.6582 51.0449 89.5449C51.1152 89.4316 51.2109 89.3418 51.332 89.2754C51.4531 89.209 51.584 89.1758 51.7246 89.1758C51.8652 89.1758 51.9961 89.209 52.1172 89.2754C52.2383 89.3418 52.334 89.4316 52.4043 89.5449C52.4785 89.6582 52.5156 89.7812 52.5156 89.9141C52.5156 90.0508 52.4785 90.1738 52.4043 90.2832C52.334 90.3926 52.2383 90.4824 52.1172 90.5527C51.9961 90.6191 51.8652 90.6523 51.7246 90.6523ZM56.623 98.1289C56.0059 98.1289 55.4688 97.9941 55.0117 97.7246C54.5547 97.4551 54.2031 97.0742 53.957 96.582C53.7109 96.0898 53.5879 95.5176 53.5879 94.8652C53.5879 94.2168 53.7109 93.6406 53.957 93.1367C54.2031 92.6328 54.5469 92.2441 54.9883 91.9707C55.4336 91.6934 55.9492 91.5547 56.5352 91.5547C57.0469 91.5547 57.5156 91.666 57.9414 91.8887C58.3711 92.1074 58.7148 92.457 58.9727 92.9375C59.2305 93.4141 59.3594 94.0176 59.3594 94.748V95.1875H54.291V94.2559H58.1348C58.1348 93.9395 58.0684 93.6543 57.9355 93.4004C57.8066 93.1426 57.6211 92.9414 57.3789 92.7969C57.1367 92.6523 56.8594 92.5801 56.5469 92.5801C56.207 92.5801 55.9082 92.6621 55.6504 92.8262C55.3926 92.9902 55.1914 93.2109 55.0469 93.4883C54.9062 93.7656 54.834 94.0625 54.8301 94.3789V95.1055C54.8301 95.5234 54.9062 95.8828 55.0586 96.1836C55.2109 96.4805 55.4219 96.709 55.6914 96.8691C55.9609 97.0254 56.2734 97.1035 56.6289 97.1035C56.8555 97.0996 57.0605 97.0664 57.2441 97.0039C57.4277 96.9414 57.582 96.8594 57.707 96.7578C57.8359 96.6562 57.9375 96.5391 58.0117 96.4062H59.2832C59.1855 96.7539 59.0156 97.0566 58.7734 97.3145C58.5352 97.5723 58.2305 97.7734 57.8594 97.918C57.4922 98.0586 57.0801 98.1289 56.623 98.1289ZM61.8438 98H60.5957V91.6367H61.791V92.6738H61.873C62.0254 92.3223 62.2598 92.0488 62.5762 91.8535C62.8965 91.6543 63.2891 91.5547 63.7539 91.5547C64.1914 91.5547 64.5703 91.6465 64.8906 91.8301C65.2148 92.0098 65.4648 92.2812 65.6406 92.6445C65.8203 93.0039 65.9102 93.4395 65.9102 93.9512V98H64.6621V94.0977C64.6621 93.7969 64.6094 93.5371 64.5039 93.3184C64.3984 93.0957 64.2441 92.9277 64.041 92.8145C63.8418 92.6973 63.6016 92.6387 63.3203 92.6387C63.0312 92.6387 62.7754 92.7012 62.5527 92.8262C62.3301 92.9473 62.1562 93.1289 62.0312 93.3711C61.9062 93.6094 61.8438 93.8945 61.8438 94.2266V98ZM70.4043 92.6328H66.9238V91.6367H70.4043V92.6328ZM69.1152 90.1133V96.1309C69.1152 96.3535 69.1484 96.5273 69.2148 96.6523C69.2812 96.7734 69.3691 96.8574 69.4785 96.9043C69.5879 96.9512 69.7188 96.9746 69.8711 96.9746C69.9375 96.9746 70.0098 96.9727 70.0879 96.9688C70.1699 96.9648 70.25 96.9629 70.3281 96.9629L70.498 96.9512V98.0293C70.2676 98.0645 70.0098 98.082 69.7246 98.082C69.3848 98.082 69.0723 98.0195 68.7871 97.8945C68.5059 97.7656 68.2793 97.5742 68.1074 97.3203C67.9395 97.0664 67.8555 96.7539 67.8555 96.3828V90.1133H69.1152Z" fill="#4B4B4B"/>
<path d="M86 59.5C86 61.7091 87.7909 63.5 90 63.5C92.2091 63.5 94 61.7091 94 59.5C94 57.2909 92.2091 55.5 90 55.5C87.7909 55.5 86 57.2909 86 59.5ZM249 59.5L241.5 55.1699V63.8301L249 59.5ZM90 59.5V60.25H242.25V59.5V58.75H90V59.5Z" fill="#969696"/>
<rect x="103.5" y="40.5" width="107" height="35" rx="17.5" fill="#F0F0F0"/>
<rect x="103.5" y="40.5" width="107" height="35" rx="17.5" stroke="#E4E4E4"/>
<path d="M120.895 55.748C120.867 55.4902 120.777 55.2676 120.625 55.0801C120.477 54.8926 120.275 54.752 120.021 54.6582C119.768 54.5645 119.479 54.5176 119.154 54.5176C118.814 54.5176 118.516 54.5703 118.258 54.6758C118 54.7812 117.801 54.9297 117.66 55.1211C117.52 55.3086 117.449 55.5234 117.449 55.7656C117.449 56.125 117.596 56.4023 117.889 56.5977C118.186 56.7891 118.555 56.9375 118.996 57.043L119.811 57.2598C120.518 57.4355 121.102 57.7051 121.562 58.0684C122.027 58.4316 122.26 58.9609 122.26 59.6562C122.26 60.1367 122.135 60.5664 121.885 60.9453C121.639 61.3203 121.277 61.6133 120.801 61.8242C120.328 62.0352 119.766 62.1406 119.113 62.1406C118.48 62.1406 117.932 62.0391 117.467 61.8359C117.006 61.6328 116.643 61.3457 116.377 60.9746C116.115 60.6035 115.969 60.1621 115.938 59.6504H117.227C117.25 59.9434 117.348 60.1934 117.52 60.4004C117.691 60.6035 117.914 60.7559 118.188 60.8574C118.465 60.959 118.771 61.0078 119.107 61.0039C119.467 61.0039 119.789 60.9473 120.074 60.834C120.359 60.7207 120.582 60.5605 120.742 60.3535C120.902 60.1465 120.982 59.9062 120.982 59.6328C120.982 59.3984 120.916 59.1992 120.783 59.0352C120.65 58.8711 120.469 58.7383 120.238 58.6367C120.008 58.5352 119.723 58.4395 119.383 58.3496L118.375 58.0859C117.664 57.8906 117.117 57.6113 116.734 57.248C116.355 56.8809 116.168 56.4102 116.172 55.8359C116.172 55.3555 116.301 54.9297 116.559 54.5586C116.82 54.1875 117.18 53.9023 117.637 53.7031C118.098 53.5 118.613 53.3984 119.184 53.3984C119.75 53.3984 120.256 53.5 120.701 53.7031C121.15 53.9023 121.5 54.1816 121.75 54.541C122.004 54.8965 122.135 55.2988 122.143 55.748H120.895ZM126.303 62.1289C125.686 62.1289 125.148 61.9941 124.691 61.7246C124.234 61.4551 123.883 61.0742 123.637 60.582C123.391 60.0898 123.268 59.5176 123.268 58.8652C123.268 58.2168 123.391 57.6406 123.637 57.1367C123.883 56.6328 124.227 56.2441 124.668 55.9707C125.113 55.6934 125.629 55.5547 126.215 55.5547C126.727 55.5547 127.195 55.666 127.621 55.8887C128.051 56.1074 128.395 56.457 128.652 56.9375C128.91 57.4141 129.039 58.0176 129.039 58.748V59.1875H123.971V58.2559H127.814C127.814 57.9395 127.748 57.6543 127.615 57.4004C127.486 57.1426 127.301 56.9414 127.059 56.7969C126.816 56.6523 126.539 56.5801 126.227 56.5801C125.887 56.5801 125.588 56.6621 125.33 56.8262C125.072 56.9902 124.871 57.2109 124.727 57.4883C124.586 57.7656 124.514 58.0625 124.51 58.3789V59.1055C124.51 59.5234 124.586 59.8828 124.738 60.1836C124.891 60.4805 125.102 60.709 125.371 60.8691C125.641 61.0254 125.953 61.1035 126.309 61.1035C126.535 61.0996 126.74 61.0664 126.924 61.0039C127.107 60.9414 127.262 60.8594 127.387 60.7578C127.516 60.6562 127.617 60.5391 127.691 60.4062H128.963C128.865 60.7539 128.695 61.0566 128.453 61.3145C128.215 61.5723 127.91 61.7734 127.539 61.918C127.172 62.0586 126.76 62.1289 126.303 62.1289ZM130.275 55.6367H131.482V56.6562H131.553C131.666 56.3125 131.869 56.041 132.162 55.8418C132.455 55.6426 132.785 55.541 133.152 55.5371C133.449 55.5449 133.629 55.5566 133.691 55.5723V56.7676C133.617 56.748 133.52 56.7305 133.398 56.7148C133.277 56.6953 133.156 56.6855 133.035 56.6855C132.75 56.6855 132.492 56.748 132.262 56.873C132.035 56.998 131.855 57.1699 131.723 57.3887C131.59 57.6035 131.523 57.8477 131.523 58.1211V62H130.275V55.6367ZM137.975 62H136.633L134.324 55.6367H135.672L137.271 60.5293H137.342L138.947 55.6367H140.295L137.975 62ZM141.326 55.6367H142.574V62H141.326V55.6367ZM141.947 54.6523C141.803 54.6523 141.67 54.6191 141.549 54.5527C141.432 54.4824 141.338 54.3926 141.268 54.2832C141.197 54.1738 141.162 54.0508 141.162 53.9141C141.162 53.7812 141.197 53.6582 141.268 53.5449C141.338 53.4316 141.434 53.3418 141.555 53.2754C141.676 53.209 141.807 53.1758 141.947 53.1758C142.088 53.1758 142.219 53.209 142.34 53.2754C142.461 53.3418 142.557 53.4316 142.627 53.5449C142.701 53.6582 142.738 53.7812 142.738 53.9141C142.738 54.0508 142.701 54.1738 142.627 54.2832C142.557 54.3926 142.461 54.4824 142.34 54.5527C142.219 54.6191 142.088 54.6523 141.947 54.6523ZM146.793 62.1289C146.184 62.1289 145.654 61.9902 145.205 61.7129C144.756 61.4355 144.41 61.0488 144.168 60.5527C143.93 60.0527 143.811 59.4844 143.811 58.8477C143.811 58.2031 143.934 57.6328 144.18 57.1367C144.426 56.6367 144.771 56.248 145.217 55.9707C145.666 55.6934 146.184 55.5547 146.77 55.5547C147.25 55.5547 147.682 55.6426 148.064 55.8184C148.451 55.9941 148.76 56.2461 148.99 56.5742C149.225 56.8984 149.363 57.2715 149.406 57.6934H148.188C148.141 57.4902 148.057 57.3066 147.936 57.1426C147.814 56.9746 147.656 56.8418 147.461 56.7441C147.27 56.6465 147.049 56.5977 146.799 56.5977C146.455 56.5977 146.152 56.6875 145.891 56.8672C145.633 57.0469 145.432 57.3047 145.287 57.6406C145.143 57.9727 145.07 58.3633 145.07 58.8125C145.07 59.2695 145.141 59.668 145.281 60.0078C145.426 60.3438 145.627 60.6055 145.885 60.793C146.143 60.9766 146.447 61.0664 146.799 61.0625C147.033 61.0664 147.246 61.0254 147.438 60.9395C147.629 60.8496 147.789 60.7246 147.918 60.5645C148.047 60.4043 148.137 60.209 148.188 59.9785H149.406C149.359 60.3965 149.223 60.7676 148.996 61.0918C148.773 61.416 148.471 61.6699 148.088 61.8535C147.709 62.0371 147.277 62.1289 146.793 62.1289ZM153.338 62.1289C152.721 62.1289 152.184 61.9941 151.727 61.7246C151.27 61.4551 150.918 61.0742 150.672 60.582C150.426 60.0898 150.303 59.5176 150.303 58.8652C150.303 58.2168 150.426 57.6406 150.672 57.1367C150.918 56.6328 151.262 56.2441 151.703 55.9707C152.148 55.6934 152.664 55.5547 153.25 55.5547C153.762 55.5547 154.23 55.666 154.656 55.8887C155.086 56.1074 155.43 56.457 155.688 56.9375C155.945 57.4141 156.074 58.0176 156.074 58.748V59.1875H151.006V58.2559H154.85C154.85 57.9395 154.783 57.6543 154.65 57.4004C154.521 57.1426 154.336 56.9414 154.094 56.7969C153.852 56.6523 153.574 56.5801 153.262 56.5801C152.922 56.5801 152.623 56.6621 152.365 56.8262C152.107 56.9902 151.906 57.2109 151.762 57.4883C151.621 57.7656 151.549 58.0625 151.545 58.3789V59.1055C151.545 59.5234 151.621 59.8828 151.773 60.1836C151.926 60.4805 152.137 60.709 152.406 60.8691C152.676 61.0254 152.988 61.1035 153.344 61.1035C153.57 61.0996 153.775 61.0664 153.959 61.0039C154.143 60.9414 154.297 60.8594 154.422 60.7578C154.551 60.6562 154.652 60.5391 154.727 60.4062H155.998C155.9 60.7539 155.73 61.0566 155.488 61.3145C155.25 61.5723 154.945 61.7734 154.574 61.918C154.207 62.0586 153.795 62.1289 153.338 62.1289ZM159.66 53.5156H161.014L162.666 60.0723H162.748L164.459 53.5156H165.801L167.523 60.0781H167.594L169.252 53.5156H170.6L168.244 62H166.943L165.168 55.6543H165.104L163.316 62H162.016L159.66 53.5156ZM173.617 62.1289C173.02 62.1289 172.496 61.9922 172.047 61.7188C171.598 61.4453 171.25 61.0625 171.004 60.5703C170.758 60.0742 170.635 59.5 170.635 58.8477C170.635 58.1914 170.758 57.6152 171.004 57.1191C171.25 56.623 171.598 56.2383 172.047 55.9648C172.496 55.6914 173.02 55.5547 173.617 55.5547C174.207 55.5547 174.727 55.6914 175.176 55.9648C175.625 56.2383 175.971 56.623 176.213 57.1191C176.455 57.6152 176.576 58.1914 176.576 58.8477C176.576 59.5 176.455 60.0742 176.213 60.5703C175.971 61.0625 175.625 61.4453 175.176 61.7188C174.727 61.9922 174.207 62.1289 173.617 62.1289ZM173.617 61.0859C173.988 61.0859 174.301 60.9863 174.555 60.7871C174.812 60.5879 175.004 60.3184 175.129 59.9785C175.254 59.6387 175.316 59.2598 175.316 58.8418C175.316 58.4238 175.254 58.0449 175.129 57.7051C175.004 57.3652 174.812 57.0957 174.555 56.8965C174.301 56.6934 173.988 56.5918 173.617 56.5918C173.242 56.5918 172.926 56.6934 172.668 56.8965C172.41 57.0957 172.217 57.3652 172.088 57.7051C171.963 58.0449 171.898 58.4238 171.895 58.8418C171.898 59.2598 171.963 59.6387 172.088 59.9785C172.217 60.3184 172.41 60.5879 172.668 60.7871C172.926 60.9863 173.242 61.0859 173.617 61.0859ZM177.83 55.6367H179.037V56.6562H179.107C179.221 56.3125 179.424 56.041 179.717 55.8418C180.01 55.6426 180.34 55.541 180.707 55.5371C181.004 55.5449 181.184 55.5566 181.246 55.5723V56.7676C181.172 56.748 181.074 56.7305 180.953 56.7148C180.832 56.6953 180.711 56.6855 180.59 56.6855C180.305 56.6855 180.047 56.748 179.816 56.873C179.59 56.998 179.41 57.1699 179.277 57.3887C179.145 57.6035 179.078 57.8477 179.078 58.1211V62H177.83V55.6367ZM183.326 58.3203H183.549L186.074 55.6367H187.568L184.674 58.707H184.475L183.338 59.8438L183.326 58.3203ZM182.189 53.5156H183.438V62H182.189V53.5156ZM183.936 58.9883L184.791 58.1094L187.738 62H186.209L183.936 58.9883ZM191.025 62.1289C190.408 62.1289 189.871 61.9941 189.414 61.7246C188.957 61.4551 188.605 61.0742 188.359 60.582C188.113 60.0898 187.99 59.5176 187.99 58.8652C187.99 58.2168 188.113 57.6406 188.359 57.1367C188.605 56.6328 188.949 56.2441 189.391 55.9707C189.836 55.6934 190.352 55.5547 190.938 55.5547C191.449 55.5547 191.918 55.666 192.344 55.8887C192.773 56.1074 193.117 56.457 193.375 56.9375C193.633 57.4141 193.762 58.0176 193.762 58.748V59.1875H188.693V58.2559H192.537C192.537 57.9395 192.471 57.6543 192.338 57.4004C192.209 57.1426 192.023 56.9414 191.781 56.7969C191.539 56.6523 191.262 56.5801 190.949 56.5801C190.609 56.5801 190.311 56.6621 190.053 56.8262C189.795 56.9902 189.594 57.2109 189.449 57.4883C189.309 57.7656 189.236 58.0625 189.232 58.3789V59.1055C189.232 59.5234 189.309 59.8828 189.461 60.1836C189.613 60.4805 189.824 60.709 190.094 60.8691C190.363 61.0254 190.676 61.1035 191.031 61.1035C191.258 61.0996 191.463 61.0664 191.646 61.0039C191.83 60.9414 191.984 60.8594 192.109 60.7578C192.238 60.6562 192.34 60.5391 192.414 60.4062H193.686C193.588 60.7539 193.418 61.0566 193.176 61.3145C192.938 61.5723 192.633 61.7734 192.262 61.918C191.895 62.0586 191.482 62.1289 191.025 62.1289ZM194.998 55.6367H196.205V56.6562H196.275C196.389 56.3125 196.592 56.041 196.885 55.8418C197.178 55.6426 197.508 55.541 197.875 55.5371C198.172 55.5449 198.352 55.5566 198.414 55.5723V56.7676C198.34 56.748 198.242 56.7305 198.121 56.7148C198 56.6953 197.879 56.6855 197.758 56.6855C197.473 56.6855 197.215 56.748 196.984 56.873C196.758 56.998 196.578 57.1699 196.445 57.3887C196.312 57.6035 196.246 57.8477 196.246 58.1211V62H194.998V55.6367Z" fill="#4B4B4B"/>
<path d="M142.41 89.5156H145.434C146.074 89.5156 146.615 89.6348 147.057 89.873C147.498 90.1074 147.828 90.4316 148.047 90.8457C148.27 91.2598 148.381 91.7344 148.381 92.2695C148.381 92.8008 148.27 93.2734 148.047 93.6875C147.824 94.1016 147.492 94.4277 147.051 94.666C146.609 94.9043 146.068 95.0234 145.428 95.0234H143.342V93.9277H145.305C145.711 93.9277 146.047 93.8574 146.312 93.7168C146.578 93.5723 146.771 93.377 146.893 93.1309C147.014 92.8848 147.076 92.5977 147.08 92.2695C147.076 91.9375 147.014 91.6484 146.893 91.4023C146.771 91.1562 146.576 90.9648 146.307 90.8281C146.041 90.6914 145.705 90.623 145.299 90.623H143.699V98H142.41V89.5156ZM149.635 91.6367H150.842V92.6562H150.912C151.025 92.3125 151.229 92.041 151.521 91.8418C151.814 91.6426 152.145 91.541 152.512 91.5371C152.809 91.5449 152.988 91.5566 153.051 91.5723V92.7676C152.977 92.748 152.879 92.7305 152.758 92.7148C152.637 92.6953 152.516 92.6855 152.395 92.6855C152.109 92.6855 151.852 92.748 151.621 92.873C151.395 92.998 151.215 93.1699 151.082 93.3887C150.949 93.6035 150.883 93.8477 150.883 94.1211V98H149.635V91.6367ZM156.473 98.1289C155.875 98.1289 155.352 97.9922 154.902 97.7188C154.453 97.4453 154.105 97.0625 153.859 96.5703C153.613 96.0742 153.49 95.5 153.49 94.8477C153.49 94.1914 153.613 93.6152 153.859 93.1191C154.105 92.623 154.453 92.2383 154.902 91.9648C155.352 91.6914 155.875 91.5547 156.473 91.5547C157.062 91.5547 157.582 91.6914 158.031 91.9648C158.48 92.2383 158.826 92.623 159.068 93.1191C159.311 93.6152 159.432 94.1914 159.432 94.8477C159.432 95.5 159.311 96.0742 159.068 96.5703C158.826 97.0625 158.48 97.4453 158.031 97.7188C157.582 97.9922 157.062 98.1289 156.473 98.1289ZM156.473 97.0859C156.844 97.0859 157.156 96.9863 157.41 96.7871C157.668 96.5879 157.859 96.3184 157.984 95.9785C158.109 95.6387 158.172 95.2598 158.172 94.8418C158.172 94.4238 158.109 94.0449 157.984 93.7051C157.859 93.3652 157.668 93.0957 157.41 92.8965C157.156 92.6934 156.844 92.5918 156.473 92.5918C156.098 92.5918 155.781 92.6934 155.523 92.8965C155.266 93.0957 155.072 93.3652 154.943 93.7051C154.818 94.0449 154.754 94.4238 154.75 94.8418C154.754 95.2598 154.818 95.6387 154.943 95.9785C155.072 96.3184 155.266 96.5879 155.523 96.7871C155.781 96.9863 156.098 97.0859 156.473 97.0859ZM162.807 94.1094L164.219 91.6367H165.59L163.604 94.8125L165.602 98H164.248L162.807 95.6211L161.395 98H160.023L161.986 94.8125L160.041 91.6367H161.418L162.807 94.1094ZM167.5 100.391C167.164 100.383 166.941 100.375 166.832 100.367V99.3125C166.91 99.3203 167.098 99.3281 167.395 99.3359C167.555 99.332 167.688 99.3145 167.793 99.2832C167.902 99.2559 168.008 99.1816 168.109 99.0605C168.211 98.9395 168.307 98.752 168.396 98.498L168.561 98.0938L166.223 91.6367H167.57L169.17 96.5645H169.24L170.846 91.6367H172.193L169.568 98.8438C169.377 99.3594 169.113 99.7441 168.777 99.998C168.441 100.256 168.016 100.387 167.5 100.391Z" fill="#4B4B4B"/>
<rect x="249.5" y="40.5" width="59" height="35" rx="17.5" fill="#F0F0F0"/>
<rect x="249.5" y="40.5" width="59" height="35" rx="17.5" stroke="#E4E4E4"/>
<path d="M266.49 55.748C266.463 55.4902 266.373 55.2676 266.221 55.0801C266.072 54.8926 265.871 54.752 265.617 54.6582C265.363 54.5645 265.074 54.5176 264.75 54.5176C264.41 54.5176 264.111 54.5703 263.854 54.6758C263.596 54.7812 263.396 54.9297 263.256 55.1211C263.115 55.3086 263.045 55.5234 263.045 55.7656C263.045 56.125 263.191 56.4023 263.484 56.5977C263.781 56.7891 264.15 56.9375 264.592 57.043L265.406 57.2598C266.113 57.4355 266.697 57.7051 267.158 58.0684C267.623 58.4316 267.855 58.9609 267.855 59.6562C267.855 60.1367 267.73 60.5664 267.48 60.9453C267.234 61.3203 266.873 61.6133 266.396 61.8242C265.924 62.0352 265.361 62.1406 264.709 62.1406C264.076 62.1406 263.527 62.0391 263.062 61.8359C262.602 61.6328 262.238 61.3457 261.973 60.9746C261.711 60.6035 261.564 60.1621 261.533 59.6504H262.822C262.846 59.9434 262.943 60.1934 263.115 60.4004C263.287 60.6035 263.51 60.7559 263.783 60.8574C264.061 60.959 264.367 61.0078 264.703 61.0039C265.062 61.0039 265.385 60.9473 265.67 60.834C265.955 60.7207 266.178 60.5605 266.338 60.3535C266.498 60.1465 266.578 59.9062 266.578 59.6328C266.578 59.3984 266.512 59.1992 266.379 59.0352C266.246 58.8711 266.064 58.7383 265.834 58.6367C265.604 58.5352 265.318 58.4395 264.979 58.3496L263.971 58.0859C263.26 57.8906 262.713 57.6113 262.33 57.248C261.951 56.8809 261.764 56.4102 261.768 55.8359C261.768 55.3555 261.896 54.9297 262.154 54.5586C262.416 54.1875 262.775 53.9023 263.232 53.7031C263.693 53.5 264.209 53.3984 264.779 53.3984C265.346 53.3984 265.852 53.5 266.297 53.7031C266.746 53.9023 267.096 54.1816 267.346 54.541C267.6 54.8965 267.73 55.2988 267.738 55.748H266.49ZM271.898 62.1289C271.281 62.1289 270.744 61.9941 270.287 61.7246C269.83 61.4551 269.479 61.0742 269.232 60.582C268.986 60.0898 268.863 59.5176 268.863 58.8652C268.863 58.2168 268.986 57.6406 269.232 57.1367C269.479 56.6328 269.822 56.2441 270.264 55.9707C270.709 55.6934 271.225 55.5547 271.811 55.5547C272.322 55.5547 272.791 55.666 273.217 55.8887C273.646 56.1074 273.99 56.457 274.248 56.9375C274.506 57.4141 274.635 58.0176 274.635 58.748V59.1875H269.566V58.2559H273.41C273.41 57.9395 273.344 57.6543 273.211 57.4004C273.082 57.1426 272.896 56.9414 272.654 56.7969C272.412 56.6523 272.135 56.5801 271.822 56.5801C271.482 56.5801 271.184 56.6621 270.926 56.8262C270.668 56.9902 270.467 57.2109 270.322 57.4883C270.182 57.7656 270.109 58.0625 270.105 58.3789V59.1055C270.105 59.5234 270.182 59.8828 270.334 60.1836C270.486 60.4805 270.697 60.709 270.967 60.8691C271.236 61.0254 271.549 61.1035 271.904 61.1035C272.131 61.0996 272.336 61.0664 272.52 61.0039C272.703 60.9414 272.857 60.8594 272.982 60.7578C273.111 60.6562 273.213 60.5391 273.287 60.4062H274.559C274.461 60.7539 274.291 61.0566 274.049 61.3145C273.811 61.5723 273.506 61.7734 273.135 61.918C272.768 62.0586 272.355 62.1289 271.898 62.1289ZM275.871 55.6367H277.078V56.6562H277.148C277.262 56.3125 277.465 56.041 277.758 55.8418C278.051 55.6426 278.381 55.541 278.748 55.5371C279.045 55.5449 279.225 55.5566 279.287 55.5723V56.7676C279.213 56.748 279.115 56.7305 278.994 56.7148C278.873 56.6953 278.752 56.6855 278.631 56.6855C278.346 56.6855 278.088 56.748 277.857 56.873C277.631 56.998 277.451 57.1699 277.318 57.3887C277.186 57.6035 277.119 57.8477 277.119 58.1211V62H275.871V55.6367ZM283.57 62H282.229L279.92 55.6367H281.268L282.867 60.5293H282.938L284.543 55.6367H285.891L283.57 62ZM289.43 62.1289C288.812 62.1289 288.275 61.9941 287.818 61.7246C287.361 61.4551 287.01 61.0742 286.764 60.582C286.518 60.0898 286.395 59.5176 286.395 58.8652C286.395 58.2168 286.518 57.6406 286.764 57.1367C287.01 56.6328 287.354 56.2441 287.795 55.9707C288.24 55.6934 288.756 55.5547 289.342 55.5547C289.854 55.5547 290.322 55.666 290.748 55.8887C291.178 56.1074 291.521 56.457 291.779 56.9375C292.037 57.4141 292.166 58.0176 292.166 58.748V59.1875H287.098V58.2559H290.941C290.941 57.9395 290.875 57.6543 290.742 57.4004C290.613 57.1426 290.428 56.9414 290.186 56.7969C289.943 56.6523 289.666 56.5801 289.354 56.5801C289.014 56.5801 288.715 56.6621 288.457 56.8262C288.199 56.9902 287.998 57.2109 287.854 57.4883C287.713 57.7656 287.641 58.0625 287.637 58.3789V59.1055C287.637 59.5234 287.713 59.8828 287.865 60.1836C288.018 60.4805 288.229 60.709 288.498 60.8691C288.768 61.0254 289.08 61.1035 289.436 61.1035C289.662 61.0996 289.867 61.0664 290.051 61.0039C290.234 60.9414 290.389 60.8594 290.514 60.7578C290.643 60.6562 290.744 60.5391 290.818 60.4062H292.09C291.992 60.7539 291.822 61.0566 291.58 61.3145C291.342 61.5723 291.037 61.7734 290.666 61.918C290.299 62.0586 289.887 62.1289 289.43 62.1289ZM293.402 55.6367H294.609V56.6562H294.68C294.793 56.3125 294.996 56.041 295.289 55.8418C295.582 55.6426 295.912 55.541 296.279 55.5371C296.576 55.5449 296.756 55.5566 296.818 55.5723V56.7676C296.744 56.748 296.646 56.7305 296.525 56.7148C296.404 56.6953 296.283 56.6855 296.162 56.6855C295.877 56.6855 295.619 56.748 295.389 56.873C295.162 56.998 294.982 57.1699 294.85 57.3887C294.717 57.6035 294.65 57.8477 294.65 58.1211V62H293.402V55.6367Z" fill="#4B4B4B"/>
<path d="M263.508 98H262.324L258.023 91.7949H257.947V98H256.658V89.5156H257.854L262.148 95.7266H262.225V89.5156H263.508V98ZM267.879 98.1289C267.262 98.1289 266.725 97.9941 266.268 97.7246C265.811 97.4551 265.459 97.0742 265.213 96.582C264.967 96.0898 264.844 95.5176 264.844 94.8652C264.844 94.2168 264.967 93.6406 265.213 93.1367C265.459 92.6328 265.803 92.2441 266.244 91.9707C266.689 91.6934 267.205 91.5547 267.791 91.5547C268.303 91.5547 268.771 91.666 269.197 91.8887C269.627 92.1074 269.971 92.457 270.229 92.9375C270.486 93.4141 270.615 94.0176 270.615 94.748V95.1875H265.547V94.2559H269.391C269.391 93.9395 269.324 93.6543 269.191 93.4004C269.062 93.1426 268.877 92.9414 268.635 92.7969C268.393 92.6523 268.115 92.5801 267.803 92.5801C267.463 92.5801 267.164 92.6621 266.906 92.8262C266.648 92.9902 266.447 93.2109 266.303 93.4883C266.162 93.7656 266.09 94.0625 266.086 94.3789V95.1055C266.086 95.5234 266.162 95.8828 266.314 96.1836C266.467 96.4805 266.678 96.709 266.947 96.8691C267.217 97.0254 267.529 97.1035 267.885 97.1035C268.111 97.0996 268.316 97.0664 268.5 97.0039C268.684 96.9414 268.838 96.8594 268.963 96.7578C269.092 96.6562 269.193 96.5391 269.268 96.4062H270.539C270.441 96.7539 270.271 97.0566 270.029 97.3145C269.791 97.5723 269.486 97.7734 269.115 97.918C268.748 98.0586 268.336 98.1289 267.879 98.1289ZM274.816 92.6328H271.336V91.6367H274.816V92.6328ZM273.527 90.1133V96.1309C273.527 96.3535 273.561 96.5273 273.627 96.6523C273.693 96.7734 273.781 96.8574 273.891 96.9043C274 96.9512 274.131 96.9746 274.283 96.9746C274.35 96.9746 274.422 96.9727 274.5 96.9688C274.582 96.9648 274.662 96.9629 274.74 96.9629L274.91 96.9512V98.0293C274.68 98.0645 274.422 98.082 274.137 98.082C273.797 98.082 273.484 98.0195 273.199 97.8945C272.918 97.7656 272.691 97.5742 272.52 97.3203C272.352 97.0664 272.268 96.7539 272.268 96.3828V90.1133H273.527ZM275.549 91.6367H276.844L278.086 96.3066H278.145L279.387 91.6367H280.682L281.918 96.2773H281.982L283.219 91.6367H284.502L282.639 98H281.361L280.072 93.418H279.984L278.701 98H277.418L275.549 91.6367ZM288.041 98.1289C287.443 98.1289 286.92 97.9922 286.471 97.7188C286.021 97.4453 285.674 97.0625 285.428 96.5703C285.182 96.0742 285.059 95.5 285.059 94.8477C285.059 94.1914 285.182 93.6152 285.428 93.1191C285.674 92.623 286.021 92.2383 286.471 91.9648C286.92 91.6914 287.443 91.5547 288.041 91.5547C288.631 91.5547 289.15 91.6914 289.6 91.9648C290.049 92.2383 290.395 92.623 290.637 93.1191C290.879 93.6152 291 94.1914 291 94.8477C291 95.5 290.879 96.0742 290.637 96.5703C290.395 97.0625 290.049 97.4453 289.6 97.7188C289.15 97.9922 288.631 98.1289 288.041 98.1289ZM288.041 97.0859C288.412 97.0859 288.725 96.9863 288.979 96.7871C289.236 96.5879 289.428 96.3184 289.553 95.9785C289.678 95.6387 289.74 95.2598 289.74 94.8418C289.74 94.4238 289.678 94.0449 289.553 93.7051C289.428 93.3652 289.236 93.0957 288.979 92.8965C288.725 92.6934 288.412 92.5918 288.041 92.5918C287.666 92.5918 287.35 92.6934 287.092 92.8965C286.834 93.0957 286.641 93.3652 286.512 93.7051C286.387 94.0449 286.322 94.4238 286.318 94.8418C286.322 95.2598 286.387 95.6387 286.512 95.9785C286.641 96.3184 286.834 96.5879 287.092 96.7871C287.35 96.9863 287.666 97.0859 288.041 97.0859ZM292.254 91.6367H293.461V92.6562H293.531C293.645 92.3125 293.848 92.041 294.141 91.8418C294.434 91.6426 294.764 91.541 295.131 91.5371C295.428 91.5449 295.607 91.5566 295.67 91.5723V92.7676C295.596 92.748 295.498 92.7305 295.377 92.7148C295.256 92.6953 295.135 92.6855 295.014 92.6855C294.729 92.6855 294.471 92.748 294.24 92.873C294.014 92.998 293.834 93.1699 293.701 93.3887C293.568 93.6035 293.502 93.8477 293.502 94.1211V98H292.254V91.6367ZM297.75 94.3203H297.973L300.498 91.6367H301.992L299.098 94.707H298.898L297.762 95.8438L297.75 94.3203ZM296.613 89.5156H297.861V98H296.613V89.5156ZM298.359 94.9883L299.215 94.1094L302.162 98H300.633L298.359 94.9883Z" fill="#4B4B4B"/>
</svg>
