<svg width="377" height="248" viewBox="0 0 377 248" fill="none" xmlns="http://www.w3.org/2000/svg">
<line x1="55.5" y1="56" x2="55.5" y2="228" stroke="#D5D5D5"/>
<line x1="157.5" y1="56" x2="157.5" y2="228" stroke="#D5D5D5"/>
<line x1="259.5" y1="56" x2="259.5" y2="228" stroke="#D5D5D5"/>
<line x1="327.5" y1="56" x2="327.5" y2="228" stroke="#D5D5D5"/>
<rect x="20.5" y="20.5" width="69" height="35" rx="17.5" fill="#F0F0F0"/>
<rect x="20.5" y="20.5" width="69" height="35" rx="17.5" stroke="#E4E4E4"/>
<path d="M33.3379 33.5156H36.4434C37.0293 33.5156 37.5234 33.6113 37.9258 33.8027C38.3281 33.9941 38.6289 34.2578 38.8281 34.5938C39.0273 34.9297 39.127 35.3125 39.127 35.7422C39.127 36.082 39.0645 36.373 38.9395 36.6152C38.8145 36.8574 38.6445 37.0547 38.4297 37.207C38.2148 37.3555 37.9688 37.4648 37.6914 37.5352V37.6172C37.9844 37.6328 38.2656 37.7266 38.5352 37.8984C38.8086 38.0703 39.0312 38.3125 39.2031 38.625C39.375 38.9375 39.4609 39.3027 39.4609 39.7207C39.457 40.1621 39.3496 40.5547 39.1387 40.8984C38.9316 41.2383 38.6133 41.5078 38.1836 41.707C37.7578 41.9023 37.2266 42 36.5898 42H33.3379V33.5156ZM36.4609 40.8926C36.8555 40.8926 37.1797 40.8398 37.4336 40.7344C37.6914 40.625 37.8789 40.4785 37.9961 40.2949C38.1172 40.1113 38.1758 39.8984 38.1719 39.6562C38.1758 39.3828 38.1094 39.1348 37.9727 38.9121C37.8398 38.6895 37.6465 38.5137 37.3926 38.3848C37.1387 38.252 36.8477 38.1855 36.5195 38.1855H34.627V40.8926H36.4609ZM36.332 37.1777C36.6172 37.1777 36.875 37.123 37.1055 37.0137C37.3398 36.9004 37.5234 36.7441 37.6562 36.5449C37.793 36.3457 37.8613 36.1113 37.8613 35.8418C37.8613 35.6035 37.8047 35.3926 37.6914 35.209C37.582 35.0215 37.4141 34.877 37.1875 34.7754C36.9648 34.6699 36.6914 34.6172 36.3672 34.6172H34.627V37.1777H36.332ZM40.7383 35.6367H41.9453V36.6562H42.0156C42.1289 36.3125 42.332 36.041 42.625 35.8418C42.918 35.6426 43.248 35.541 43.6152 35.5371C43.9121 35.5449 44.0918 35.5566 44.1543 35.5723V36.7676C44.0801 36.748 43.9824 36.7305 43.8613 36.7148C43.7402 36.6953 43.6191 36.6855 43.498 36.6855C43.2129 36.6855 42.9551 36.748 42.7246 36.873C42.498 36.998 42.3184 37.1699 42.1855 37.3887C42.0527 37.6035 41.9863 37.8477 41.9863 38.1211V42H40.7383V35.6367ZM47.5762 42.1289C46.9785 42.1289 46.4551 41.9922 46.0059 41.7188C45.5566 41.4453 45.209 41.0625 44.9629 40.5703C44.7168 40.0742 44.5938 39.5 44.5938 38.8477C44.5938 38.1914 44.7168 37.6152 44.9629 37.1191C45.209 36.623 45.5566 36.2383 46.0059 35.9648C46.4551 35.6914 46.9785 35.5547 47.5762 35.5547C48.166 35.5547 48.6855 35.6914 49.1348 35.9648C49.584 36.2383 49.9297 36.623 50.1719 37.1191C50.4141 37.6152 50.5352 38.1914 50.5352 38.8477C50.5352 39.5 50.4141 40.0742 50.1719 40.5703C49.9297 41.0625 49.584 41.4453 49.1348 41.7188C48.6855 41.9922 48.166 42.1289 47.5762 42.1289ZM47.5762 41.0859C47.9473 41.0859 48.2598 40.9863 48.5137 40.7871C48.7715 40.5879 48.9629 40.3184 49.0879 39.9785C49.2129 39.6387 49.2754 39.2598 49.2754 38.8418C49.2754 38.4238 49.2129 38.0449 49.0879 37.7051C48.9629 37.3652 48.7715 37.0957 48.5137 36.8965C48.2598 36.6934 47.9473 36.5918 47.5762 36.5918C47.2012 36.5918 46.8848 36.6934 46.627 36.8965C46.3691 37.0957 46.1758 37.3652 46.0469 37.7051C45.9219 38.0449 45.8574 38.4238 45.8535 38.8418C45.8574 39.2598 45.9219 39.6387 46.0469 39.9785C46.1758 40.3184 46.3691 40.5879 46.627 40.7871C46.8848 40.9863 47.2012 41.0859 47.5762 41.0859ZM51.1035 35.6367H52.3984L53.6406 40.3066H53.6992L54.9414 35.6367H56.2363L57.4727 40.2773H57.5371L58.7734 35.6367H60.0566L58.1934 42H56.916L55.627 37.418H55.5391L54.2559 42H52.9727L51.1035 35.6367ZM64.6621 37.3711C64.5996 37.1133 64.4668 36.9102 64.2637 36.7617C64.0605 36.6133 63.791 36.5391 63.4551 36.5391C63.2207 36.5391 63.0098 36.5762 62.8223 36.6504C62.6387 36.7246 62.4922 36.8281 62.3828 36.9609C62.2773 37.0898 62.2246 37.2344 62.2246 37.3945C62.2285 37.582 62.3105 37.7441 62.4707 37.8809C62.6309 38.0137 62.8828 38.1191 63.2266 38.1973L64.2402 38.4316C64.8223 38.5645 65.2578 38.7734 65.5469 39.0586C65.8359 39.3438 65.9824 39.709 65.9863 40.1543C65.9824 40.541 65.877 40.8828 65.6699 41.1797C65.4629 41.4766 65.1621 41.709 64.7676 41.877C64.377 42.0449 63.9141 42.1289 63.3789 42.1289C62.875 42.1289 62.4395 42.0566 62.0723 41.9121C61.7051 41.7637 61.4121 41.5508 61.1934 41.2734C60.9785 40.9961 60.8438 40.6602 60.7891 40.2656H62.0723C62.127 40.5508 62.2617 40.7656 62.4766 40.9102C62.6953 41.0547 62.9922 41.125 63.3672 41.1211C63.6367 41.1211 63.873 41.0879 64.0762 41.0215C64.2793 40.9512 64.4336 40.8516 64.5391 40.7227C64.6484 40.5898 64.7031 40.4336 64.7031 40.2539C64.7031 40.0508 64.623 39.8828 64.4629 39.75C64.3066 39.6133 64.0586 39.5059 63.7188 39.4277L62.7285 39.2051C62.1582 39.0801 61.7246 38.8691 61.4277 38.5723C61.1309 38.2754 60.9824 37.9062 60.9824 37.4648C60.9824 37.0938 61.084 36.7637 61.2871 36.4746C61.4941 36.1816 61.7832 35.9551 62.1543 35.7949C62.5254 35.6348 62.957 35.5547 63.4492 35.5547C63.9102 35.5547 64.3164 35.6309 64.668 35.7832C65.0195 35.9316 65.2949 36.1426 65.4941 36.416C65.6973 36.6895 65.8184 37.0078 65.8574 37.3711H64.6621ZM69.9648 42.1289C69.3477 42.1289 68.8105 41.9941 68.3535 41.7246C67.8965 41.4551 67.5449 41.0742 67.2988 40.582C67.0527 40.0898 66.9297 39.5176 66.9297 38.8652C66.9297 38.2168 67.0527 37.6406 67.2988 37.1367C67.5449 36.6328 67.8887 36.2441 68.3301 35.9707C68.7754 35.6934 69.291 35.5547 69.877 35.5547C70.3887 35.5547 70.8574 35.666 71.2832 35.8887C71.7129 36.1074 72.0566 36.457 72.3145 36.9375C72.5723 37.4141 72.7012 38.0176 72.7012 38.748V39.1875H67.6328V38.2559H71.4766C71.4766 37.9395 71.4102 37.6543 71.2773 37.4004C71.1484 37.1426 70.9629 36.9414 70.7207 36.7969C70.4785 36.6523 70.2012 36.5801 69.8887 36.5801C69.5488 36.5801 69.25 36.6621 68.9922 36.8262C68.7344 36.9902 68.5332 37.2109 68.3887 37.4883C68.248 37.7656 68.1758 38.0625 68.1719 38.3789V39.1055C68.1719 39.5234 68.248 39.8828 68.4004 40.1836C68.5527 40.4805 68.7637 40.709 69.0332 40.8691C69.3027 41.0254 69.6152 41.1035 69.9707 41.1035C70.1973 41.0996 70.4023 41.0664 70.5859 41.0039C70.7695 40.9414 70.9238 40.8594 71.0488 40.7578C71.1777 40.6562 71.2793 40.5391 71.3535 40.4062H72.625C72.5273 40.7539 72.3574 41.0566 72.1152 41.3145C71.877 41.5723 71.5723 41.7734 71.2012 41.918C70.834 42.0586 70.4219 42.1289 69.9648 42.1289ZM73.9375 35.6367H75.1445V36.6562H75.2148C75.3281 36.3125 75.5312 36.041 75.8242 35.8418C76.1172 35.6426 76.4473 35.541 76.8145 35.5371C77.1113 35.5449 77.291 35.5566 77.3535 35.5723V36.7676C77.2793 36.748 77.1816 36.7305 77.0605 36.7148C76.9395 36.6953 76.8184 36.6855 76.6973 36.6855C76.4121 36.6855 76.1543 36.748 75.9238 36.873C75.6973 36.998 75.5176 37.1699 75.3848 37.3887C75.252 37.6035 75.1855 37.8477 75.1855 38.1211V42H73.9375V35.6367Z" fill="#4B4B4B"/>
<rect x="93.5" y="83.5" width="25" height="20" rx="3.5" fill="#F1F1F1"/>
<rect x="93.5" y="83.5" width="25" height="20" rx="3.5" stroke="#EDEDED"/>
<path d="M100.512 96.1357H99.5986V93.5723H100.512V96.1357ZM103.773 96.1357H102.841V93.5723H103.773V96.1357ZM105.688 96.7363H97.6797V95.9697H105.688V96.7363ZM101.669 89.583C102.291 89.5863 102.846 89.6823 103.334 89.8711C103.826 90.0599 104.208 90.3285 104.481 90.6768C104.758 91.0218 104.896 91.4189 104.896 91.8682C104.896 92.3239 104.758 92.7227 104.481 93.0645C104.208 93.4062 103.826 93.6732 103.334 93.8652C102.846 94.054 102.291 94.1484 101.669 94.1484C101.044 94.1484 100.487 94.054 99.999 93.8652C99.5107 93.6732 99.1283 93.4062 98.8516 93.0645C98.5749 92.7227 98.4365 92.3239 98.4365 91.8682C98.4365 91.4189 98.5749 91.0218 98.8516 90.6768C99.1283 90.3285 99.5107 90.0599 99.999 89.8711C100.487 89.6823 101.044 89.5863 101.669 89.583ZM101.669 90.335C101.21 90.3317 100.805 90.3936 100.453 90.5205C100.102 90.6442 99.8281 90.8232 99.6328 91.0576C99.4408 91.2887 99.3447 91.5589 99.3447 91.8682C99.3447 92.1774 99.4408 92.4492 99.6328 92.6836C99.8281 92.918 100.102 93.1003 100.453 93.2305C100.808 93.3574 101.213 93.4225 101.669 93.4258C102.121 93.4225 102.523 93.3574 102.875 93.2305C103.227 93.1003 103.5 92.918 103.695 92.6836C103.894 92.4492 103.993 92.1774 103.993 91.8682C103.993 91.5589 103.894 91.2887 103.695 91.0576C103.5 90.8232 103.227 90.6442 102.875 90.5205C102.523 90.3936 102.121 90.3317 101.669 90.335ZM109.223 90.9502C109.223 91.4548 109.123 91.93 108.925 92.376C108.729 92.8187 108.446 93.2028 108.075 93.5283C107.704 93.8538 107.266 94.0964 106.762 94.2559L106.322 93.543C106.758 93.403 107.138 93.2012 107.46 92.9375C107.785 92.6706 108.035 92.3662 108.207 92.0244C108.383 91.6826 108.471 91.3245 108.471 90.9502V90.584H109.223V90.9502ZM109.384 90.9502C109.384 91.292 109.473 91.6208 109.652 91.9365C109.835 92.249 110.09 92.5257 110.419 92.7666C110.748 93.0075 111.13 93.1898 111.566 93.3135L111.127 94.0312C110.619 93.8848 110.176 93.6618 109.799 93.3623C109.424 93.0596 109.136 92.7015 108.935 92.2881C108.733 91.8714 108.632 91.4255 108.632 90.9502V90.584H109.384V90.9502ZM111.293 90.833H106.566V90.0957H111.293V90.833ZM109.403 90.3691H108.471V89.0361H109.403V90.3691ZM112.938 92.2881H111.024V91.5312H112.938V92.2881ZM113.617 94.3779H112.689V89.0752H113.617V94.3779ZM110.683 94.583C111.291 94.583 111.817 94.6449 112.26 94.7686C112.706 94.8923 113.048 95.0762 113.285 95.3203C113.526 95.5645 113.646 95.8558 113.646 96.1943C113.646 96.5329 113.526 96.8242 113.285 97.0684C113.048 97.3125 112.706 97.498 112.26 97.625C111.817 97.752 111.291 97.8154 110.683 97.8154C110.074 97.8154 109.548 97.752 109.105 97.625C108.663 97.498 108.323 97.3125 108.085 97.0684C107.847 96.8242 107.729 96.5329 107.729 96.1943C107.729 95.8558 107.847 95.5645 108.085 95.3203C108.323 95.0762 108.663 94.8923 109.105 94.7686C109.548 94.6449 110.074 94.583 110.683 94.583ZM110.683 95.2959C110.256 95.2992 109.89 95.335 109.584 95.4033C109.281 95.4717 109.049 95.5742 108.886 95.7109C108.726 95.8444 108.646 96.0055 108.646 96.1943C108.646 96.3831 108.726 96.5443 108.886 96.6777C109.049 96.8112 109.281 96.9137 109.584 96.9854C109.89 97.057 110.256 97.0928 110.683 97.0928C111.109 97.0928 111.475 97.057 111.781 96.9854C112.09 96.9137 112.325 96.8112 112.484 96.6777C112.644 96.5443 112.724 96.3831 112.724 96.1943C112.724 96.0023 112.644 95.8395 112.484 95.7061C112.325 95.5726 112.092 95.4717 111.786 95.4033C111.48 95.335 111.112 95.2992 110.683 95.2959Z" fill="#4B4B4B"/>
<rect x="185.5" y="103.5" width="45" height="20" rx="3.5" fill="#F1F1F1"/>
<rect x="185.5" y="103.5" width="45" height="20" rx="3.5" stroke="#EDEDED"/>
<path d="M192.648 116.136H191.735V113.572H192.648V116.136ZM195.91 116.136H194.978V113.572H195.91V116.136ZM197.824 116.736H189.816V115.97H197.824V116.736ZM193.806 109.583C194.427 109.586 194.982 109.682 195.471 109.871C195.962 110.06 196.345 110.328 196.618 110.677C196.895 111.022 197.033 111.419 197.033 111.868C197.033 112.324 196.895 112.723 196.618 113.064C196.345 113.406 195.962 113.673 195.471 113.865C194.982 114.054 194.427 114.148 193.806 114.148C193.181 114.148 192.624 114.054 192.136 113.865C191.647 113.673 191.265 113.406 190.988 113.064C190.712 112.723 190.573 112.324 190.573 111.868C190.573 111.419 190.712 111.022 190.988 110.677C191.265 110.328 191.647 110.06 192.136 109.871C192.624 109.682 193.181 109.586 193.806 109.583ZM193.806 110.335C193.347 110.332 192.941 110.394 192.59 110.521C192.238 110.644 191.965 110.823 191.77 111.058C191.577 111.289 191.481 111.559 191.481 111.868C191.481 112.177 191.577 112.449 191.77 112.684C191.965 112.918 192.238 113.1 192.59 113.23C192.945 113.357 193.35 113.423 193.806 113.426C194.258 113.423 194.66 113.357 195.012 113.23C195.363 113.1 195.637 112.918 195.832 112.684C196.031 112.449 196.13 112.177 196.13 111.868C196.13 111.559 196.031 111.289 195.832 111.058C195.637 110.823 195.363 110.644 195.012 110.521C194.66 110.394 194.258 110.332 193.806 110.335ZM201.359 110.95C201.359 111.455 201.26 111.93 201.062 112.376C200.866 112.819 200.583 113.203 200.212 113.528C199.841 113.854 199.403 114.096 198.898 114.256L198.459 113.543C198.895 113.403 199.274 113.201 199.597 112.938C199.922 112.671 200.171 112.366 200.344 112.024C200.52 111.683 200.607 111.325 200.607 110.95V110.584H201.359V110.95ZM201.521 110.95C201.521 111.292 201.61 111.621 201.789 111.937C201.971 112.249 202.227 112.526 202.556 112.767C202.884 113.007 203.267 113.19 203.703 113.313L203.264 114.031C202.756 113.885 202.313 113.662 201.936 113.362C201.561 113.06 201.273 112.701 201.071 112.288C200.869 111.871 200.769 111.425 200.769 110.95V110.584H201.521V110.95ZM203.43 110.833H198.703V110.096H203.43V110.833ZM201.54 110.369H200.607V109.036H201.54V110.369ZM205.075 112.288H203.161V111.531H205.075V112.288ZM205.754 114.378H204.826V109.075H205.754V114.378ZM202.819 114.583C203.428 114.583 203.954 114.645 204.396 114.769C204.842 114.892 205.184 115.076 205.422 115.32C205.663 115.564 205.783 115.856 205.783 116.194C205.783 116.533 205.663 116.824 205.422 117.068C205.184 117.312 204.842 117.498 204.396 117.625C203.954 117.752 203.428 117.815 202.819 117.815C202.211 117.815 201.685 117.752 201.242 117.625C200.799 117.498 200.459 117.312 200.222 117.068C199.984 116.824 199.865 116.533 199.865 116.194C199.865 115.856 199.984 115.564 200.222 115.32C200.459 115.076 200.799 114.892 201.242 114.769C201.685 114.645 202.211 114.583 202.819 114.583ZM202.819 115.296C202.393 115.299 202.027 115.335 201.721 115.403C201.418 115.472 201.185 115.574 201.022 115.711C200.863 115.844 200.783 116.006 200.783 116.194C200.783 116.383 200.863 116.544 201.022 116.678C201.185 116.811 201.418 116.914 201.721 116.985C202.027 117.057 202.393 117.093 202.819 117.093C203.246 117.093 203.612 117.057 203.918 116.985C204.227 116.914 204.462 116.811 204.621 116.678C204.781 116.544 204.86 116.383 204.86 116.194C204.86 116.002 204.781 115.84 204.621 115.706C204.462 115.573 204.229 115.472 203.923 115.403C203.617 115.335 203.249 115.299 202.819 115.296ZM217.521 114.295H209.543V113.543H217.521V114.295ZM213.991 113.753H213.063V112.283H213.991V113.753ZM216.54 117.825H215.612V115.809H210.427V115.076H216.54V117.825ZM211.511 110.228H215.563V109.285H216.481V112.596H210.593V109.285H211.511V110.228ZM215.563 111.858V110.921H211.511V111.858H215.563ZM221.052 111.302C221.052 111.969 220.951 112.612 220.749 113.23C220.547 113.849 220.261 114.399 219.89 114.881C219.522 115.363 219.097 115.729 218.615 115.979L218.034 115.232C218.477 115.024 218.869 114.712 219.211 114.295C219.553 113.878 219.818 113.411 220.007 112.894C220.199 112.373 220.297 111.842 220.3 111.302V109.803H221.052V111.302ZM221.213 111.302C221.213 111.819 221.306 112.327 221.491 112.825C221.68 113.323 221.94 113.771 222.272 114.168C222.604 114.562 222.985 114.863 223.415 115.071L222.849 115.813C222.377 115.573 221.96 115.219 221.599 114.754C221.241 114.288 220.962 113.758 220.764 113.162C220.568 112.566 220.472 111.946 220.476 111.302V109.803H221.213V111.302ZM225.002 117.825H224.079V109.075H225.002V117.825ZM226.413 113.362H224.792V112.566H226.413V113.362Z" fill="#4B4B4B"/>
<rect x="87.5" y="157.5" width="140" height="20" rx="3.5" fill="#F1F1F1"/>
<rect x="87.5" y="157.5" width="140" height="20" rx="3.5" stroke="#EDEDED"/>
<path d="M92.0264 165.697H93.0225V166.562H93.0908C93.2015 166.269 93.3822 166.041 93.6328 165.878C93.8835 165.712 94.1829 165.629 94.5312 165.629C94.7624 165.629 94.9707 165.665 95.1562 165.736C95.3451 165.808 95.5062 165.914 95.6396 166.054C95.7731 166.194 95.8789 166.363 95.957 166.562H96.0107C96.0986 166.373 96.2191 166.208 96.3721 166.068C96.5251 165.925 96.7057 165.816 96.9141 165.741C97.1224 165.666 97.3535 165.629 97.6074 165.629C97.9329 165.629 98.2178 165.697 98.4619 165.834C98.7093 165.971 98.9014 166.176 99.0381 166.449C99.1781 166.723 99.248 167.056 99.248 167.45V171H98.2031V167.548C98.1999 167.206 98.1071 166.951 97.9248 166.781C97.7425 166.612 97.5049 166.527 97.2119 166.527C96.9906 166.527 96.8001 166.575 96.6406 166.669C96.4844 166.76 96.3639 166.889 96.2793 167.055C96.1947 167.217 96.1507 167.406 96.1475 167.621V171H95.1123V167.475C95.1123 167.289 95.0732 167.125 94.9951 166.981C94.917 166.835 94.8031 166.723 94.6533 166.645C94.5068 166.566 94.3392 166.527 94.1504 166.527C93.9551 166.527 93.7744 166.578 93.6084 166.679C93.4456 166.78 93.3138 166.923 93.2129 167.108C93.1152 167.291 93.0664 167.497 93.0664 167.729V171H92.0264V165.697ZM102.754 171.107C102.256 171.107 101.82 170.993 101.445 170.766C101.071 170.538 100.781 170.219 100.576 169.809C100.371 169.395 100.269 168.917 100.269 168.373C100.269 167.826 100.371 167.346 100.576 166.933C100.781 166.519 101.071 166.199 101.445 165.971C101.82 165.743 102.256 165.629 102.754 165.629C103.245 165.629 103.678 165.743 104.053 165.971C104.427 166.199 104.715 166.519 104.917 166.933C105.119 167.346 105.22 167.826 105.22 168.373C105.22 168.917 105.119 169.395 104.917 169.809C104.715 170.219 104.427 170.538 104.053 170.766C103.678 170.993 103.245 171.107 102.754 171.107ZM102.754 170.238C103.063 170.238 103.324 170.155 103.535 169.989C103.75 169.823 103.91 169.599 104.014 169.315C104.118 169.032 104.17 168.716 104.17 168.368C104.17 168.02 104.118 167.704 104.014 167.421C103.91 167.138 103.75 166.913 103.535 166.747C103.324 166.578 103.063 166.493 102.754 166.493C102.441 166.493 102.178 166.578 101.963 166.747C101.748 166.913 101.587 167.138 101.479 167.421C101.375 167.704 101.322 168.02 101.318 168.368C101.322 168.716 101.375 169.032 101.479 169.315C101.587 169.599 101.748 169.823 101.963 169.989C102.178 170.155 102.441 170.238 102.754 170.238ZM108.506 171.107C107.998 171.107 107.557 170.992 107.183 170.761C106.808 170.53 106.52 170.207 106.318 169.794C106.12 169.377 106.021 168.904 106.021 168.373C106.021 167.836 106.123 167.361 106.328 166.947C106.533 166.531 106.821 166.207 107.192 165.976C107.567 165.744 107.998 165.629 108.486 165.629C108.887 165.629 109.246 165.702 109.565 165.849C109.888 165.995 110.145 166.205 110.337 166.479C110.532 166.749 110.648 167.06 110.684 167.411H109.668C109.629 167.242 109.559 167.089 109.458 166.952C109.357 166.812 109.225 166.701 109.062 166.62C108.903 166.539 108.719 166.498 108.511 166.498C108.224 166.498 107.972 166.573 107.754 166.723C107.539 166.872 107.371 167.087 107.251 167.367C107.131 167.644 107.07 167.969 107.07 168.344C107.07 168.725 107.129 169.057 107.246 169.34C107.367 169.62 107.534 169.838 107.749 169.994C107.964 170.147 108.218 170.222 108.511 170.219C108.706 170.222 108.883 170.188 109.043 170.116C109.202 170.041 109.336 169.937 109.443 169.804C109.551 169.67 109.626 169.507 109.668 169.315H110.684C110.645 169.664 110.531 169.973 110.342 170.243C110.156 170.513 109.904 170.725 109.585 170.878C109.269 171.031 108.91 171.107 108.506 171.107ZM112.622 167.934H112.808L114.912 165.697H116.157L113.745 168.256H113.579L112.632 169.203L112.622 167.934ZM111.675 163.93H112.715V171H111.675V163.93ZM113.13 168.49L113.843 167.758L116.299 171H115.024L113.13 168.49ZM126.621 171.825H125.732V163.075H126.621V171.825ZM124.331 167.143H122.144V166.371H124.331V167.143ZM124.81 171.396H123.936V163.271H124.81V171.396ZM119.99 169.003C120.719 169 121.31 168.982 121.763 168.949C122.215 168.917 122.674 168.848 123.14 168.744L123.228 169.521C122.746 169.618 122.267 169.685 121.792 169.721C121.317 169.753 120.716 169.771 119.99 169.774H119.419V169.003H119.99ZM122.734 164.882H120.322V169.311H119.419V164.13H122.734V164.882ZM134.995 171.85H134.062V163.075H134.995V171.85ZM130.308 163.734C130.744 163.734 131.133 163.86 131.475 164.11C131.816 164.361 132.083 164.719 132.275 165.185C132.467 165.65 132.563 166.19 132.563 166.806C132.563 167.424 132.467 167.966 132.275 168.432C132.083 168.894 131.816 169.25 131.475 169.501C131.133 169.752 130.744 169.877 130.308 169.877C129.871 169.877 129.481 169.752 129.136 169.501C128.794 169.25 128.527 168.894 128.335 168.432C128.143 167.966 128.047 167.424 128.047 166.806C128.047 166.19 128.143 165.65 128.335 165.185C128.527 164.719 128.794 164.361 129.136 164.11C129.481 163.86 129.871 163.734 130.308 163.734ZM130.308 164.564C130.041 164.564 129.803 164.656 129.595 164.838C129.386 165.02 129.225 165.281 129.111 165.619C128.997 165.958 128.942 166.353 128.945 166.806C128.942 167.261 128.997 167.659 129.111 167.997C129.225 168.332 129.386 168.591 129.595 168.773C129.803 168.952 130.041 169.042 130.308 169.042C130.575 169.042 130.811 168.952 131.016 168.773C131.224 168.591 131.385 168.332 131.499 167.997C131.613 167.659 131.67 167.261 131.67 166.806C131.67 166.353 131.613 165.958 131.499 165.619C131.385 165.281 131.224 165.02 131.016 164.838C130.811 164.656 130.575 164.564 130.308 164.564ZM143.687 171.85H142.764V163.075H143.687V171.85ZM142.9 167.064H141.021V166.308H142.9V167.064ZM137.466 169.013C138.341 169.013 139.066 168.996 139.639 168.964C140.212 168.931 140.788 168.865 141.367 168.764L141.465 169.521C140.846 169.618 140.238 169.685 139.639 169.721C139.04 169.757 138.315 169.774 137.466 169.774H136.787V169.013H137.466ZM140.879 164.618H137.72V169.262H136.787V163.856H140.879V164.618ZM140.513 167.055H137.49V166.312H140.513V167.055ZM153.037 170.78H145.029V170.014H153.037V170.78ZM149.468 170.341H148.56V168.207H149.468V170.341ZM152.056 166.43H146.929V168.109H146.006V165.688H151.143V164.457H145.991V163.7H152.056V166.43ZM152.261 168.471H146.006V167.709H152.261V168.471ZM164.092 168.026H156.113V167.284H164.092V168.026ZM160.098 168.686C160.723 168.682 161.261 168.743 161.714 168.866C162.166 168.987 162.513 169.164 162.754 169.398C162.995 169.633 163.117 169.918 163.12 170.253C163.117 170.588 162.995 170.873 162.754 171.107C162.516 171.345 162.17 171.524 161.714 171.645C161.261 171.768 160.723 171.83 160.098 171.83C159.463 171.83 158.918 171.768 158.462 171.645C158.009 171.524 157.663 171.345 157.422 171.107C157.181 170.873 157.061 170.588 157.061 170.253C157.061 169.918 157.181 169.633 157.422 169.398C157.663 169.164 158.009 168.987 158.462 168.866C158.918 168.743 159.463 168.682 160.098 168.686ZM160.098 169.389C159.652 169.389 159.272 169.421 158.96 169.486C158.647 169.548 158.408 169.646 158.242 169.779C158.079 169.91 158 170.067 158.003 170.253C158 170.435 158.079 170.59 158.242 170.717C158.408 170.844 158.647 170.94 158.96 171.005C159.272 171.073 159.652 171.106 160.098 171.103C160.537 171.106 160.913 171.073 161.226 171.005C161.538 170.94 161.776 170.844 161.938 170.717C162.104 170.59 162.188 170.435 162.188 170.253C162.188 170.067 162.104 169.91 161.938 169.779C161.776 169.646 161.538 169.548 161.226 169.486C160.916 169.421 160.54 169.389 160.098 169.389ZM160.103 163.29C160.734 163.29 161.284 163.357 161.753 163.49C162.225 163.624 162.588 163.819 162.842 164.076C163.096 164.33 163.223 164.628 163.223 164.97C163.223 165.318 163.096 165.618 162.842 165.868C162.588 166.119 162.225 166.311 161.753 166.444C161.284 166.578 160.734 166.645 160.103 166.645C159.465 166.645 158.91 166.578 158.438 166.444C157.969 166.311 157.606 166.119 157.349 165.868C157.095 165.618 156.968 165.318 156.968 164.97C156.968 164.628 157.096 164.33 157.354 164.076C157.611 163.819 157.974 163.624 158.442 163.49C158.911 163.357 159.465 163.29 160.103 163.29ZM160.103 164.032C159.65 164.029 159.261 164.063 158.936 164.135C158.613 164.206 158.364 164.314 158.188 164.457C158.016 164.6 157.93 164.771 157.93 164.97C157.93 165.172 158.016 165.342 158.188 165.482C158.364 165.622 158.613 165.73 158.936 165.805C159.261 165.88 159.65 165.917 160.103 165.917C160.549 165.917 160.934 165.88 161.26 165.805C161.589 165.73 161.839 165.622 162.012 165.482C162.184 165.342 162.271 165.172 162.271 164.97C162.271 164.771 162.184 164.6 162.012 164.457C161.839 164.314 161.589 164.206 161.26 164.135C160.934 164.063 160.549 164.029 160.103 164.032ZM171.631 167.748H170.708V163.075H171.631V167.748ZM172.905 165.849H171.372V165.077H172.905V165.849ZM165.84 166.718C166.816 166.718 167.586 166.7 168.149 166.664C168.716 166.625 169.274 166.549 169.824 166.435L169.937 167.187C169.364 167.304 168.783 167.383 168.193 167.426C167.607 167.465 166.823 167.484 165.84 167.484H165.142V166.718H165.84ZM169.033 164.394H166.064V167.235H165.142V163.642H169.033V164.394ZM166.943 169.203H170.708V168.202H171.631V171.693H166.021V168.202H166.943V169.203ZM170.708 170.937V169.936H166.943V170.937H170.708ZM178.354 164.755C178.354 165.217 178.275 165.666 178.115 166.103C177.959 166.539 177.726 166.931 177.417 167.279C177.108 167.628 176.738 167.893 176.309 168.075L175.806 167.357C176.187 167.195 176.514 166.972 176.787 166.688C177.064 166.402 177.271 166.093 177.407 165.761C177.547 165.425 177.619 165.09 177.622 164.755V163.622H178.354V164.755ZM178.511 164.755C178.514 165.084 178.584 165.401 178.721 165.707C178.857 166.01 179.056 166.285 179.316 166.532C179.58 166.78 179.896 166.973 180.264 167.113L179.775 167.821C179.346 167.655 178.981 167.418 178.682 167.108C178.385 166.796 178.161 166.438 178.008 166.034C177.855 165.631 177.78 165.204 177.783 164.755V163.622H178.511V164.755ZM183.301 168.471H182.417V163.085H183.301V168.471ZM182.69 166.127H181.108V165.365H182.69V166.127ZM181.401 168.197H180.537V163.246H181.401V168.197ZM180.376 168.642C180.978 168.642 181.502 168.703 181.948 168.827C182.397 168.951 182.743 169.133 182.983 169.374C183.228 169.615 183.35 169.9 183.35 170.229C183.35 170.557 183.228 170.839 182.983 171.073C182.743 171.311 182.397 171.493 181.948 171.62C181.502 171.75 180.978 171.815 180.376 171.815C179.767 171.815 179.238 171.75 178.789 171.62C178.343 171.493 178.001 171.311 177.764 171.073C177.526 170.839 177.407 170.557 177.407 170.229C177.407 169.9 177.526 169.615 177.764 169.374C178.001 169.133 178.343 168.951 178.789 168.827C179.238 168.703 179.767 168.642 180.376 168.642ZM180.376 169.345C179.95 169.341 179.583 169.376 179.277 169.447C178.971 169.519 178.737 169.621 178.574 169.755C178.411 169.888 178.332 170.046 178.335 170.229C178.332 170.414 178.411 170.572 178.574 170.702C178.737 170.832 178.971 170.932 179.277 171C179.583 171.068 179.95 171.103 180.376 171.103C180.796 171.103 181.159 171.068 181.465 171C181.774 170.932 182.01 170.832 182.173 170.702C182.336 170.572 182.419 170.414 182.422 170.229C182.419 170.046 182.336 169.888 182.173 169.755C182.01 169.621 181.774 169.519 181.465 169.447C181.156 169.376 180.793 169.341 180.376 169.345ZM187.422 164.433C187.422 165.002 187.323 165.535 187.124 166.029C186.929 166.521 186.646 166.949 186.274 167.313C185.903 167.675 185.462 167.948 184.951 168.134L184.448 167.382C184.907 167.226 185.304 166.999 185.64 166.703C185.975 166.407 186.229 166.063 186.401 165.673C186.577 165.282 186.667 164.869 186.67 164.433V163.563H187.422V164.433ZM187.593 164.389C187.59 164.799 187.673 165.186 187.842 165.551C188.011 165.912 188.255 166.233 188.574 166.513C188.893 166.789 189.271 166.999 189.707 167.143L189.194 167.865C188.706 167.686 188.286 167.427 187.935 167.089C187.583 166.75 187.311 166.352 187.119 165.893C186.93 165.434 186.836 164.932 186.836 164.389V163.563H187.593V164.389ZM191.777 168.241H190.85V163.075H191.777V168.241ZM188.843 168.49C189.455 168.49 189.982 168.555 190.425 168.686C190.868 168.816 191.208 169.006 191.445 169.257C191.686 169.507 191.807 169.809 191.807 170.16C191.807 170.508 191.686 170.806 191.445 171.054C191.208 171.301 190.868 171.49 190.425 171.62C189.982 171.75 189.455 171.815 188.843 171.815C188.234 171.815 187.708 171.75 187.266 171.62C186.823 171.49 186.483 171.301 186.245 171.054C186.007 170.806 185.889 170.508 185.889 170.16C185.889 169.809 186.007 169.507 186.245 169.257C186.483 169.006 186.823 168.816 187.266 168.686C187.708 168.555 188.234 168.49 188.843 168.49ZM188.843 169.213C188.416 169.216 188.05 169.254 187.744 169.325C187.441 169.397 187.209 169.504 187.046 169.647C186.886 169.791 186.807 169.962 186.807 170.16C186.807 170.352 186.886 170.517 187.046 170.653C187.209 170.79 187.441 170.896 187.744 170.971C188.05 171.046 188.416 171.083 188.843 171.083C189.269 171.083 189.635 171.046 189.941 170.971C190.247 170.896 190.48 170.79 190.64 170.653C190.802 170.517 190.884 170.352 190.884 170.16C190.884 169.962 190.802 169.791 190.64 169.647C190.48 169.504 190.247 169.397 189.941 169.325C189.635 169.254 189.269 169.216 188.843 169.213ZM191.016 165.624H189.004V164.862H191.016V165.624ZM203.096 164.804H195.967V164.047H203.096V164.804ZM203.574 169.501H195.566V168.744H203.574V169.501ZM200.005 171.845H199.097V169.369H200.005V171.845ZM199.556 165.253C200.158 165.253 200.677 165.31 201.113 165.424C201.553 165.535 201.888 165.702 202.119 165.927C202.35 166.148 202.466 166.417 202.466 166.732C202.466 167.042 202.349 167.305 202.114 167.523C201.883 167.738 201.549 167.904 201.113 168.021C200.677 168.139 200.158 168.197 199.556 168.197C198.947 168.197 198.424 168.139 197.988 168.021C197.555 167.904 197.222 167.738 196.987 167.523C196.756 167.305 196.642 167.042 196.646 166.732C196.642 166.417 196.756 166.148 196.987 165.927C197.222 165.702 197.555 165.535 197.988 165.424C198.424 165.31 198.947 165.253 199.556 165.253ZM199.556 165.951C199.136 165.951 198.779 165.98 198.486 166.039C198.197 166.098 197.975 166.186 197.822 166.303C197.673 166.42 197.599 166.563 197.603 166.732C197.599 166.895 197.673 167.034 197.822 167.147C197.975 167.258 198.197 167.344 198.486 167.406C198.779 167.465 199.136 167.494 199.556 167.494C199.969 167.494 200.321 167.465 200.61 167.406C200.903 167.344 201.125 167.258 201.274 167.147C201.424 167.034 201.501 166.895 201.504 166.732C201.501 166.563 201.424 166.42 201.274 166.303C201.125 166.186 200.903 166.098 200.61 166.039C200.321 165.98 199.969 165.951 199.556 165.951ZM200.005 164.55H199.097V163.036H200.005V164.55ZM213.53 166.215H211.343V165.453H213.53V166.215ZM213.945 169.496H213.018V163.085H213.945V169.496ZM214.18 171.654H208.262V170.888H214.18V171.654ZM209.194 171.293H208.262V168.92H209.194V171.293ZM209.604 164.853C209.604 165.39 209.505 165.896 209.307 166.371C209.108 166.843 208.823 167.258 208.452 167.616C208.081 167.971 207.645 168.24 207.144 168.422L206.66 167.67C207.1 167.52 207.484 167.302 207.812 167.016C208.145 166.726 208.398 166.394 208.574 166.02C208.753 165.645 208.843 165.256 208.843 164.853V164.184H209.604V164.853ZM209.78 164.857C209.78 165.225 209.867 165.583 210.039 165.932C210.212 166.277 210.456 166.586 210.771 166.859C211.087 167.133 211.46 167.341 211.89 167.484L211.416 168.222C210.928 168.052 210.503 167.799 210.142 167.46C209.784 167.118 209.507 166.724 209.312 166.278C209.119 165.832 209.025 165.359 209.028 164.857V164.184H209.78V164.857ZM211.665 164.511H206.938V163.754H211.665V164.511ZM216.362 166.439C217.287 166.443 218.04 166.423 218.623 166.381C219.209 166.339 219.788 166.26 220.361 166.146L220.474 166.874C220.076 166.962 219.681 167.029 219.287 167.074C218.896 167.117 218.477 167.146 218.027 167.162C217.578 167.175 217.023 167.18 216.362 167.177H215.664V166.439H216.362ZM219.57 164.311H216.577V166.874H215.664V163.568H219.57V164.311ZM222.168 167.475H221.245V163.075H222.168V167.475ZM223.442 165.629H221.909V164.867H223.442V165.629ZM222.168 170.121H217.441V171.381H216.528V169.408H221.245V168.627H216.514V167.88H222.168V170.121ZM222.471 171.718H216.528V170.966H222.471V171.718Z" fill="#4B4B4B"/>
<path d="M51 112C51 114.209 52.7909 116 55 116C57.2091 116 59 114.209 59 112C59 109.791 57.2091 108 55 108C52.7909 108 51 109.791 51 112ZM157 112L149.5 107.67V116.33L157 112ZM55 112V112.75H150.25V112V111.25H55V112Z" fill="#969696"/>
<path d="M153 132C153 134.209 154.791 136 157 136C159.209 136 161 134.209 161 132C161 129.791 159.209 128 157 128C154.791 128 153 129.791 153 132ZM259 132L251.5 127.67V136.33L259 132ZM157 132V132.75H252.25V132V131.25H157V132Z" fill="#969696"/>
<path d="M157 190L164.5 194.33V185.67L157 190ZM255 190C255 192.209 256.791 194 259 194C261.209 194 263 192.209 263 190C263 187.791 261.209 186 259 186C256.791 186 255 187.791 255 190ZM163.75 190V190.75H259V190V189.25H163.75V190Z" fill="#969696"/>
<path d="M55 190L62.5 194.33V185.67L55 190ZM153 190C153 192.209 154.791 194 157 194C159.209 194 161 192.209 161 190C161 187.791 159.209 186 157 186C154.791 186 153 187.791 153 190ZM61.75 190V190.75H157V190V189.25H61.75V190Z" fill="#969696"/>
<rect x="103.5" y="20.5" width="107" height="35" rx="17.5" fill="#F0F0F0"/>
<rect x="103.5" y="20.5" width="107" height="35" rx="17.5" stroke="#E4E4E4"/>
<path d="M120.895 35.748C120.867 35.4902 120.777 35.2676 120.625 35.0801C120.477 34.8926 120.275 34.752 120.021 34.6582C119.768 34.5645 119.479 34.5176 119.154 34.5176C118.814 34.5176 118.516 34.5703 118.258 34.6758C118 34.7812 117.801 34.9297 117.66 35.1211C117.52 35.3086 117.449 35.5234 117.449 35.7656C117.449 36.125 117.596 36.4023 117.889 36.5977C118.186 36.7891 118.555 36.9375 118.996 37.043L119.811 37.2598C120.518 37.4355 121.102 37.7051 121.562 38.0684C122.027 38.4316 122.26 38.9609 122.26 39.6562C122.26 40.1367 122.135 40.5664 121.885 40.9453C121.639 41.3203 121.277 41.6133 120.801 41.8242C120.328 42.0352 119.766 42.1406 119.113 42.1406C118.48 42.1406 117.932 42.0391 117.467 41.8359C117.006 41.6328 116.643 41.3457 116.377 40.9746C116.115 40.6035 115.969 40.1621 115.938 39.6504H117.227C117.25 39.9434 117.348 40.1934 117.52 40.4004C117.691 40.6035 117.914 40.7559 118.188 40.8574C118.465 40.959 118.771 41.0078 119.107 41.0039C119.467 41.0039 119.789 40.9473 120.074 40.834C120.359 40.7207 120.582 40.5605 120.742 40.3535C120.902 40.1465 120.982 39.9062 120.982 39.6328C120.982 39.3984 120.916 39.1992 120.783 39.0352C120.65 38.8711 120.469 38.7383 120.238 38.6367C120.008 38.5352 119.723 38.4395 119.383 38.3496L118.375 38.0859C117.664 37.8906 117.117 37.6113 116.734 37.248C116.355 36.8809 116.168 36.4102 116.172 35.8359C116.172 35.3555 116.301 34.9297 116.559 34.5586C116.82 34.1875 117.18 33.9023 117.637 33.7031C118.098 33.5 118.613 33.3984 119.184 33.3984C119.75 33.3984 120.256 33.5 120.701 33.7031C121.15 33.9023 121.5 34.1816 121.75 34.541C122.004 34.8965 122.135 35.2988 122.143 35.748H120.895ZM126.303 42.1289C125.686 42.1289 125.148 41.9941 124.691 41.7246C124.234 41.4551 123.883 41.0742 123.637 40.582C123.391 40.0898 123.268 39.5176 123.268 38.8652C123.268 38.2168 123.391 37.6406 123.637 37.1367C123.883 36.6328 124.227 36.2441 124.668 35.9707C125.113 35.6934 125.629 35.5547 126.215 35.5547C126.727 35.5547 127.195 35.666 127.621 35.8887C128.051 36.1074 128.395 36.457 128.652 36.9375C128.91 37.4141 129.039 38.0176 129.039 38.748V39.1875H123.971V38.2559H127.814C127.814 37.9395 127.748 37.6543 127.615 37.4004C127.486 37.1426 127.301 36.9414 127.059 36.7969C126.816 36.6523 126.539 36.5801 126.227 36.5801C125.887 36.5801 125.588 36.6621 125.33 36.8262C125.072 36.9902 124.871 37.2109 124.727 37.4883C124.586 37.7656 124.514 38.0625 124.51 38.3789V39.1055C124.51 39.5234 124.586 39.8828 124.738 40.1836C124.891 40.4805 125.102 40.709 125.371 40.8691C125.641 41.0254 125.953 41.1035 126.309 41.1035C126.535 41.0996 126.74 41.0664 126.924 41.0039C127.107 40.9414 127.262 40.8594 127.387 40.7578C127.516 40.6562 127.617 40.5391 127.691 40.4062H128.963C128.865 40.7539 128.695 41.0566 128.453 41.3145C128.215 41.5723 127.91 41.7734 127.539 41.918C127.172 42.0586 126.76 42.1289 126.303 42.1289ZM130.275 35.6367H131.482V36.6562H131.553C131.666 36.3125 131.869 36.041 132.162 35.8418C132.455 35.6426 132.785 35.541 133.152 35.5371C133.449 35.5449 133.629 35.5566 133.691 35.5723V36.7676C133.617 36.748 133.52 36.7305 133.398 36.7148C133.277 36.6953 133.156 36.6855 133.035 36.6855C132.75 36.6855 132.492 36.748 132.262 36.873C132.035 36.998 131.855 37.1699 131.723 37.3887C131.59 37.6035 131.523 37.8477 131.523 38.1211V42H130.275V35.6367ZM137.975 42H136.633L134.324 35.6367H135.672L137.271 40.5293H137.342L138.947 35.6367H140.295L137.975 42ZM141.326 35.6367H142.574V42H141.326V35.6367ZM141.947 34.6523C141.803 34.6523 141.67 34.6191 141.549 34.5527C141.432 34.4824 141.338 34.3926 141.268 34.2832C141.197 34.1738 141.162 34.0508 141.162 33.9141C141.162 33.7812 141.197 33.6582 141.268 33.5449C141.338 33.4316 141.434 33.3418 141.555 33.2754C141.676 33.209 141.807 33.1758 141.947 33.1758C142.088 33.1758 142.219 33.209 142.34 33.2754C142.461 33.3418 142.557 33.4316 142.627 33.5449C142.701 33.6582 142.738 33.7812 142.738 33.9141C142.738 34.0508 142.701 34.1738 142.627 34.2832C142.557 34.3926 142.461 34.4824 142.34 34.5527C142.219 34.6191 142.088 34.6523 141.947 34.6523ZM146.793 42.1289C146.184 42.1289 145.654 41.9902 145.205 41.7129C144.756 41.4355 144.41 41.0488 144.168 40.5527C143.93 40.0527 143.811 39.4844 143.811 38.8477C143.811 38.2031 143.934 37.6328 144.18 37.1367C144.426 36.6367 144.771 36.248 145.217 35.9707C145.666 35.6934 146.184 35.5547 146.77 35.5547C147.25 35.5547 147.682 35.6426 148.064 35.8184C148.451 35.9941 148.76 36.2461 148.99 36.5742C149.225 36.8984 149.363 37.2715 149.406 37.6934H148.188C148.141 37.4902 148.057 37.3066 147.936 37.1426C147.814 36.9746 147.656 36.8418 147.461 36.7441C147.27 36.6465 147.049 36.5977 146.799 36.5977C146.455 36.5977 146.152 36.6875 145.891 36.8672C145.633 37.0469 145.432 37.3047 145.287 37.6406C145.143 37.9727 145.07 38.3633 145.07 38.8125C145.07 39.2695 145.141 39.668 145.281 40.0078C145.426 40.3438 145.627 40.6055 145.885 40.793C146.143 40.9766 146.447 41.0664 146.799 41.0625C147.033 41.0664 147.246 41.0254 147.438 40.9395C147.629 40.8496 147.789 40.7246 147.918 40.5645C148.047 40.4043 148.137 40.209 148.188 39.9785H149.406C149.359 40.3965 149.223 40.7676 148.996 41.0918C148.773 41.416 148.471 41.6699 148.088 41.8535C147.709 42.0371 147.277 42.1289 146.793 42.1289ZM153.338 42.1289C152.721 42.1289 152.184 41.9941 151.727 41.7246C151.27 41.4551 150.918 41.0742 150.672 40.582C150.426 40.0898 150.303 39.5176 150.303 38.8652C150.303 38.2168 150.426 37.6406 150.672 37.1367C150.918 36.6328 151.262 36.2441 151.703 35.9707C152.148 35.6934 152.664 35.5547 153.25 35.5547C153.762 35.5547 154.23 35.666 154.656 35.8887C155.086 36.1074 155.43 36.457 155.688 36.9375C155.945 37.4141 156.074 38.0176 156.074 38.748V39.1875H151.006V38.2559H154.85C154.85 37.9395 154.783 37.6543 154.65 37.4004C154.521 37.1426 154.336 36.9414 154.094 36.7969C153.852 36.6523 153.574 36.5801 153.262 36.5801C152.922 36.5801 152.623 36.6621 152.365 36.8262C152.107 36.9902 151.906 37.2109 151.762 37.4883C151.621 37.7656 151.549 38.0625 151.545 38.3789V39.1055C151.545 39.5234 151.621 39.8828 151.773 40.1836C151.926 40.4805 152.137 40.709 152.406 40.8691C152.676 41.0254 152.988 41.1035 153.344 41.1035C153.57 41.0996 153.775 41.0664 153.959 41.0039C154.143 40.9414 154.297 40.8594 154.422 40.7578C154.551 40.6562 154.652 40.5391 154.727 40.4062H155.998C155.9 40.7539 155.73 41.0566 155.488 41.3145C155.25 41.5723 154.945 41.7734 154.574 41.918C154.207 42.0586 153.795 42.1289 153.338 42.1289ZM159.66 33.5156H161.014L162.666 40.0723H162.748L164.459 33.5156H165.801L167.523 40.0781H167.594L169.252 33.5156H170.6L168.244 42H166.943L165.168 35.6543H165.104L163.316 42H162.016L159.66 33.5156ZM173.617 42.1289C173.02 42.1289 172.496 41.9922 172.047 41.7188C171.598 41.4453 171.25 41.0625 171.004 40.5703C170.758 40.0742 170.635 39.5 170.635 38.8477C170.635 38.1914 170.758 37.6152 171.004 37.1191C171.25 36.623 171.598 36.2383 172.047 35.9648C172.496 35.6914 173.02 35.5547 173.617 35.5547C174.207 35.5547 174.727 35.6914 175.176 35.9648C175.625 36.2383 175.971 36.623 176.213 37.1191C176.455 37.6152 176.576 38.1914 176.576 38.8477C176.576 39.5 176.455 40.0742 176.213 40.5703C175.971 41.0625 175.625 41.4453 175.176 41.7188C174.727 41.9922 174.207 42.1289 173.617 42.1289ZM173.617 41.0859C173.988 41.0859 174.301 40.9863 174.555 40.7871C174.812 40.5879 175.004 40.3184 175.129 39.9785C175.254 39.6387 175.316 39.2598 175.316 38.8418C175.316 38.4238 175.254 38.0449 175.129 37.7051C175.004 37.3652 174.812 37.0957 174.555 36.8965C174.301 36.6934 173.988 36.5918 173.617 36.5918C173.242 36.5918 172.926 36.6934 172.668 36.8965C172.41 37.0957 172.217 37.3652 172.088 37.7051C171.963 38.0449 171.898 38.4238 171.895 38.8418C171.898 39.2598 171.963 39.6387 172.088 39.9785C172.217 40.3184 172.41 40.5879 172.668 40.7871C172.926 40.9863 173.242 41.0859 173.617 41.0859ZM177.83 35.6367H179.037V36.6562H179.107C179.221 36.3125 179.424 36.041 179.717 35.8418C180.01 35.6426 180.34 35.541 180.707 35.5371C181.004 35.5449 181.184 35.5566 181.246 35.5723V36.7676C181.172 36.748 181.074 36.7305 180.953 36.7148C180.832 36.6953 180.711 36.6855 180.59 36.6855C180.305 36.6855 180.047 36.748 179.816 36.873C179.59 36.998 179.41 37.1699 179.277 37.3887C179.145 37.6035 179.078 37.8477 179.078 38.1211V42H177.83V35.6367ZM183.326 38.3203H183.549L186.074 35.6367H187.568L184.674 38.707H184.475L183.338 39.8438L183.326 38.3203ZM182.189 33.5156H183.438V42H182.189V33.5156ZM183.936 38.9883L184.791 38.1094L187.738 42H186.209L183.936 38.9883ZM191.025 42.1289C190.408 42.1289 189.871 41.9941 189.414 41.7246C188.957 41.4551 188.605 41.0742 188.359 40.582C188.113 40.0898 187.99 39.5176 187.99 38.8652C187.99 38.2168 188.113 37.6406 188.359 37.1367C188.605 36.6328 188.949 36.2441 189.391 35.9707C189.836 35.6934 190.352 35.5547 190.938 35.5547C191.449 35.5547 191.918 35.666 192.344 35.8887C192.773 36.1074 193.117 36.457 193.375 36.9375C193.633 37.4141 193.762 38.0176 193.762 38.748V39.1875H188.693V38.2559H192.537C192.537 37.9395 192.471 37.6543 192.338 37.4004C192.209 37.1426 192.023 36.9414 191.781 36.7969C191.539 36.6523 191.262 36.5801 190.949 36.5801C190.609 36.5801 190.311 36.6621 190.053 36.8262C189.795 36.9902 189.594 37.2109 189.449 37.4883C189.309 37.7656 189.236 38.0625 189.232 38.3789V39.1055C189.232 39.5234 189.309 39.8828 189.461 40.1836C189.613 40.4805 189.824 40.709 190.094 40.8691C190.363 41.0254 190.676 41.1035 191.031 41.1035C191.258 41.0996 191.463 41.0664 191.646 41.0039C191.83 40.9414 191.984 40.8594 192.109 40.7578C192.238 40.6562 192.34 40.5391 192.414 40.4062H193.686C193.588 40.7539 193.418 41.0566 193.176 41.3145C192.938 41.5723 192.633 41.7734 192.262 41.918C191.895 42.0586 191.482 42.1289 191.025 42.1289ZM194.998 35.6367H196.205V36.6562H196.275C196.389 36.3125 196.592 36.041 196.885 35.8418C197.178 35.6426 197.508 35.541 197.875 35.5371C198.172 35.5449 198.352 35.5566 198.414 35.5723V36.7676C198.34 36.748 198.242 36.7305 198.121 36.7148C198 36.6953 197.879 36.6855 197.758 36.6855C197.473 36.6855 197.215 36.748 196.984 36.873C196.758 36.998 196.578 37.1699 196.445 37.3887C196.312 37.6035 196.246 37.8477 196.246 38.1211V42H194.998V35.6367Z" fill="#4B4B4B"/>
<rect x="297.5" y="20.5" width="59" height="35" rx="17.5" fill="#F0F0F0"/>
<rect x="297.5" y="20.5" width="59" height="35" rx="17.5" stroke="#E4E4E4"/>
<path d="M314.49 35.748C314.463 35.4902 314.373 35.2676 314.221 35.0801C314.072 34.8926 313.871 34.752 313.617 34.6582C313.363 34.5645 313.074 34.5176 312.75 34.5176C312.41 34.5176 312.111 34.5703 311.854 34.6758C311.596 34.7812 311.396 34.9297 311.256 35.1211C311.115 35.3086 311.045 35.5234 311.045 35.7656C311.045 36.125 311.191 36.4023 311.484 36.5977C311.781 36.7891 312.15 36.9375 312.592 37.043L313.406 37.2598C314.113 37.4355 314.697 37.7051 315.158 38.0684C315.623 38.4316 315.855 38.9609 315.855 39.6562C315.855 40.1367 315.73 40.5664 315.48 40.9453C315.234 41.3203 314.873 41.6133 314.396 41.8242C313.924 42.0352 313.361 42.1406 312.709 42.1406C312.076 42.1406 311.527 42.0391 311.062 41.8359C310.602 41.6328 310.238 41.3457 309.973 40.9746C309.711 40.6035 309.564 40.1621 309.533 39.6504H310.822C310.846 39.9434 310.943 40.1934 311.115 40.4004C311.287 40.6035 311.51 40.7559 311.783 40.8574C312.061 40.959 312.367 41.0078 312.703 41.0039C313.062 41.0039 313.385 40.9473 313.67 40.834C313.955 40.7207 314.178 40.5605 314.338 40.3535C314.498 40.1465 314.578 39.9062 314.578 39.6328C314.578 39.3984 314.512 39.1992 314.379 39.0352C314.246 38.8711 314.064 38.7383 313.834 38.6367C313.604 38.5352 313.318 38.4395 312.979 38.3496L311.971 38.0859C311.26 37.8906 310.713 37.6113 310.33 37.248C309.951 36.8809 309.764 36.4102 309.768 35.8359C309.768 35.3555 309.896 34.9297 310.154 34.5586C310.416 34.1875 310.775 33.9023 311.232 33.7031C311.693 33.5 312.209 33.3984 312.779 33.3984C313.346 33.3984 313.852 33.5 314.297 33.7031C314.746 33.9023 315.096 34.1816 315.346 34.541C315.6 34.8965 315.73 35.2988 315.738 35.748H314.49ZM319.898 42.1289C319.281 42.1289 318.744 41.9941 318.287 41.7246C317.83 41.4551 317.479 41.0742 317.232 40.582C316.986 40.0898 316.863 39.5176 316.863 38.8652C316.863 38.2168 316.986 37.6406 317.232 37.1367C317.479 36.6328 317.822 36.2441 318.264 35.9707C318.709 35.6934 319.225 35.5547 319.811 35.5547C320.322 35.5547 320.791 35.666 321.217 35.8887C321.646 36.1074 321.99 36.457 322.248 36.9375C322.506 37.4141 322.635 38.0176 322.635 38.748V39.1875H317.566V38.2559H321.41C321.41 37.9395 321.344 37.6543 321.211 37.4004C321.082 37.1426 320.896 36.9414 320.654 36.7969C320.412 36.6523 320.135 36.5801 319.822 36.5801C319.482 36.5801 319.184 36.6621 318.926 36.8262C318.668 36.9902 318.467 37.2109 318.322 37.4883C318.182 37.7656 318.109 38.0625 318.105 38.3789V39.1055C318.105 39.5234 318.182 39.8828 318.334 40.1836C318.486 40.4805 318.697 40.709 318.967 40.8691C319.236 41.0254 319.549 41.1035 319.904 41.1035C320.131 41.0996 320.336 41.0664 320.52 41.0039C320.703 40.9414 320.857 40.8594 320.982 40.7578C321.111 40.6562 321.213 40.5391 321.287 40.4062H322.559C322.461 40.7539 322.291 41.0566 322.049 41.3145C321.811 41.5723 321.506 41.7734 321.135 41.918C320.768 42.0586 320.355 42.1289 319.898 42.1289ZM323.871 35.6367H325.078V36.6562H325.148C325.262 36.3125 325.465 36.041 325.758 35.8418C326.051 35.6426 326.381 35.541 326.748 35.5371C327.045 35.5449 327.225 35.5566 327.287 35.5723V36.7676C327.213 36.748 327.115 36.7305 326.994 36.7148C326.873 36.6953 326.752 36.6855 326.631 36.6855C326.346 36.6855 326.088 36.748 325.857 36.873C325.631 36.998 325.451 37.1699 325.318 37.3887C325.186 37.6035 325.119 37.8477 325.119 38.1211V42H323.871V35.6367ZM331.57 42H330.229L327.92 35.6367H329.268L330.867 40.5293H330.938L332.543 35.6367H333.891L331.57 42ZM337.43 42.1289C336.812 42.1289 336.275 41.9941 335.818 41.7246C335.361 41.4551 335.01 41.0742 334.764 40.582C334.518 40.0898 334.395 39.5176 334.395 38.8652C334.395 38.2168 334.518 37.6406 334.764 37.1367C335.01 36.6328 335.354 36.2441 335.795 35.9707C336.24 35.6934 336.756 35.5547 337.342 35.5547C337.854 35.5547 338.322 35.666 338.748 35.8887C339.178 36.1074 339.521 36.457 339.779 36.9375C340.037 37.4141 340.166 38.0176 340.166 38.748V39.1875H335.098V38.2559H338.941C338.941 37.9395 338.875 37.6543 338.742 37.4004C338.613 37.1426 338.428 36.9414 338.186 36.7969C337.943 36.6523 337.666 36.5801 337.354 36.5801C337.014 36.5801 336.715 36.6621 336.457 36.8262C336.199 36.9902 335.998 37.2109 335.854 37.4883C335.713 37.7656 335.641 38.0625 335.637 38.3789V39.1055C335.637 39.5234 335.713 39.8828 335.865 40.1836C336.018 40.4805 336.229 40.709 336.498 40.8691C336.768 41.0254 337.08 41.1035 337.436 41.1035C337.662 41.0996 337.867 41.0664 338.051 41.0039C338.234 40.9414 338.389 40.8594 338.514 40.7578C338.643 40.6562 338.744 40.5391 338.818 40.4062H340.09C339.992 40.7539 339.822 41.0566 339.58 41.3145C339.342 41.5723 339.037 41.7734 338.666 41.918C338.299 42.0586 337.887 42.1289 337.43 42.1289ZM341.402 35.6367H342.609V36.6562H342.68C342.793 36.3125 342.996 36.041 343.289 35.8418C343.582 35.6426 343.912 35.541 344.279 35.5371C344.576 35.5449 344.756 35.5566 344.818 35.5723V36.7676C344.744 36.748 344.646 36.7305 344.525 36.7148C344.404 36.6953 344.283 36.6855 344.162 36.6855C343.877 36.6855 343.619 36.748 343.389 36.873C343.162 36.998 342.982 37.1699 342.85 37.3887C342.717 37.6035 342.65 37.8477 342.65 38.1211V42H341.402V35.6367Z" fill="#4B4B4B"/>
<rect x="229.5" y="20.5" width="59" height="35" rx="17.5" fill="#F0F0F0"/>
<rect x="229.5" y="20.5" width="59" height="35" rx="17.5" stroke="#E4E4E4"/>
<path d="M246.906 33.5156L249.602 40.0898H249.701L252.396 33.5156H253.961V42H252.73V35.8711H252.648L250.152 41.9883H249.139L246.643 35.8711H246.572V42H245.342V33.5156H246.906ZM260.307 35.748C260.279 35.4902 260.189 35.2676 260.037 35.0801C259.889 34.8926 259.688 34.752 259.434 34.6582C259.18 34.5645 258.891 34.5176 258.566 34.5176C258.227 34.5176 257.928 34.5703 257.67 34.6758C257.412 34.7812 257.213 34.9297 257.072 35.1211C256.932 35.3086 256.861 35.5234 256.861 35.7656C256.861 36.125 257.008 36.4023 257.301 36.5977C257.598 36.7891 257.967 36.9375 258.408 37.043L259.223 37.2598C259.93 37.4355 260.514 37.7051 260.975 38.0684C261.439 38.4316 261.672 38.9609 261.672 39.6562C261.672 40.1367 261.547 40.5664 261.297 40.9453C261.051 41.3203 260.689 41.6133 260.213 41.8242C259.74 42.0352 259.178 42.1406 258.525 42.1406C257.893 42.1406 257.344 42.0391 256.879 41.8359C256.418 41.6328 256.055 41.3457 255.789 40.9746C255.527 40.6035 255.381 40.1621 255.35 39.6504H256.639C256.662 39.9434 256.76 40.1934 256.932 40.4004C257.104 40.6035 257.326 40.7559 257.6 40.8574C257.877 40.959 258.184 41.0078 258.52 41.0039C258.879 41.0039 259.201 40.9473 259.486 40.834C259.771 40.7207 259.994 40.5605 260.154 40.3535C260.314 40.1465 260.395 39.9062 260.395 39.6328C260.395 39.3984 260.328 39.1992 260.195 39.0352C260.062 38.8711 259.881 38.7383 259.65 38.6367C259.42 38.5352 259.135 38.4395 258.795 38.3496L257.787 38.0859C257.076 37.8906 256.529 37.6113 256.146 37.248C255.768 36.8809 255.58 36.4102 255.584 35.8359C255.584 35.3555 255.713 34.9297 255.971 34.5586C256.232 34.1875 256.592 33.9023 257.049 33.7031C257.51 33.5 258.025 33.3984 258.596 33.3984C259.162 33.3984 259.668 33.5 260.113 33.7031C260.562 33.9023 260.912 34.1816 261.162 34.541C261.416 34.8965 261.547 35.2988 261.555 35.748H260.307ZM262.393 33.5156H263.746L265.398 40.0723H265.48L267.191 33.5156H268.533L270.256 40.0781H270.326L271.984 33.5156H273.332L270.977 42H269.676L267.9 35.6543H267.836L266.049 42H264.748L262.393 33.5156Z" fill="#4B4B4B"/>
</svg>
